<?xml version="1.0" encoding="UTF-8" standalone="no"?>
<svg width="116.417mm" height="81.1389mm"
 viewBox="0 0 330 230"
 xmlns="http://www.w3.org/2000/svg" xmlns:xlink="http://www.w3.org/1999/xlink"  version="1.2" baseProfile="tiny">
<title>Qt SVG Document</title>
<desc>MATLAB, The MathWorks, Inc. Version 25.1.0.2943329 R2025a</desc>
<defs>
</defs>
<g fill="none" stroke="black" stroke-width="1" fill-rule="evenodd" stroke-linecap="square" stroke-linejoin="bevel" >

<g fill="#ffffff" fill-opacity="1" stroke="none" transform="matrix(0.428571,0,0,0.428571,0,0)"
font-family="MS Shell Dlg 2" font-size="8.14286" font-weight="400" font-style="normal" 
>
<path vector-effect="none" fill-rule="evenodd" d="M0,0 L770,0 L770,537 L0,537 L0,0"/>
</g>

<g fill="#ffffff" fill-opacity="1" stroke="none" transform="matrix(4.28571e-05,0,0,4.28571e-05,0,0)"
font-family="MS Shell Dlg 2" font-size="8.14286" font-weight="400" font-style="normal" 
>
<path vector-effect="none" fill-rule="evenodd" d="M1e+06,400000 L1e+06,4.65e+06 L6.95e+06,4.65e+06 L6.95e+06,400000 L1e+06,400000"/>
</g>

<g fill="#212121" fill-opacity="0.14902" stroke="#212121" stroke-opacity="0.14902" stroke-width="1.16667" stroke-linecap="butt" stroke-linejoin="round" transform="matrix(0.428571,0,0,0.428571,0,0)"
font-family="MS Shell Dlg 2" font-size="8.14286" font-weight="400" font-style="normal" 
>
<polyline fill="none" vector-effect="none" points="100,431.447 695,431.447 " />
<polyline fill="none" vector-effect="none" points="100,364.661 695,364.661 " />
<polyline fill="none" vector-effect="none" points="100,297.875 695,297.875 " />
<polyline fill="none" vector-effect="none" points="100,231.09 695,231.09 " />
<polyline fill="none" vector-effect="none" points="100,164.304 695,164.304 " />
<polyline fill="none" vector-effect="none" points="100,97.5184 695,97.5184 " />
</g>

<g fill="#212121" fill-opacity="1" stroke="#212121" stroke-opacity="1" stroke-width="1.16667" stroke-linecap="butt" stroke-linejoin="round" transform="matrix(0.428571,0,0,0.428571,0,0)"
font-family="MS Shell Dlg 2" font-size="8.14286" font-weight="400" font-style="normal" 
>
<polyline fill="none" vector-effect="none" points="100,40 695,40 " />
</g>

<g fill="#1171be" fill-opacity="1" stroke="none" transform="matrix(4.28571e-05,0,0,4.28571e-05,0,0)"
font-family="MS Shell Dlg 2" font-size="8.14286" font-weight="400" font-style="normal" 
>
<path vector-effect="none" fill-rule="evenodd" d="M1.36167e+06,400000 L1.36167e+06,3.9487e+06 L1.48094e+06,3.9487e+06 L1.48094e+06,400000 L1.45989e+06,400000 L1.36167e+06,400000"/>
</g>

<g fill="#1171be" fill-opacity="1" stroke="none" transform="matrix(4.28571e-05,0,0,4.28571e-05,0,0)"
font-family="MS Shell Dlg 2" font-size="8.14286" font-weight="400" font-style="normal" 
>
<path vector-effect="none" fill-rule="evenodd" d="M2.18166e+06,400000 L2.18166e+06,3.89336e+06 L2.30093e+06,3.89336e+06 L2.30093e+06,400000 L2.27961e+06,400000 L2.18166e+06,400000"/>
</g>

<g fill="#1171be" fill-opacity="1" stroke="none" transform="matrix(4.28571e-05,0,0,4.28571e-05,0,0)"
font-family="MS Shell Dlg 2" font-size="8.14286" font-weight="400" font-style="normal" 
>
<path vector-effect="none" fill-rule="evenodd" d="M3.00165e+06,400000 L3.00165e+06,3.69962e+06 L3.12092e+06,3.69962e+06 L3.12092e+06,400000 L3.09858e+06,400000 L3.00165e+06,400000"/>
</g>

<g fill="#1171be" fill-opacity="1" stroke="none" transform="matrix(4.28571e-05,0,0,4.28571e-05,0,0)"
font-family="MS Shell Dlg 2" font-size="8.14286" font-weight="400" font-style="normal" 
>
<path vector-effect="none" fill-rule="evenodd" d="M3.82164e+06,400000 L3.82164e+06,3.44948e+06 L3.94091e+06,3.44948e+06 L3.94091e+06,400000 L3.9171e+06,400000 L3.82164e+06,400000"/>
</g>

<g fill="#1171be" fill-opacity="1" stroke="none" transform="matrix(4.28571e-05,0,0,4.28571e-05,0,0)"
font-family="MS Shell Dlg 2" font-size="8.14286" font-weight="400" font-style="normal" 
>
<path vector-effect="none" fill-rule="evenodd" d="M4.64163e+06,400000 L4.64163e+06,3.06183e+06 L4.7609e+06,3.06183e+06 L4.7609e+06,400000 L4.73439e+06,400000 L4.64163e+06,400000"/>
</g>

<g fill="#1171be" fill-opacity="1" stroke="none" transform="matrix(4.28571e-05,0,0,4.28571e-05,0,0)"
font-family="MS Shell Dlg 2" font-size="8.14286" font-weight="400" font-style="normal" 
>
<path vector-effect="none" fill-rule="evenodd" d="M5.46162e+06,400000 L5.46162e+06,2.36174e+06 L5.58089e+06,2.36174e+06 L5.58089e+06,400000 L5.54757e+06,400000 L5.46162e+06,400000"/>
</g>

<g fill="#1171be" fill-opacity="1" stroke="none" transform="matrix(4.28571e-05,0,0,4.28571e-05,0,0)"
font-family="MS Shell Dlg 2" font-size="8.14286" font-weight="400" font-style="normal" 
>
<path vector-effect="none" fill-rule="evenodd" d="M6.28161e+06,400000 L6.28161e+06,1.39604e+06 L6.40088e+06,1.39604e+06 L6.40088e+06,400000 L6.34924e+06,400000 L6.28161e+06,400000"/>
</g>

<g fill="none" stroke="#212121" stroke-opacity="1" stroke-width="1.16667" stroke-linecap="butt" stroke-linejoin="miter" stroke-miterlimit="2" transform="matrix(0.428571,0,0,0.428571,0,0)"
font-family="MS Shell Dlg 2" font-size="8.14286" font-weight="400" font-style="normal" 
>
<polyline fill="none" vector-effect="none" points="136.167,40 136.167,394.87 148.094,394.87 148.094,40 " />
<polyline fill="none" vector-effect="none" points="218.166,40 218.166,389.336 230.093,389.336 230.093,40 " />
<polyline fill="none" vector-effect="none" points="300.165,40 300.165,369.962 312.092,369.962 312.092,40 " />
<polyline fill="none" vector-effect="none" points="382.164,40 382.164,344.948 394.091,344.948 394.091,40 " />
<polyline fill="none" vector-effect="none" points="464.163,40 464.163,306.183 476.09,306.183 476.09,40 " />
<polyline fill="none" vector-effect="none" points="546.162,40 546.162,236.174 558.089,236.174 558.089,40 " />
<polyline fill="none" vector-effect="none" points="628.161,40 628.161,139.604 640.088,139.604 640.088,40 " />
</g>

<g fill="#dd5400" fill-opacity="1" stroke="none" transform="matrix(4.28571e-05,0,0,4.28571e-05,0,0)"
font-family="MS Shell Dlg 2" font-size="8.14286" font-weight="400" font-style="normal" 
>
<path vector-effect="none" fill-rule="evenodd" d="M1.51076e+06,400000 L1.51076e+06,4.05313e+06 L1.63003e+06,4.05313e+06 L1.63003e+06,400000 L1.60948e+06,400000 L1.51076e+06,400000"/>
</g>

<g fill="#dd5400" fill-opacity="1" stroke="none" transform="matrix(4.28571e-05,0,0,4.28571e-05,0,0)"
font-family="MS Shell Dlg 2" font-size="8.14286" font-weight="400" font-style="normal" 
>
<path vector-effect="none" fill-rule="evenodd" d="M2.33075e+06,400000 L2.33075e+06,4.04481e+06 L2.45002e+06,4.04481e+06 L2.45002e+06,400000 L2.42943e+06,400000 L2.33075e+06,400000"/>
</g>

<g fill="#dd5400" fill-opacity="1" stroke="none" transform="matrix(4.28571e-05,0,0,4.28571e-05,0,0)"
font-family="MS Shell Dlg 2" font-size="8.14286" font-weight="400" font-style="normal" 
>
<path vector-effect="none" fill-rule="evenodd" d="M3.15074e+06,400000 L3.15074e+06,3.69909e+06 L3.27001e+06,3.69909e+06 L3.27001e+06,400000 L3.24767e+06,400000 L3.15074e+06,400000"/>
</g>

<g fill="#dd5400" fill-opacity="1" stroke="none" transform="matrix(4.28571e-05,0,0,4.28571e-05,0,0)"
font-family="MS Shell Dlg 2" font-size="8.14286" font-weight="400" font-style="normal" 
>
<path vector-effect="none" fill-rule="evenodd" d="M3.97073e+06,400000 L3.97073e+06,3.68715e+06 L4.09e+06,3.68715e+06 L4.09e+06,400000 L4.06759e+06,400000 L3.97073e+06,400000"/>
</g>

<g fill="#dd5400" fill-opacity="1" stroke="none" transform="matrix(4.28571e-05,0,0,4.28571e-05,0,0)"
font-family="MS Shell Dlg 2" font-size="8.14286" font-weight="400" font-style="normal" 
>
<path vector-effect="none" fill-rule="evenodd" d="M4.79072e+06,400000 L4.79072e+06,3.09648e+06 L4.90999e+06,3.09648e+06 L4.90999e+06,400000 L4.88375e+06,400000 L4.79072e+06,400000"/>
</g>

<g fill="#dd5400" fill-opacity="1" stroke="none" transform="matrix(4.28571e-05,0,0,4.28571e-05,0,0)"
font-family="MS Shell Dlg 2" font-size="8.14286" font-weight="400" font-style="normal" 
>
<path vector-effect="none" fill-rule="evenodd" d="M5.61071e+06,400000 L5.61071e+06,2.35613e+06 L5.72998e+06,2.35613e+06 L5.72998e+06,400000 L5.69659e+06,400000 L5.61071e+06,400000"/>
</g>

<g fill="#dd5400" fill-opacity="1" stroke="none" transform="matrix(4.28571e-05,0,0,4.28571e-05,0,0)"
font-family="MS Shell Dlg 2" font-size="8.14286" font-weight="400" font-style="normal" 
>
<path vector-effect="none" fill-rule="evenodd" d="M6.43069e+06,400000 L6.43069e+06,1.42223e+06 L6.54997e+06,1.42223e+06 L6.54997e+06,400000 L6.49908e+06,400000 L6.43069e+06,400000"/>
</g>

<g fill="none" stroke="#212121" stroke-opacity="1" stroke-width="1.16667" stroke-linecap="butt" stroke-linejoin="miter" stroke-miterlimit="2" transform="matrix(0.428571,0,0,0.428571,0,0)"
font-family="MS Shell Dlg 2" font-size="8.14286" font-weight="400" font-style="normal" 
>
<polyline fill="none" vector-effect="none" points="151.076,40 151.076,405.313 163.003,405.313 163.003,40 " />
<polyline fill="none" vector-effect="none" points="233.075,40 233.075,404.481 245.002,404.481 245.002,40 " />
<polyline fill="none" vector-effect="none" points="315.074,40 315.074,369.909 327.001,369.909 327.001,40 " />
<polyline fill="none" vector-effect="none" points="397.073,40 397.073,368.715 409,368.715 409,40 " />
<polyline fill="none" vector-effect="none" points="479.072,40 479.072,309.648 490.999,309.648 490.999,40 " />
<polyline fill="none" vector-effect="none" points="561.071,40 561.071,235.613 572.998,235.613 572.998,40 " />
<polyline fill="none" vector-effect="none" points="643.069,40 643.069,142.223 654.997,142.223 654.997,40 " />
</g>

<g fill="#edb120" fill-opacity="1" stroke="none" transform="matrix(4.28571e-05,0,0,4.28571e-05,0,0)"
font-family="MS Shell Dlg 2" font-size="8.14286" font-weight="400" font-style="normal" 
>
<path vector-effect="none" fill-rule="evenodd" d="M1.65985e+06,400000 L1.65985e+06,4.1698e+06 L1.77912e+06,4.1698e+06 L1.77912e+06,400000 L1.7591e+06,400000 L1.65985e+06,400000"/>
</g>

<g fill="#edb120" fill-opacity="1" stroke="none" transform="matrix(4.28571e-05,0,0,4.28571e-05,0,0)"
font-family="MS Shell Dlg 2" font-size="8.14286" font-weight="400" font-style="normal" 
>
<path vector-effect="none" fill-rule="evenodd" d="M2.47984e+06,400000 L2.47984e+06,4.08345e+06 L2.59911e+06,4.08345e+06 L2.59911e+06,400000 L2.5787e+06,400000 L2.47984e+06,400000"/>
</g>

<g fill="#edb120" fill-opacity="1" stroke="none" transform="matrix(4.28571e-05,0,0,4.28571e-05,0,0)"
font-family="MS Shell Dlg 2" font-size="8.14286" font-weight="400" font-style="normal" 
>
<path vector-effect="none" fill-rule="evenodd" d="M3.29983e+06,400000 L3.29983e+06,3.90579e+06 L3.4191e+06,3.90579e+06 L3.4191e+06,400000 L3.39784e+06,400000 L3.29983e+06,400000"/>
</g>

<g fill="#edb120" fill-opacity="1" stroke="none" transform="matrix(4.28571e-05,0,0,4.28571e-05,0,0)"
font-family="MS Shell Dlg 2" font-size="8.14286" font-weight="400" font-style="normal" 
>
<path vector-effect="none" fill-rule="evenodd" d="M4.11982e+06,400000 L4.11982e+06,3.6101e+06 L4.23909e+06,3.6101e+06 L4.23909e+06,400000 L4.21624e+06,400000 L4.11982e+06,400000"/>
</g>

<g fill="#edb120" fill-opacity="1" stroke="none" transform="matrix(4.28571e-05,0,0,4.28571e-05,0,0)"
font-family="MS Shell Dlg 2" font-size="8.14286" font-weight="400" font-style="normal" 
>
<path vector-effect="none" fill-rule="evenodd" d="M4.93981e+06,400000 L4.93981e+06,3.23893e+06 L5.05908e+06,3.23893e+06 L5.05908e+06,400000 L5.03388e+06,400000 L4.93981e+06,400000"/>
</g>

<g fill="#edb120" fill-opacity="1" stroke="none" transform="matrix(4.28571e-05,0,0,4.28571e-05,0,0)"
font-family="MS Shell Dlg 2" font-size="8.14286" font-weight="400" font-style="normal" 
>
<path vector-effect="none" fill-rule="evenodd" d="M5.75979e+06,400000 L5.75979e+06,2.66666e+06 L5.87907e+06,2.66666e+06 L5.87907e+06,400000 L5.8491e+06,400000 L5.75979e+06,400000"/>
</g>

<g fill="#edb120" fill-opacity="1" stroke="none" transform="matrix(4.28571e-05,0,0,4.28571e-05,0,0)"
font-family="MS Shell Dlg 2" font-size="8.14286" font-weight="400" font-style="normal" 
>
<path vector-effect="none" fill-rule="evenodd" d="M6.57978e+06,400000 L6.57978e+06,1.82855e+06 L6.69905e+06,1.82855e+06 L6.69905e+06,400000 L6.65762e+06,400000 L6.57978e+06,400000"/>
</g>

<g fill="none" stroke="#212121" stroke-opacity="1" stroke-width="1.16667" stroke-linecap="butt" stroke-linejoin="miter" stroke-miterlimit="2" transform="matrix(0.428571,0,0,0.428571,0,0)"
font-family="MS Shell Dlg 2" font-size="8.14286" font-weight="400" font-style="normal" 
>
<polyline fill="none" vector-effect="none" points="165.985,40 165.985,416.98 177.912,416.98 177.912,40 " />
<polyline fill="none" vector-effect="none" points="247.984,40 247.984,408.345 259.911,408.345 259.911,40 " />
<polyline fill="none" vector-effect="none" points="329.983,40 329.983,390.579 341.91,390.579 341.91,40 " />
<polyline fill="none" vector-effect="none" points="411.982,40 411.982,361.01 423.909,361.01 423.909,40 " />
<polyline fill="none" vector-effect="none" points="493.981,40 493.981,323.893 505.908,323.893 505.908,40 " />
<polyline fill="none" vector-effect="none" points="575.979,40 575.979,266.665 587.907,266.665 587.907,40 " />
<polyline fill="none" vector-effect="none" points="657.978,40 657.978,182.855 669.905,182.855 669.905,40 " />
</g>

<g fill="#8516d1" fill-opacity="1" stroke="none" transform="matrix(4.28571e-05,0,0,4.28571e-05,0,0)"
font-family="MS Shell Dlg 2" font-size="8.14286" font-weight="400" font-style="normal" 
>
<path vector-effect="none" fill-rule="evenodd" d="M1.80894e+06,400000 L1.80894e+06,4.04916e+06 L1.92821e+06,4.04916e+06 L1.92821e+06,400000 L1.90764e+06,400000 L1.80894e+06,400000"/>
</g>

<g fill="#8516d1" fill-opacity="1" stroke="none" transform="matrix(4.28571e-05,0,0,4.28571e-05,0,0)"
font-family="MS Shell Dlg 2" font-size="8.14286" font-weight="400" font-style="normal" 
>
<path vector-effect="none" fill-rule="evenodd" d="M2.62893e+06,400000 L2.62893e+06,3.99197e+06 L2.7482e+06,3.99197e+06 L2.7482e+06,400000 L2.72736e+06,400000 L2.62893e+06,400000"/>
</g>

<g fill="#8516d1" fill-opacity="1" stroke="none" transform="matrix(4.28571e-05,0,0,4.28571e-05,0,0)"
font-family="MS Shell Dlg 2" font-size="8.14286" font-weight="400" font-style="normal" 
>
<path vector-effect="none" fill-rule="evenodd" d="M3.44892e+06,400000 L3.44892e+06,3.86639e+06 L3.56819e+06,3.86639e+06 L3.56819e+06,400000 L3.54673e+06,400000 L3.44892e+06,400000"/>
</g>

<g fill="#8516d1" fill-opacity="1" stroke="none" transform="matrix(4.28571e-05,0,0,4.28571e-05,0,0)"
font-family="MS Shell Dlg 2" font-size="8.14286" font-weight="400" font-style="normal" 
>
<path vector-effect="none" fill-rule="evenodd" d="M4.26891e+06,400000 L4.26891e+06,3.67744e+06 L4.38818e+06,3.67744e+06 L4.38818e+06,400000 L4.36571e+06,400000 L4.26891e+06,400000"/>
</g>

<g fill="#8516d1" fill-opacity="1" stroke="none" transform="matrix(4.28571e-05,0,0,4.28571e-05,0,0)"
font-family="MS Shell Dlg 2" font-size="8.14286" font-weight="400" font-style="normal" 
>
<path vector-effect="none" fill-rule="evenodd" d="M5.08889e+06,400000 L5.08889e+06,3.35661e+06 L5.20817e+06,3.35661e+06 L5.20817e+06,400000 L5.18376e+06,400000 L5.08889e+06,400000"/>
</g>

<g fill="#8516d1" fill-opacity="1" stroke="none" transform="matrix(4.28571e-05,0,0,4.28571e-05,0,0)"
font-family="MS Shell Dlg 2" font-size="8.14286" font-weight="400" font-style="normal" 
>
<path vector-effect="none" fill-rule="evenodd" d="M5.90888e+06,400000 L5.90888e+06,2.72684e+06 L6.02815e+06,2.72684e+06 L6.02815e+06,400000 L5.99877e+06,400000 L5.90888e+06,400000"/>
</g>

<g fill="#8516d1" fill-opacity="1" stroke="none" transform="matrix(4.28571e-05,0,0,4.28571e-05,0,0)"
font-family="MS Shell Dlg 2" font-size="8.14286" font-weight="400" font-style="normal" 
>
<path vector-effect="none" fill-rule="evenodd" d="M6.72887e+06,400000 L6.72887e+06,1.73972e+06 L6.84814e+06,1.73972e+06 L6.84814e+06,400000 L6.80495e+06,400000 L6.72887e+06,400000"/>
</g>

<g fill="none" stroke="#212121" stroke-opacity="1" stroke-width="1.16667" stroke-linecap="butt" stroke-linejoin="miter" stroke-miterlimit="2" transform="matrix(0.428571,0,0,0.428571,0,0)"
font-family="MS Shell Dlg 2" font-size="8.14286" font-weight="400" font-style="normal" 
>
<polyline fill="none" vector-effect="none" points="180.894,40 180.894,404.916 192.821,404.916 192.821,40 " />
<polyline fill="none" vector-effect="none" points="262.893,40 262.893,399.197 274.82,399.197 274.82,40 " />
<polyline fill="none" vector-effect="none" points="344.892,40 344.892,386.639 356.819,386.639 356.819,40 " />
<polyline fill="none" vector-effect="none" points="426.891,40 426.891,367.744 438.818,367.744 438.818,40 " />
<polyline fill="none" vector-effect="none" points="508.889,40 508.889,335.661 520.817,335.661 520.817,40 " />
<polyline fill="none" vector-effect="none" points="590.888,40 590.888,272.684 602.815,272.684 602.815,40 " />
<polyline fill="none" vector-effect="none" points="672.887,40 672.887,173.972 684.814,173.972 684.814,40 " />
</g>

<g fill="#212121" fill-opacity="1" stroke="none" transform="matrix(0.428571,0,0,0.428571,127.381,225.352)"
font-family="MS Shell Dlg 2" font-size="8.14286" font-weight="400" font-style="normal" 
>
<path vector-effect="none" fill-rule="evenodd" d="M5.53125,0 L2.29688,-9.09375 C2.15104,-9.45833 1.9401,-9.6849 1.66406,-9.77344 C1.38802,-9.86198 0.984375,-9.90625 0.453125,-9.90625 L0.453125,-10.7813 L5.60938,-10.7813 L5.60938,-9.90625 C4.61979,-9.90625 4.125,-9.69792 4.125,-9.28125 C4.13542,-9.25 4.14323,-9.22396 4.14844,-9.20313 C4.15365,-9.18229 4.15625,-9.14583 4.15625,-9.09375 L6.5625,-2.35938 L8.625,-8.23438 L8.29688,-9.09375 C8.17188,-9.45833 7.96615,-9.6849 7.67969,-9.77344 C7.39323,-9.86198 6.98958,-9.90625 6.46875,-9.90625 L6.46875,-10.7813 L11.4063,-10.7813 L11.4063,-9.90625 C10.4167,-9.90625 9.92188,-9.69792 9.92188,-9.28125 C9.92188,-9.21875 9.93229,-9.15625 9.95313,-9.09375 L12.4531,-2.04688 L14.7188,-8.42188 C14.75,-8.55729 14.7656,-8.67708 14.7656,-8.78125 C14.7656,-9.125 14.6172,-9.39844 14.3203,-9.60156 C14.0234,-9.80469 13.6927,-9.90625 13.3281,-9.90625 L13.3281,-10.7813 L17.5781,-10.7813 L17.5781,-9.90625 C17.0781,-9.90625 16.6458,-9.77344 16.2813,-9.50781 C15.9167,-9.24219 15.651,-8.88021 15.4844,-8.42188 L12.5,0 C12.4479,0.1875 12.3229,0.28125 12.125,0.28125 L11.9219,0.28125 C11.7344,0.28125 11.6094,0.1875 11.5469,0 L9.01563,-7.125 L6.5,0 C6.41667,0.1875 6.28646,0.28125 6.10938,0.28125 L5.92188,0.28125 C5.71354,0.28125 5.58333,0.1875 5.53125,0 "/>
</g>

<g fill="#212121" fill-opacity="1" stroke="none" transform="matrix(0.428571,0,0,0.428571,135.02,225.352)"
font-family="MS Shell Dlg 2" font-size="8.14286" font-weight="400" font-style="normal" 
>
<path vector-effect="none" fill-rule="evenodd" d="M6.25,0.28125 C5.25,0.28125 4.32292,0.0260417 3.46875,-0.484375 C2.61458,-0.994792 1.9401,-1.67708 1.44531,-2.53125 C0.950521,-3.38542 0.703125,-4.31771 0.703125,-5.32813 C0.703125,-6.08854 0.838542,-6.82292 1.10938,-7.53125 C1.38021,-8.23958 1.77083,-8.8724 2.28125,-9.42969 C2.79167,-9.98698 3.38281,-10.4219 4.05469,-10.7344 C4.72656,-11.0469 5.45833,-11.2031 6.25,-11.2031 C7.27083,-11.2031 8.20313,-10.9323 9.04688,-10.3906 C9.89063,-9.84896 10.5573,-9.125 11.0469,-8.21875 C11.5365,-7.3125 11.7813,-6.34896 11.7813,-5.32813 C11.7813,-4.32813 11.5339,-3.39844 11.0391,-2.53906 C10.5443,-1.67969 9.86979,-0.994792 9.01563,-0.484375 C8.16146,0.0260417 7.23958,0.28125 6.25,0.28125 M6.25,-0.46875 C7.58333,-0.46875 8.47396,-0.950521 8.92188,-1.91406 C9.36979,-2.8776 9.59375,-4.10938 9.59375,-5.60938 C9.59375,-6.44271 9.54948,-7.13281 9.46094,-7.67969 C9.3724,-8.22656 9.17708,-8.72396 8.875,-9.17188 C8.6875,-9.44271 8.45052,-9.68229 8.16406,-9.89063 C7.8776,-10.099 7.57292,-10.2578 7.25,-10.3672 C6.92708,-10.4766 6.59375,-10.5313 6.25,-10.5313 C5.72917,-10.5313 5.23438,-10.4141 4.76563,-10.1797 C4.29688,-9.94531 3.90625,-9.60938 3.59375,-9.17188 C3.29167,-8.70313 3.09635,-8.1849 3.00781,-7.61719 C2.91927,-7.04948 2.875,-6.38021 2.875,-5.60938 C2.875,-4.67188 2.95833,-3.83073 3.125,-3.08594 C3.29167,-2.34115 3.61979,-1.71875 4.10938,-1.21875 C4.59896,-0.71875 5.3125,-0.46875 6.25,-0.46875 "/>
</g>

<g fill="#212121" fill-opacity="1" stroke="none" transform="matrix(0.428571,0,0,0.428571,140.52,225.352)"
font-family="MS Shell Dlg 2" font-size="8.14286" font-weight="400" font-style="normal" 
>
<path vector-effect="none" fill-rule="evenodd" d="M0.640625,0 L0.640625,-0.875 C1.21354,-0.875 1.68229,-0.919271 2.04688,-1.00781 C2.41146,-1.09635 2.59375,-1.31771 2.59375,-1.67188 L2.59375,-8.5 C2.59375,-8.94792 2.52865,-9.27083 2.39844,-9.46875 C2.26823,-9.66667 2.07552,-9.78906 1.82031,-9.83594 C1.5651,-9.88281 1.17188,-9.90625 0.640625,-9.90625 L0.640625,-10.7813 L4.21875,-11.0469 L4.21875,-8.60938 C4.48958,-9.32813 4.8724,-9.91406 5.36719,-10.3672 C5.86198,-10.8203 6.46354,-11.0469 7.17188,-11.0469 C7.67188,-11.0469 8.11719,-10.901 8.50781,-10.6094 C8.89844,-10.3177 9.09375,-9.93229 9.09375,-9.45313 C9.09375,-9.15104 8.98698,-8.88802 8.77344,-8.66406 C8.5599,-8.4401 8.29167,-8.32813 7.96875,-8.32813 C7.65625,-8.32813 7.39063,-8.4375 7.17188,-8.65625 C6.95313,-8.875 6.84375,-9.14063 6.84375,-9.45313 C6.84375,-9.90104 7.00521,-10.2188 7.32813,-10.4063 L7.17188,-10.4063 C6.50521,-10.4063 5.95833,-10.1615 5.53125,-9.67188 C5.10417,-9.18229 4.79948,-8.57552 4.61719,-7.85156 C4.4349,-7.1276 4.34375,-6.4375 4.34375,-5.78125 L4.34375,-1.67188 C4.34375,-1.14063 5.15625,-0.875 6.78125,-0.875 L6.78125,0 L0.640625,0"/>
</g>

<g fill="#212121" fill-opacity="1" stroke="none" transform="matrix(0.428571,0,0,0.428571,144.828,225.352)"
font-family="MS Shell Dlg 2" font-size="8.14286" font-weight="400" font-style="normal" 
>
<path vector-effect="none" fill-rule="evenodd" d="M6.10938,0.28125 C5.11979,0.28125 4.21875,0.015625 3.40625,-0.515625 C2.59375,-1.04688 1.96094,-1.75 1.50781,-2.625 C1.05469,-3.5 0.828125,-4.42188 0.828125,-5.39063 C0.828125,-6.40104 1.07552,-7.34115 1.57031,-8.21094 C2.0651,-9.08073 2.73438,-9.77083 3.57813,-10.2813 C4.42188,-10.7917 5.35417,-11.0469 6.375,-11.0469 C6.97917,-11.0469 7.55469,-10.9193 8.10156,-10.6641 C8.64844,-10.4089 9.11979,-10.0521 9.51563,-9.59375 L9.51563,-14.7969 C9.51563,-15.2448 9.45052,-15.5677 9.32031,-15.7656 C9.1901,-15.9635 9,-16.0859 8.75,-16.1328 C8.5,-16.1797 8.10938,-16.2031 7.57813,-16.2031 L7.57813,-17.0781 L11.2813,-17.3438 L11.2813,-2.28125 C11.2813,-1.84375 11.349,-1.52604 11.4844,-1.32813 C11.6198,-1.13021 11.8099,-1.00781 12.0547,-0.960938 C12.2995,-0.914063 12.6875,-0.890625 13.2188,-0.890625 L13.2188,0 L9.45313,0.28125 L9.45313,-1.3125 C9.01563,-0.8125 8.5,-0.421875 7.90625,-0.140625 C7.3125,0.140625 6.71354,0.28125 6.10938,0.28125 M3.54688,-2.1875 C3.83854,-1.63542 4.22135,-1.19792 4.69531,-0.875 C5.16927,-0.552083 5.6875,-0.390625 6.25,-0.390625 C6.9375,-0.390625 7.57031,-0.588542 8.14844,-0.984375 C8.72656,-1.38021 9.16146,-1.89583 9.45313,-2.53125 L9.45313,-8.51563 C9.25521,-8.89063 9.00781,-9.22135 8.71094,-9.50781 C8.41406,-9.79427 8.08073,-10.0156 7.71094,-10.1719 C7.34115,-10.3281 6.94792,-10.4063 6.53125,-10.4063 C5.65625,-10.4063 4.95573,-10.1589 4.42969,-9.66406 C3.90365,-9.16927 3.53385,-8.54167 3.32031,-7.78125 C3.10677,-7.02083 3,-6.21875 3,-5.375 C3,-4.70833 3.03385,-4.1276 3.10156,-3.63281 C3.16927,-3.13802 3.31771,-2.65625 3.54688,-2.1875 "/>
</g>

<g fill="#212121" fill-opacity="1" stroke="none" transform="matrix(0.428571,0,0,0.428571,154.606,225.352)"
font-family="MS Shell Dlg 2" font-size="8.14286" font-weight="400" font-style="normal" 
>
<path vector-effect="none" fill-rule="evenodd" d="M0.765625,0 L0.765625,-0.875 C1.33854,-0.875 1.80729,-0.919271 2.17188,-1.00781 C2.53646,-1.09635 2.71875,-1.31771 2.71875,-1.67188 L2.71875,-14.7969 C2.71875,-15.2448 2.65104,-15.5677 2.51563,-15.7656 C2.38021,-15.9635 2.1875,-16.0859 1.9375,-16.1328 C1.6875,-16.1797 1.29688,-16.2031 0.765625,-16.2031 L0.765625,-17.0781 L4.48438,-17.3438 L4.48438,-1.67188 C4.48438,-1.31771 4.66667,-1.09635 5.03125,-1.00781 C5.39583,-0.919271 5.85938,-0.875 6.42188,-0.875 L6.42188,0 L0.765625,0"/>
</g>

<g fill="#212121" fill-opacity="1" stroke="none" transform="matrix(0.428571,0,0,0.428571,157.661,225.352)"
font-family="MS Shell Dlg 2" font-size="8.14286" font-weight="400" font-style="normal" 
>
<path vector-effect="none" fill-rule="evenodd" d="M6.21875,0.28125 C5.20833,0.28125 4.27865,0.015625 3.42969,-0.515625 C2.58073,-1.04688 1.91406,-1.75781 1.42969,-2.64844 C0.945313,-3.53906 0.703125,-4.48438 0.703125,-5.48438 C0.703125,-6.46354 0.924479,-7.39063 1.36719,-8.26563 C1.8099,-9.14063 2.42708,-9.84896 3.21875,-10.3906 C4.01042,-10.9323 4.89583,-11.2031 5.875,-11.2031 C6.63542,-11.2031 7.29948,-11.0755 7.86719,-10.8203 C8.4349,-10.5651 8.90104,-10.2083 9.26563,-9.75 C9.63021,-9.29167 9.90625,-8.75521 10.0938,-8.14063 C10.2813,-7.52604 10.375,-6.84896 10.375,-6.10938 C10.375,-5.89063 10.2917,-5.78125 10.125,-5.78125 L2.875,-5.78125 L2.875,-5.5 C2.875,-4.125 3.15365,-2.94271 3.71094,-1.95313 C4.26823,-0.963542 5.18229,-0.46875 6.45313,-0.46875 C6.96354,-0.46875 7.4349,-0.580729 7.86719,-0.804688 C8.29948,-1.02865 8.67708,-1.34375 9,-1.75 C9.32292,-2.15625 9.54167,-2.59375 9.65625,-3.0625 C9.67708,-3.11458 9.70833,-3.16406 9.75,-3.21094 C9.79167,-3.25781 9.84375,-3.28125 9.90625,-3.28125 L10.125,-3.28125 C10.2917,-3.28125 10.375,-3.17188 10.375,-2.95313 C10.1354,-2.01563 9.625,-1.24219 8.84375,-0.632813 C8.0625,-0.0234375 7.1875,0.28125 6.21875,0.28125 M2.90625,-6.39063 L8.60938,-6.39063 C8.60938,-7.01563 8.52083,-7.64844 8.34375,-8.28906 C8.16667,-8.92969 7.875,-9.46354 7.46875,-9.89063 C7.0625,-10.3177 6.53125,-10.5313 5.875,-10.5313 C4.92708,-10.5313 4.19531,-10.0911 3.67969,-9.21094 C3.16406,-8.33073 2.90625,-7.39063 2.90625,-6.39063 "/>
</g>

<g fill="#212121" fill-opacity="1" stroke="none" transform="matrix(0.428571,0,0,0.428571,162.55,225.352)"
font-family="MS Shell Dlg 2" font-size="8.14286" font-weight="400" font-style="normal" 
>
<path vector-effect="none" fill-rule="evenodd" d="M0.75,0 L0.75,-0.875 C1.3125,-0.875 1.77865,-0.919271 2.14844,-1.00781 C2.51823,-1.09635 2.70313,-1.31771 2.70313,-1.67188 L2.70313,-8.5 C2.70313,-8.94792 2.63542,-9.27083 2.5,-9.46875 C2.36458,-9.66667 2.16927,-9.78906 1.91406,-9.83594 C1.65885,-9.88281 1.27083,-9.90625 0.75,-9.90625 L0.75,-10.7813 L4.375,-11.0469 L4.375,-8.60938 C4.70833,-9.32813 5.20313,-9.91406 5.85938,-10.3672 C6.51563,-10.8203 7.22917,-11.0469 8,-11.0469 C9.15625,-11.0469 10.0234,-10.7708 10.6016,-10.2188 C11.1797,-9.66667 11.4688,-8.81771 11.4688,-7.67188 L11.4688,-1.67188 C11.4688,-1.31771 11.6536,-1.09635 12.0234,-1.00781 C12.3932,-0.919271 12.8594,-0.875 13.4219,-0.875 L13.4219,0 L7.70313,0 L7.70313,-0.875 C8.27604,-0.875 8.74479,-0.919271 9.10938,-1.00781 C9.47396,-1.09635 9.65625,-1.31771 9.65625,-1.67188 L9.65625,-7.60938 C9.65625,-8.42188 9.53906,-9.09115 9.30469,-9.61719 C9.07031,-10.1432 8.58333,-10.4063 7.84375,-10.4063 C6.875,-10.4063 6.08073,-10.0182 5.46094,-9.24219 C4.84115,-8.46615 4.53125,-7.58854 4.53125,-6.60938 L4.53125,-1.67188 C4.53125,-1.31771 4.71354,-1.09635 5.07813,-1.00781 C5.44271,-0.919271 5.90625,-0.875 6.46875,-0.875 L6.46875,0 L0.75,0"/>
</g>

<g fill="#212121" fill-opacity="1" stroke="none" transform="matrix(0.428571,0,0,0.428571,168.661,225.352)"
font-family="MS Shell Dlg 2" font-size="8.14286" font-weight="400" font-style="normal" 
>
<path vector-effect="none" fill-rule="evenodd" d="M0.703125,1.95313 C0.703125,1.35938 0.916667,0.841146 1.34375,0.398438 C1.77083,-0.0442708 2.28125,-0.359375 2.875,-0.546875 C2.54167,-0.796875 2.28906,-1.11458 2.11719,-1.5 C1.94531,-1.88542 1.85938,-2.29167 1.85938,-2.71875 C1.85938,-3.5 2.10417,-4.19271 2.59375,-4.79688 C1.83333,-5.54688 1.45313,-6.40625 1.45313,-7.375 C1.45313,-7.89583 1.5651,-8.38281 1.78906,-8.83594 C2.01302,-9.28906 2.32552,-9.68229 2.72656,-10.0156 C3.1276,-10.349 3.57031,-10.6042 4.05469,-10.7813 C4.53906,-10.9583 5.03646,-11.0469 5.54688,-11.0469 C6.54688,-11.0469 7.44271,-10.7604 8.23438,-10.1875 C8.56771,-10.5521 8.96875,-10.8333 9.4375,-11.0313 C9.90625,-11.2292 10.3958,-11.3281 10.9063,-11.3281 C11.2604,-11.3281 11.5521,-11.2005 11.7813,-10.9453 C12.0104,-10.6901 12.125,-10.3802 12.125,-10.0156 C12.125,-9.81771 12.0469,-9.64063 11.8906,-9.48438 C11.7344,-9.32813 11.5573,-9.25 11.3594,-9.25 C11.1406,-9.25 10.9557,-9.32813 10.8047,-9.48438 C10.6536,-9.64063 10.5781,-9.81771 10.5781,-10.0156 C10.5781,-10.3281 10.6771,-10.5469 10.875,-10.6719 C10.0104,-10.6719 9.27083,-10.375 8.65625,-9.78125 C8.95833,-9.47917 9.20052,-9.10938 9.38281,-8.67188 C9.5651,-8.23438 9.65625,-7.80208 9.65625,-7.375 C9.65625,-6.66667 9.46094,-6.02865 9.07031,-5.46094 C8.67969,-4.89323 8.16406,-4.45313 7.52344,-4.14063 C6.88281,-3.82813 6.22396,-3.67188 5.54688,-3.67188 C4.64063,-3.67188 3.80729,-3.92188 3.04688,-4.42188 C2.81771,-4.09896 2.70313,-3.73438 2.70313,-3.32813 C2.70313,-2.88021 2.84635,-2.49219 3.13281,-2.16406 C3.41927,-1.83594 3.78125,-1.67188 4.21875,-1.67188 L6.28125,-1.67188 C7.27083,-1.67188 8.16406,-1.58333 8.96094,-1.40625 C9.75781,-1.22917 10.4271,-0.872396 10.9688,-0.335938 C11.5104,0.200521 11.7813,0.963542 11.7813,1.95313 C11.7813,2.68229 11.4714,3.28906 10.8516,3.77344 C10.2318,4.25781 9.49219,4.60938 8.63281,4.82813 C7.77344,5.04688 6.97917,5.15625 6.25,5.15625 C5.51042,5.15625 4.70833,5.04688 3.84375,4.82813 C2.97917,4.60938 2.23958,4.25781 1.625,3.77344 C1.01042,3.28906 0.703125,2.68229 0.703125,1.95313 M2.09375,1.95313 C2.09375,2.51563 2.32292,2.98698 2.78125,3.36719 C3.23958,3.7474 3.78906,4.02865 4.42969,4.21094 C5.07031,4.39323 5.67708,4.48438 6.25,4.48438 C6.8125,4.48438 7.41406,4.39323 8.05469,4.21094 C8.69531,4.02865 9.24219,3.7474 9.69531,3.36719 C10.1484,2.98698 10.375,2.51563 10.375,1.95313 C10.375,1.07813 9.97656,0.513021 9.17969,0.257813 C8.38281,0.00260417 7.41667,-0.125 6.28125,-0.125 L4.21875,-0.125 C3.84375,-0.125 3.49479,-0.0338542 3.17188,0.148438 C2.84896,0.330729 2.58854,0.588542 2.39063,0.921875 C2.19271,1.25521 2.09375,1.59896 2.09375,1.95313 M5.54688,-4.34375 C6.96354,-4.34375 7.67188,-5.35417 7.67188,-7.375 C7.67188,-8.23958 7.52344,-8.95573 7.22656,-9.52344 C6.92969,-10.0911 6.36979,-10.375 5.54688,-10.375 C4.73438,-10.375 4.17969,-10.0911 3.88281,-9.52344 C3.58594,-8.95573 3.4375,-8.23958 3.4375,-7.375 C3.4375,-6.82292 3.49219,-6.32292 3.60156,-5.875 C3.71094,-5.42708 3.92188,-5.0599 4.23438,-4.77344 C4.54688,-4.48698 4.98438,-4.34375 5.54688,-4.34375 "/>
</g>

<g fill="#212121" fill-opacity="1" stroke="none" transform="matrix(0.428571,0,0,0.428571,174.161,225.352)"
font-family="MS Shell Dlg 2" font-size="8.14286" font-weight="400" font-style="normal" 
>
<path vector-effect="none" fill-rule="evenodd" d="M2.54688,-3 L2.54688,-9.90625 L0.46875,-9.90625 L0.46875,-10.5469 C1.5625,-10.5469 2.36719,-11.0547 2.88281,-12.0703 C3.39844,-13.0859 3.65625,-14.1875 3.65625,-15.375 L4.375,-15.375 L4.375,-10.7813 L7.89063,-10.7813 L7.89063,-9.90625 L4.375,-9.90625 L4.375,-3.0625 C4.375,-2.375 4.48958,-1.77083 4.71875,-1.25 C4.94792,-0.729167 5.36458,-0.46875 5.96875,-0.46875 C6.54167,-0.46875 6.95313,-0.742188 7.20313,-1.28906 C7.45313,-1.83594 7.57813,-2.42708 7.57813,-3.0625 L7.57813,-4.53125 L8.29688,-4.53125 L8.29688,-3 C8.29688,-2.47917 8.20313,-1.96615 8.01563,-1.46094 C7.82813,-0.955729 7.54688,-0.539063 7.17188,-0.210938 C6.79688,0.117188 6.33854,0.28125 5.79688,0.28125 C4.79688,0.28125 4.00521,-0.0182292 3.42188,-0.617188 C2.83854,-1.21615 2.54688,-2.01042 2.54688,-3 "/>
</g>

<g fill="#212121" fill-opacity="1" stroke="none" transform="matrix(0.428571,0,0,0.428571,178.439,225.352)"
font-family="MS Shell Dlg 2" font-size="8.14286" font-weight="400" font-style="normal" 
>
<path vector-effect="none" fill-rule="evenodd" d="M0.75,0 L0.75,-0.875 C1.3125,-0.875 1.77865,-0.919271 2.14844,-1.00781 C2.51823,-1.09635 2.70313,-1.31771 2.70313,-1.67188 L2.70313,-14.7969 C2.70313,-15.2448 2.63542,-15.5677 2.5,-15.7656 C2.36458,-15.9635 2.16927,-16.0859 1.91406,-16.1328 C1.65885,-16.1797 1.27083,-16.2031 0.75,-16.2031 L0.75,-17.0781 L4.45313,-17.3438 L4.45313,-8.75 C4.80729,-9.44792 5.29688,-10.0052 5.92188,-10.4219 C6.54688,-10.8385 7.23958,-11.0469 8,-11.0469 C9.15625,-11.0469 10.0234,-10.7708 10.6016,-10.2188 C11.1797,-9.66667 11.4688,-8.81771 11.4688,-7.67188 L11.4688,-1.67188 C11.4688,-1.31771 11.6536,-1.09635 12.0234,-1.00781 C12.3932,-0.919271 12.8594,-0.875 13.4219,-0.875 L13.4219,0 L7.70313,0 L7.70313,-0.875 C8.27604,-0.875 8.74479,-0.919271 9.10938,-1.00781 C9.47396,-1.09635 9.65625,-1.31771 9.65625,-1.67188 L9.65625,-7.60938 C9.65625,-8.42188 9.53906,-9.09115 9.30469,-9.61719 C9.07031,-10.1432 8.58333,-10.4063 7.84375,-10.4063 C6.875,-10.4063 6.08073,-10.0182 5.46094,-9.24219 C4.84115,-8.46615 4.53125,-7.58854 4.53125,-6.60938 L4.53125,-1.67188 C4.53125,-1.31771 4.71354,-1.09635 5.07813,-1.00781 C5.44271,-0.919271 5.90625,-0.875 6.46875,-0.875 L6.46875,0 L0.75,0"/>
</g>

<g fill="#212121" fill-opacity="1" stroke="none" transform="matrix(0.428571,0,0,0.428571,188.217,225.352)"
font-family="MS Shell Dlg 2" font-size="8.14286" font-weight="400" font-style="normal" 
>
<path vector-effect="none" fill-rule="evenodd" d="M7.75,6.20313 C6.82292,5.47396 6.02344,4.63542 5.35156,3.6875 C4.67969,2.73958 4.13021,1.72656 3.70313,0.648438 C3.27604,-0.429688 2.95573,-1.55469 2.74219,-2.72656 C2.52865,-3.89844 2.42188,-5.07292 2.42188,-6.25 C2.42188,-7.44792 2.52865,-8.63281 2.74219,-9.80469 C2.95573,-10.9766 3.28125,-12.1042 3.71875,-13.1875 C4.15625,-14.2708 4.71094,-15.2839 5.38281,-16.2266 C6.05469,-17.1693 6.84375,-17.9948 7.75,-18.7031 C7.75,-18.7344 7.79167,-18.75 7.875,-18.75 L8.10938,-18.75 C8.15104,-18.75 8.19271,-18.7266 8.23438,-18.6797 C8.27604,-18.6328 8.29688,-18.5833 8.29688,-18.5313 C8.29688,-18.4583 8.28125,-18.4063 8.25,-18.375 C7.4375,-17.5729 6.76042,-16.7161 6.21875,-15.8047 C5.67708,-14.8932 5.24219,-13.9245 4.91406,-12.8984 C4.58594,-11.8724 4.34896,-10.8073 4.20313,-9.70313 C4.05729,-8.59896 3.98438,-7.44792 3.98438,-6.25 C3.98438,-0.947917 5.40104,3.07813 8.23438,5.82813 C8.27604,5.86979 8.29688,5.9375 8.29688,6.03125 C8.29688,6.07292 8.27604,6.11979 8.23438,6.17188 C8.19271,6.22396 8.15104,6.25 8.10938,6.25 L7.875,6.25 C7.79167,6.25 7.75,6.23438 7.75,6.20313 "/>
</g>

<g fill="#212121" fill-opacity="1" stroke="none" transform="matrix(0.428571,0,0,0.428571,192.495,225.352)"
font-family="MS Shell Dlg 2" font-size="8.14286" font-weight="400" font-style="normal" 
>
<path vector-effect="none" fill-rule="evenodd" d="M2.59375,0 L2.59375,-14.7969 C2.59375,-15.2448 2.52865,-15.5677 2.39844,-15.7656 C2.26823,-15.9635 2.07552,-16.0859 1.82031,-16.1328 C1.5651,-16.1797 1.17188,-16.2031 0.640625,-16.2031 L0.640625,-17.0781 L4.34375,-17.3438 L4.34375,-9.51563 C4.625,-9.82813 4.95052,-10.1016 5.32031,-10.3359 C5.6901,-10.5703 6.08594,-10.7474 6.50781,-10.8672 C6.92969,-10.987 7.35938,-11.0469 7.79688,-11.0469 C8.54688,-11.0469 9.24219,-10.8958 9.88281,-10.5938 C10.5234,-10.2917 11.0781,-9.8776 11.5469,-9.35156 C12.0156,-8.82552 12.3828,-8.21875 12.6484,-7.53125 C12.9141,-6.84375 13.0469,-6.13021 13.0469,-5.39063 C13.0469,-4.38021 12.8021,-3.4401 12.3125,-2.57031 C11.8229,-1.70052 11.151,-1.00781 10.2969,-0.492188 C9.44271,0.0234375 8.51042,0.28125 7.5,0.28125 C6.86458,0.28125 6.25,0.117188 5.65625,-0.210938 C5.0625,-0.539063 4.56771,-0.973958 4.17188,-1.51563 L3.32813,0 L2.59375,0 M4.42188,-2.46875 C4.69271,-1.85417 5.08854,-1.35417 5.60938,-0.96875 C6.13021,-0.583333 6.70833,-0.390625 7.34375,-0.390625 C8.20833,-0.390625 8.90625,-0.638021 9.4375,-1.13281 C9.96875,-1.6276 10.3411,-2.2526 10.5547,-3.00781 C10.7682,-3.76302 10.875,-4.5625 10.875,-5.40625 C10.875,-6.8125 10.6927,-7.88021 10.3281,-8.60938 C10.1615,-8.93229 9.9375,-9.23177 9.65625,-9.50781 C9.375,-9.78385 9.0625,-10.0026 8.71875,-10.1641 C8.375,-10.3255 8.01042,-10.4063 7.625,-10.4063 C6.95833,-10.4063 6.34115,-10.2292 5.77344,-9.875 C5.20573,-9.52083 4.75521,-9.04688 4.42188,-8.45313 L4.42188,-2.46875"/>
</g>

<g fill="#212121" fill-opacity="1" stroke="none" transform="matrix(0.428571,0,0,0.428571,198.606,225.352)"
font-family="MS Shell Dlg 2" font-size="8.14286" font-weight="400" font-style="normal" 
>
<path vector-effect="none" fill-rule="evenodd" d="M0.640625,4.84375 L0.640625,3.98438 C1.21354,3.98438 1.68229,3.9349 2.04688,3.83594 C2.41146,3.73698 2.59375,3.51563 2.59375,3.17188 L2.59375,-8.875 C2.59375,-9.33333 2.43229,-9.61979 2.10938,-9.73438 C1.78646,-9.84896 1.29688,-9.90625 0.640625,-9.90625 L0.640625,-10.7813 L4.34375,-11.0469 L4.34375,-9.5 C4.80208,-10 5.33333,-10.3828 5.9375,-10.6484 C6.54167,-10.9141 7.1875,-11.0469 7.875,-11.0469 C8.85417,-11.0469 9.73958,-10.7813 10.5313,-10.25 C11.3229,-9.71875 11.9401,-9.01823 12.3828,-8.14844 C12.8255,-7.27865 13.0469,-6.35938 13.0469,-5.39063 C13.0469,-4.38021 12.8021,-3.4401 12.3125,-2.57031 C11.8229,-1.70052 11.151,-1.00781 10.2969,-0.492188 C9.44271,0.0234375 8.51042,0.28125 7.5,0.28125 C6.28125,0.28125 5.25521,-0.213542 4.42188,-1.20313 L4.42188,3.17188 C4.42188,3.51563 4.60677,3.73698 4.97656,3.83594 C5.34635,3.9349 5.8125,3.98438 6.375,3.98438 L6.375,4.84375 L0.640625,4.84375 M4.42188,-2.4375 C4.71354,-1.84375 5.11979,-1.35417 5.64063,-0.96875 C6.16146,-0.583333 6.72917,-0.390625 7.34375,-0.390625 C7.92708,-0.390625 8.4401,-0.544271 8.88281,-0.851563 C9.32552,-1.15885 9.69792,-1.57292 10,-2.09375 C10.3021,-2.61458 10.5234,-3.16146 10.6641,-3.73438 C10.8047,-4.30729 10.875,-4.86458 10.875,-5.40625 C10.875,-6.07292 10.7552,-6.79427 10.5156,-7.57031 C10.276,-8.34635 9.90885,-9 9.41406,-9.53125 C8.91927,-10.0625 8.32292,-10.3281 7.625,-10.3281 C6.94792,-10.3281 6.32813,-10.1563 5.76563,-9.8125 C5.20313,-9.46875 4.75521,-9 4.42188,-8.40625 L4.42188,-2.4375"/>
</g>

<g fill="#212121" fill-opacity="1" stroke="none" transform="matrix(0.428571,0,0,0.428571,204.717,225.352)"
font-family="MS Shell Dlg 2" font-size="8.14286" font-weight="400" font-style="normal" 
>
<path vector-effect="none" fill-rule="evenodd" d="M0.828125,0.078125 L0.828125,-4.01563 C0.828125,-4.15104 0.901042,-4.21875 1.04688,-4.21875 L1.35938,-4.21875 C1.45313,-4.21875 1.51563,-4.15104 1.54688,-4.01563 C2.01563,-1.59896 3.14063,-0.390625 4.92188,-0.390625 C5.71354,-0.390625 6.375,-0.570313 6.90625,-0.929688 C7.4375,-1.28906 7.70313,-1.84375 7.70313,-2.59375 C7.70313,-3.125 7.49479,-3.58073 7.07813,-3.96094 C6.66146,-4.34115 6.17188,-4.59896 5.60938,-4.73438 L3.9375,-5.0625 C3.375,-5.1875 2.86198,-5.375 2.39844,-5.625 C1.9349,-5.875 1.55729,-6.21094 1.26563,-6.63281 C0.973958,-7.05469 0.828125,-7.54167 0.828125,-8.09375 C0.828125,-8.82292 1.02083,-9.41927 1.40625,-9.88281 C1.79167,-10.3464 2.29427,-10.6823 2.91406,-10.8906 C3.53385,-11.099 4.20313,-11.2031 4.92188,-11.2031 C5.77604,-11.2031 6.52083,-10.9792 7.15625,-10.5313 L7.875,-11.1406 C7.875,-11.1823 7.91667,-11.2031 8,-11.2031 L8.17188,-11.2031 C8.22396,-11.2031 8.27083,-11.1823 8.3125,-11.1406 C8.35417,-11.099 8.375,-11.0521 8.375,-11 L8.375,-7.73438 C8.375,-7.57813 8.30729,-7.5 8.17188,-7.5 L7.875,-7.5 C7.72917,-7.5 7.65625,-7.57813 7.65625,-7.73438 C7.65625,-8.60938 7.41406,-9.3099 6.92969,-9.83594 C6.44531,-10.362 5.76563,-10.625 4.89063,-10.625 C4.14063,-10.625 3.49219,-10.487 2.94531,-10.2109 C2.39844,-9.9349 2.125,-9.46354 2.125,-8.79688 C2.125,-8.32813 2.32292,-7.94531 2.71875,-7.64844 C3.11458,-7.35156 3.57813,-7.13542 4.10938,-7 L5.79688,-6.6875 C6.36979,-6.5625 6.90104,-6.34375 7.39063,-6.03125 C7.88021,-5.71875 8.27083,-5.32552 8.5625,-4.85156 C8.85417,-4.3776 9,-3.84375 9,-3.25 C9,-2.64583 8.89583,-2.1224 8.6875,-1.67969 C8.47917,-1.23698 8.1901,-0.869792 7.82031,-0.578125 C7.45052,-0.286458 7.01302,-0.0703125 6.50781,0.0703125 C6.0026,0.210938 5.47396,0.28125 4.92188,0.28125 C3.88021,0.28125 2.98958,-0.0729167 2.25,-0.78125 L1.32813,0.21875 C1.32813,0.260417 1.28646,0.28125 1.20313,0.28125 L1.04688,0.28125 C0.901042,0.28125 0.828125,0.213542 0.828125,0.078125 "/>
</g>

<g fill="#212121" fill-opacity="1" stroke="none" transform="matrix(0.428571,0,0,0.428571,209.056,225.352)"
font-family="MS Shell Dlg 2" font-size="8.14286" font-weight="400" font-style="normal" 
>
<path vector-effect="none" fill-rule="evenodd" d="M1.625,6.25 C1.47917,6.25 1.40625,6.17708 1.40625,6.03125 C1.40625,5.95833 1.42188,5.90625 1.45313,5.875 C4.29688,3.09375 5.71875,-0.947917 5.71875,-6.25 C5.71875,-11.5521 4.3125,-15.5781 1.5,-18.3281 C1.4375,-18.3698 1.40625,-18.4375 1.40625,-18.5313 C1.40625,-18.5833 1.42708,-18.6328 1.46875,-18.6797 C1.51042,-18.7266 1.5625,-18.75 1.625,-18.75 L1.85938,-18.75 C1.90104,-18.75 1.94271,-18.7344 1.98438,-18.7031 C3.17188,-17.7552 4.16667,-16.6068 4.96875,-15.2578 C5.77083,-13.9089 6.35677,-12.4688 6.72656,-10.9375 C7.09635,-9.40625 7.28125,-7.84375 7.28125,-6.25 C7.28125,-5.07292 7.17969,-3.91146 6.97656,-2.76563 C6.77344,-1.61979 6.45573,-0.492188 6.02344,0.617188 C5.59115,1.72656 5.04167,2.7526 4.375,3.69531 C3.70833,4.63802 2.91146,5.47396 1.98438,6.20313 C1.94271,6.23438 1.90104,6.25 1.85938,6.25 L1.625,6.25"/>
</g>

<g fill="#212121" fill-opacity="1" stroke="#212121" stroke-opacity="1" stroke-width="1.16667" stroke-linecap="square" stroke-linejoin="round" transform="matrix(0.428571,0,0,0.428571,0,0)"
font-family="MS Shell Dlg 2" font-size="8.14286" font-weight="400" font-style="normal" 
>
<polyline fill="none" vector-effect="none" points="100,465 695,465 " />
<polyline fill="none" vector-effect="none" points="100,40 695,40 " />
<polyline fill="none" vector-effect="none" points="164.494,465 164.494,459.05 " />
<polyline fill="none" vector-effect="none" points="164.494,45.95 164.494,40 " />
<polyline fill="none" vector-effect="none" points="246.493,465 246.493,459.05 " />
<polyline fill="none" vector-effect="none" points="246.493,45.95 246.493,40 " />
<polyline fill="none" vector-effect="none" points="328.492,465 328.492,459.05 " />
<polyline fill="none" vector-effect="none" points="328.492,45.95 328.492,40 " />
<polyline fill="none" vector-effect="none" points="410.491,465 410.491,459.05 " />
<polyline fill="none" vector-effect="none" points="410.491,45.95 410.491,40 " />
<polyline fill="none" vector-effect="none" points="492.49,465 492.49,459.05 " />
<polyline fill="none" vector-effect="none" points="492.49,45.95 492.49,40 " />
<polyline fill="none" vector-effect="none" points="574.489,465 574.489,459.05 " />
<polyline fill="none" vector-effect="none" points="574.489,45.95 574.489,40 " />
<polyline fill="none" vector-effect="none" points="656.487,465 656.487,459.05 " />
<polyline fill="none" vector-effect="none" points="656.487,45.95 656.487,40 " />
</g>

<g fill="#212121" fill-opacity="1" stroke="none" transform="matrix(0.428571,0,0,0.428571,67.9975,211.686)"
font-family="MS Shell Dlg 2" font-size="8.14286" font-weight="400" font-style="normal" 
>
<path vector-effect="none" fill-rule="evenodd" d="M1.14063,0 L1.14063,-0.625 C1.14063,-0.65625 1.15625,-0.692708 1.1875,-0.734375 L4.76563,-4.6875 C5.30729,-5.28125 5.74479,-5.77604 6.07813,-6.17188 C6.41146,-6.56771 6.74219,-7.02344 7.07031,-7.53906 C7.39844,-8.05469 7.65885,-8.58073 7.85156,-9.11719 C8.04427,-9.65365 8.14063,-10.2188 8.14063,-10.8125 C8.14063,-11.4479 8.02604,-12.0521 7.79688,-12.625 C7.56771,-13.1979 7.22135,-13.6563 6.75781,-14 C6.29427,-14.3438 5.73958,-14.5156 5.09375,-14.5156 C4.42708,-14.5156 3.82813,-14.3151 3.29688,-13.9141 C2.76563,-13.513 2.39063,-12.9948 2.17188,-12.3594 C2.22396,-12.3698 2.30729,-12.375 2.42188,-12.375 C2.76563,-12.375 3.05729,-12.2604 3.29688,-12.0313 C3.53646,-11.8021 3.65625,-11.5 3.65625,-11.125 C3.65625,-10.7813 3.53646,-10.487 3.29688,-10.2422 C3.05729,-9.9974 2.76563,-9.875 2.42188,-9.875 C2.05729,-9.875 1.7526,-10 1.50781,-10.25 C1.26302,-10.5 1.14063,-10.7917 1.14063,-11.125 C1.14063,-11.7083 1.25,-12.2526 1.46875,-12.7578 C1.6875,-13.263 2,-13.7109 2.40625,-14.1016 C2.8125,-14.4922 3.27344,-14.7917 3.78906,-15 C4.30469,-15.2083 4.84896,-15.3125 5.42188,-15.3125 C6.29688,-15.3125 7.11198,-15.1276 7.86719,-14.7578 C8.6224,-14.388 9.22135,-13.8646 9.66406,-13.1875 C10.1068,-12.5104 10.3281,-11.7188 10.3281,-10.8125 C10.3281,-10.1458 10.1823,-9.51302 9.89063,-8.91406 C9.59896,-8.3151 9.22656,-7.77083 8.77344,-7.28125 C8.32031,-6.79167 7.73698,-6.23698 7.02344,-5.61719 C6.3099,-4.9974 5.83854,-4.58333 5.60938,-4.375 L3.01563,-1.85938 L5.21875,-1.85938 C6.30208,-1.85938 7.21094,-1.86979 7.94531,-1.89063 C8.67969,-1.91146 9.06771,-1.94271 9.10938,-1.98438 C9.28646,-2.17188 9.46875,-2.875 9.65625,-4.09375 L10.3281,-4.09375 L9.6875,0 L1.14063,0"/>
</g>

<g fill="#212121" fill-opacity="1" stroke="none" transform="matrix(0.428571,0,0,0.428571,103.14,211.686)"
font-family="MS Shell Dlg 2" font-size="8.14286" font-weight="400" font-style="normal" 
>
<path vector-effect="none" fill-rule="evenodd" d="M2.1875,-1.78125 C2.55208,-1.26042 3.03646,-0.872396 3.64063,-0.617188 C4.24479,-0.361979 4.89583,-0.234375 5.59375,-0.234375 C6.47917,-0.234375 7.10938,-0.614583 7.48438,-1.375 C7.85938,-2.13542 8.04688,-3 8.04688,-3.96875 C8.04688,-4.39583 8.00781,-4.82813 7.92969,-5.26563 C7.85156,-5.70313 7.71875,-6.10938 7.53125,-6.48438 C7.34375,-6.85938 7.08854,-7.15885 6.76563,-7.38281 C6.44271,-7.60677 6.04688,-7.71875 5.57813,-7.71875 L4.04688,-7.71875 C3.91146,-7.71875 3.84375,-7.78646 3.84375,-7.92188 L3.84375,-8.125 C3.84375,-8.23958 3.91146,-8.29688 4.04688,-8.29688 L5.3125,-8.40625 C5.85417,-8.40625 6.30208,-8.60677 6.65625,-9.00781 C7.01042,-9.40885 7.27083,-9.90104 7.4375,-10.4844 C7.60417,-11.0677 7.6875,-11.6198 7.6875,-12.1406 C7.6875,-12.8698 7.51563,-13.4714 7.17188,-13.9453 C6.82813,-14.4193 6.30208,-14.6563 5.59375,-14.6563 C5.01042,-14.6563 4.45313,-14.5469 3.92188,-14.3281 C3.39063,-14.1094 2.96875,-13.7708 2.65625,-13.3125 C2.6875,-13.3229 2.71354,-13.3307 2.73438,-13.3359 C2.75521,-13.3411 2.78125,-13.3438 2.8125,-13.3438 C3.15625,-13.3438 3.44271,-13.224 3.67188,-12.9844 C3.90104,-12.7448 4.01563,-12.4583 4.01563,-12.125 C4.01563,-11.7917 3.90104,-11.5052 3.67188,-11.2656 C3.44271,-11.026 3.15625,-10.9063 2.8125,-10.9063 C2.46875,-10.9063 2.17708,-11.026 1.9375,-11.2656 C1.69792,-11.5052 1.57813,-11.7917 1.57813,-12.125 C1.57813,-12.7813 1.77865,-13.3516 2.17969,-13.8359 C2.58073,-14.3203 3.09375,-14.6875 3.71875,-14.9375 C4.34375,-15.1875 4.96875,-15.3125 5.59375,-15.3125 C6.0625,-15.3125 6.55469,-15.2448 7.07031,-15.1094 C7.58594,-14.974 8.05208,-14.776 8.46875,-14.5156 C8.88542,-14.2552 9.22656,-13.9245 9.49219,-13.5234 C9.75781,-13.1224 9.89063,-12.6615 9.89063,-12.1406 C9.89063,-11.4948 9.7474,-10.8984 9.46094,-10.3516 C9.17448,-9.80469 8.78125,-9.33333 8.28125,-8.9375 C7.78125,-8.54167 7.22917,-8.25 6.625,-8.0625 C7.29167,-7.92708 7.92448,-7.67448 8.52344,-7.30469 C9.1224,-6.9349 9.60417,-6.45573 9.96875,-5.86719 C10.3333,-5.27865 10.5156,-4.65104 10.5156,-3.98438 C10.5156,-3.13021 10.2839,-2.36198 9.82031,-1.67969 C9.35677,-0.997396 8.74479,-0.463542 7.98438,-0.078125 C7.22396,0.307292 6.42708,0.5 5.59375,0.5 C4.875,0.5 4.15365,0.364583 3.42969,0.09375 C2.70573,-0.177083 2.11458,-0.585938 1.65625,-1.13281 C1.19792,-1.67969 0.96875,-2.33854 0.96875,-3.10938 C0.96875,-3.49479 1.09635,-3.8151 1.35156,-4.07031 C1.60677,-4.32552 1.92188,-4.45313 2.29688,-4.45313 C2.54688,-4.45313 2.77604,-4.39323 2.98438,-4.27344 C3.19271,-4.15365 3.35417,-3.98958 3.46875,-3.78125 C3.58333,-3.57292 3.64063,-3.34896 3.64063,-3.10938 C3.64063,-2.73438 3.51042,-2.41927 3.25,-2.16406 C2.98958,-1.90885 2.67188,-1.78125 2.29688,-1.78125 L2.1875,-1.78125"/>
</g>

<g fill="#212121" fill-opacity="1" stroke="none" transform="matrix(0.428571,0,0,0.428571,138.282,211.686)"
font-family="MS Shell Dlg 2" font-size="8.14286" font-weight="400" font-style="normal" 
>
<path vector-effect="none" fill-rule="evenodd" d="M0.640625,-3.79688 L0.640625,-4.60938 L7.75,-15.2031 C7.80208,-15.276 7.88021,-15.3125 7.98438,-15.3125 L8.32813,-15.3125 C8.49479,-15.3125 8.57813,-15.2292 8.57813,-15.0625 L8.57813,-4.60938 L10.8438,-4.60938 L10.8438,-3.79688 L8.57813,-3.79688 L8.57813,-1.53125 C8.57813,-1.21875 8.80208,-1.02083 9.25,-0.9375 C9.69792,-0.854167 10.2188,-0.8125 10.8125,-0.8125 L10.8125,0 L4.48438,0 L4.48438,-0.8125 C5.07813,-0.8125 5.59896,-0.854167 6.04688,-0.9375 C6.49479,-1.02083 6.71875,-1.21875 6.71875,-1.53125 L6.71875,-3.79688 L0.640625,-3.79688 M1.40625,-4.60938 L6.84375,-4.60938 L6.84375,-12.75 L1.40625,-4.60938"/>
</g>

<g fill="#212121" fill-opacity="1" stroke="none" transform="matrix(0.428571,0,0,0.428571,173.425,211.686)"
font-family="MS Shell Dlg 2" font-size="8.14286" font-weight="400" font-style="normal" 
>
<path vector-effect="none" fill-rule="evenodd" d="M2,-2.625 C2.15625,-2.17708 2.39844,-1.77083 2.72656,-1.40625 C3.05469,-1.04167 3.4401,-0.755208 3.88281,-0.546875 C4.32552,-0.338542 4.78646,-0.234375 5.26563,-0.234375 C6.36979,-0.234375 7.13281,-0.664063 7.55469,-1.52344 C7.97656,-2.38281 8.1875,-3.42708 8.1875,-4.65625 C8.1875,-5.1875 8.17708,-5.63542 8.15625,-6 C8.13542,-6.36458 8.08333,-6.71354 8,-7.04688 C7.86458,-7.58854 7.61979,-8.0599 7.26563,-8.46094 C6.91146,-8.86198 6.47396,-9.0625 5.95313,-9.0625 C5.43229,-9.0625 4.98698,-8.98438 4.61719,-8.82813 C4.2474,-8.67188 3.94792,-8.48958 3.71875,-8.28125 C3.48958,-8.07292 3.28385,-7.85156 3.10156,-7.61719 C2.91927,-7.38281 2.80729,-7.26042 2.76563,-7.25 L2.5,-7.25 C2.46875,-7.25 2.42448,-7.27344 2.36719,-7.32031 C2.3099,-7.36719 2.28125,-7.41146 2.28125,-7.45313 L2.28125,-15.1406 C2.28125,-15.1719 2.30469,-15.2083 2.35156,-15.25 C2.39844,-15.2917 2.44792,-15.3125 2.5,-15.3125 L2.57813,-15.3125 C3.60938,-14.8229 4.70313,-14.5781 5.85938,-14.5781 C6.99479,-14.5781 8.09375,-14.8229 9.15625,-15.3125 L9.21875,-15.3125 C9.27083,-15.3125 9.32031,-15.2943 9.36719,-15.2578 C9.41406,-15.2214 9.4375,-15.1823 9.4375,-15.1406 L9.4375,-14.9219 C9.4375,-14.849 9.42188,-14.8125 9.39063,-14.8125 C8.86979,-14.1146 8.21354,-13.5703 7.42188,-13.1797 C6.63021,-12.7891 5.8125,-12.5938 4.96875,-12.5938 C4.35417,-12.5938 3.72396,-12.6823 3.07813,-12.8594 L3.07813,-8.51563 C3.58854,-8.92188 4.04427,-9.21354 4.44531,-9.39063 C4.84635,-9.56771 5.35417,-9.65625 5.96875,-9.65625 C6.82292,-9.65625 7.58333,-9.41406 8.25,-8.92969 C8.91667,-8.44531 9.42969,-7.8099 9.78906,-7.02344 C10.1484,-6.23698 10.3281,-5.4375 10.3281,-4.625 C10.3281,-3.70833 10.1016,-2.85677 9.64844,-2.07031 C9.19531,-1.28385 8.58073,-0.658854 7.80469,-0.195313 C7.02865,0.268229 6.18229,0.5 5.26563,0.5 C4.51563,0.5 3.82292,0.307292 3.1875,-0.078125 C2.55208,-0.463542 2.05208,-0.986979 1.6875,-1.64844 C1.32292,-2.3099 1.14063,-3.01042 1.14063,-3.75 C1.14063,-4.09375 1.2526,-4.375 1.47656,-4.59375 C1.70052,-4.8125 1.98438,-4.92188 2.32813,-4.92188 C2.66146,-4.92188 2.94271,-4.8125 3.17188,-4.59375 C3.40104,-4.375 3.51563,-4.09375 3.51563,-3.75 C3.51563,-3.42708 3.40104,-3.15104 3.17188,-2.92188 C2.94271,-2.69271 2.66146,-2.57813 2.32813,-2.57813 C2.27604,-2.57813 2.21615,-2.58333 2.14844,-2.59375 C2.08073,-2.60417 2.03125,-2.61458 2,-2.625 "/>
</g>

<g fill="#212121" fill-opacity="1" stroke="none" transform="matrix(0.428571,0,0,0.428571,208.567,211.686)"
font-family="MS Shell Dlg 2" font-size="8.14286" font-weight="400" font-style="normal" 
>
<path vector-effect="none" fill-rule="evenodd" d="M5.75,0.5 C4.80208,0.5 4.01042,0.247396 3.375,-0.257813 C2.73958,-0.763021 2.2474,-1.41667 1.89844,-2.21875 C1.54948,-3.02083 1.30729,-3.86458 1.17188,-4.75 C1.03646,-5.63542 0.96875,-6.53125 0.96875,-7.4375 C0.96875,-8.64583 1.20313,-9.86198 1.67188,-11.0859 C2.14063,-12.3099 2.83333,-13.3203 3.75,-14.1172 C4.66667,-14.9141 5.75521,-15.3125 7.01563,-15.3125 C7.54688,-15.3125 8.03906,-15.2135 8.49219,-15.0156 C8.94531,-14.8177 9.29948,-14.526 9.55469,-14.1406 C9.8099,-13.7552 9.9375,-13.2917 9.9375,-12.75 C9.9375,-12.4375 9.83073,-12.1745 9.61719,-11.9609 C9.40365,-11.7474 9.14063,-11.6406 8.82813,-11.6406 C8.52604,-11.6406 8.26823,-11.7474 8.05469,-11.9609 C7.84115,-12.1745 7.73438,-12.4375 7.73438,-12.75 C7.73438,-13.0521 7.84115,-13.3099 8.05469,-13.5234 C8.26823,-13.737 8.52604,-13.8438 8.82813,-13.8438 L8.95313,-13.8438 C8.75521,-14.125 8.47917,-14.3307 8.125,-14.4609 C7.77083,-14.5911 7.40104,-14.6563 7.01563,-14.6563 C6.55729,-14.6563 6.13021,-14.5547 5.73438,-14.3516 C5.33854,-14.1484 4.98438,-13.875 4.67188,-13.5313 C4.35938,-13.1875 4.09896,-12.8073 3.89063,-12.3906 C3.68229,-11.974 3.51823,-11.5 3.39844,-10.9688 C3.27865,-10.4375 3.20573,-9.9375 3.17969,-9.46875 C3.15365,-9 3.14063,-8.41667 3.14063,-7.71875 C3.40104,-8.34375 3.77865,-8.85938 4.27344,-9.26563 C4.76823,-9.67188 5.32813,-9.875 5.95313,-9.875 C6.63021,-9.875 7.25,-9.73698 7.8125,-9.46094 C8.375,-9.1849 8.85938,-8.79948 9.26563,-8.30469 C9.67188,-7.8099 9.98177,-7.25 10.1953,-6.625 C10.4089,-6 10.5156,-5.36458 10.5156,-4.71875 C10.5156,-3.82292 10.3151,-2.96875 9.91406,-2.15625 C9.51302,-1.34375 8.94792,-0.697917 8.21875,-0.21875 C7.48958,0.260417 6.66667,0.5 5.75,0.5 M5.75,-0.234375 C6.34375,-0.234375 6.82031,-0.369792 7.17969,-0.640625 C7.53906,-0.911458 7.80208,-1.26823 7.96875,-1.71094 C8.13542,-2.15365 8.23958,-2.60156 8.28125,-3.05469 C8.32292,-3.50781 8.34375,-4.0625 8.34375,-4.71875 C8.34375,-5.58333 8.30208,-6.32292 8.21875,-6.9375 C8.13542,-7.55208 7.91146,-8.09115 7.54688,-8.55469 C7.18229,-9.01823 6.61979,-9.25 5.85938,-9.25 C5.24479,-9.25 4.73698,-9.04167 4.33594,-8.625 C3.9349,-8.20833 3.64063,-7.67969 3.45313,-7.03906 C3.26563,-6.39844 3.17188,-5.78646 3.17188,-5.20313 C3.17188,-4.99479 3.18229,-4.83854 3.20313,-4.73438 C3.20313,-4.71354 3.20052,-4.69531 3.19531,-4.67969 C3.1901,-4.66406 3.18229,-4.64583 3.17188,-4.625 C3.17188,-3.96875 3.23958,-3.30469 3.375,-2.63281 C3.51042,-1.96094 3.77083,-1.39323 4.15625,-0.929688 C4.54167,-0.466146 5.07292,-0.234375 5.75,-0.234375 "/>
</g>

<g fill="#212121" fill-opacity="1" stroke="none" transform="matrix(0.428571,0,0,0.428571,243.709,211.686)"
font-family="MS Shell Dlg 2" font-size="8.14286" font-weight="400" font-style="normal" 
>
<path vector-effect="none" fill-rule="evenodd" d="M4,-0.59375 C4,-1.44792 4.07552,-2.28385 4.22656,-3.10156 C4.3776,-3.91927 4.59635,-4.72656 4.88281,-5.52344 C5.16927,-6.32031 5.51563,-7.10156 5.92188,-7.86719 C6.32813,-8.63281 6.77604,-9.35417 7.26563,-10.0313 L9.35938,-12.9531 L6.73438,-12.9531 C4.01563,-12.9531 2.61458,-12.9167 2.53125,-12.8438 C2.32292,-12.5938 2.13021,-11.8854 1.95313,-10.7188 L1.29688,-10.7188 L2.04688,-15.5469 L2.71875,-15.5469 L2.71875,-15.4688 C2.71875,-15.1979 3.1875,-15.0208 4.125,-14.9375 C5.0625,-14.8542 5.97917,-14.8125 6.875,-14.8125 L11.1563,-14.8125 L11.1563,-14.2188 C11.1563,-14.2083 11.1536,-14.1979 11.1484,-14.1875 C11.1432,-14.1771 11.1354,-14.1667 11.125,-14.1563 L7.96875,-9.70313 C7.1875,-8.54688 6.69792,-7.26563 6.5,-5.85938 C6.30208,-4.45313 6.20313,-2.69792 6.20313,-0.59375 C6.20313,-0.291667 6.09635,-0.0338542 5.88281,0.179688 C5.66927,0.393229 5.41146,0.5 5.10938,0.5 C4.80729,0.5 4.54688,0.393229 4.32813,0.179688 C4.10938,-0.0338542 4,-0.291667 4,-0.59375 "/>
</g>

<g fill="#212121" fill-opacity="1" stroke="none" transform="matrix(0.428571,0,0,0.428571,278.852,211.686)"
font-family="MS Shell Dlg 2" font-size="8.14286" font-weight="400" font-style="normal" 
>
<path vector-effect="none" fill-rule="evenodd" d="M0.96875,-3.5 C0.96875,-4.41667 1.27083,-5.22917 1.875,-5.9375 C2.47917,-6.64583 3.26042,-7.23438 4.21875,-7.70313 L3.35938,-8.26563 C2.83854,-8.60938 2.41146,-9.06771 2.07813,-9.64063 C1.74479,-10.2135 1.57813,-10.8125 1.57813,-11.4375 C1.57813,-12.1667 1.77083,-12.8281 2.15625,-13.4219 C2.54167,-14.0156 3.05469,-14.4792 3.69531,-14.8125 C4.33594,-15.1458 5.02083,-15.3125 5.75,-15.3125 C6.42708,-15.3125 7.08333,-15.1745 7.71875,-14.8984 C8.35417,-14.6224 8.875,-14.2266 9.28125,-13.7109 C9.6875,-13.1953 9.89063,-12.5833 9.89063,-11.875 C9.89063,-11.3542 9.77083,-10.875 9.53125,-10.4375 C9.29167,-10 8.95833,-9.60417 8.53125,-9.25 C8.10417,-8.89583 7.65104,-8.59375 7.17188,-8.34375 L8.48438,-7.5 C9.09896,-7.10417 9.59115,-6.58594 9.96094,-5.94531 C10.3307,-5.30469 10.5156,-4.625 10.5156,-3.90625 C10.5156,-3.07292 10.2917,-2.31771 9.84375,-1.64063 C9.39583,-0.963542 8.80469,-0.4375 8.07031,-0.0625 C7.33594,0.3125 6.5625,0.5 5.75,0.5 C4.95833,0.5 4.19271,0.338542 3.45313,0.015625 C2.71354,-0.307292 2.11458,-0.773438 1.65625,-1.38281 C1.19792,-1.99219 0.96875,-2.69792 0.96875,-3.5 M2.21875,-3.5 C2.21875,-2.89583 2.38542,-2.34375 2.71875,-1.84375 C3.05208,-1.34375 3.49219,-0.950521 4.03906,-0.664063 C4.58594,-0.377604 5.15625,-0.234375 5.75,-0.234375 C6.64583,-0.234375 7.45573,-0.494792 8.17969,-1.01563 C8.90365,-1.53646 9.26563,-2.22917 9.26563,-3.09375 C9.26563,-3.38542 9.20833,-3.67448 9.09375,-3.96094 C8.97917,-4.2474 8.81771,-4.50781 8.60938,-4.74219 C8.40104,-4.97656 8.17188,-5.16667 7.92188,-5.3125 L4.82813,-7.3125 C4.34896,-7.0625 3.90885,-6.74219 3.50781,-6.35156 C3.10677,-5.96094 2.79167,-5.52344 2.5625,-5.03906 C2.33333,-4.55469 2.21875,-4.04167 2.21875,-3.5 M3.79688,-10.5156 L6.57813,-8.71875 C7.22396,-9.09375 7.7526,-9.54688 8.16406,-10.0781 C8.57552,-10.6094 8.78125,-11.2083 8.78125,-11.875 C8.78125,-12.3854 8.63802,-12.8568 8.35156,-13.2891 C8.0651,-13.7214 7.6901,-14.0573 7.22656,-14.2969 C6.76302,-14.5365 6.26563,-14.6563 5.73438,-14.6563 C5.26563,-14.6563 4.79427,-14.5651 4.32031,-14.3828 C3.84635,-14.2005 3.45833,-13.9323 3.15625,-13.5781 C2.85417,-13.224 2.70313,-12.8073 2.70313,-12.3281 C2.70313,-11.6094 3.06771,-11.0052 3.79688,-10.5156 "/>
</g>

<g fill="#212121" fill-opacity="1" stroke="none" transform="matrix(0,-0.428571,0.428571,0,14.319,145.759)"
font-family="MS Shell Dlg 2" font-size="8.14286" font-weight="400" font-style="normal" 
>
<path vector-effect="none" fill-rule="evenodd" d="M0.828125,0 L0.828125,-0.875 C2.54688,-0.875 3.40625,-1.14063 3.40625,-1.67188 L3.40625,-15.4063 C3.40625,-15.9375 2.54688,-16.2031 0.828125,-16.2031 L0.828125,-17.0781 L9.73438,-17.0781 C10.6406,-17.0781 11.5495,-16.8906 12.4609,-16.5156 C13.3724,-16.1406 14.1224,-15.5964 14.7109,-14.8828 C15.2995,-14.1693 15.5938,-13.3333 15.5938,-12.375 C15.5938,-11.4479 15.2969,-10.6354 14.7031,-9.9375 C14.1094,-9.23958 13.362,-8.70833 12.4609,-8.34375 C11.5599,-7.97917 10.651,-7.79688 9.73438,-7.79688 L5.71875,-7.79688 L5.71875,-1.67188 C5.71875,-1.14063 6.57813,-0.875 8.29688,-0.875 L8.29688,0 L0.828125,0 M5.65625,-8.54688 L9.04688,-8.54688 C9.96354,-8.54688 10.7083,-8.67969 11.2813,-8.94531 C11.8542,-9.21094 12.2708,-9.6224 12.5313,-10.1797 C12.7917,-10.737 12.9219,-11.4688 12.9219,-12.375 C12.9219,-13.7396 12.625,-14.7188 12.0313,-15.3125 C11.4375,-15.9063 10.4427,-16.2031 9.04688,-16.2031 L6.92188,-16.2031 C6.61979,-16.2031 6.38542,-16.1901 6.21875,-16.1641 C6.05208,-16.138 5.91667,-16.0651 5.8125,-15.9453 C5.70833,-15.8255 5.65625,-15.6458 5.65625,-15.4063 L5.65625,-8.54688"/>
</g>

<g fill="#212121" fill-opacity="1" stroke="none" transform="matrix(0,-0.428571,0.428571,0,14.319,138.273)"
font-family="MS Shell Dlg 2" font-size="8.14286" font-weight="400" font-style="normal" 
>
<path vector-effect="none" fill-rule="evenodd" d="M0.765625,0 L0.765625,-0.875 C2.48438,-0.875 3.34375,-1.14063 3.34375,-1.67188 L3.34375,-15.4063 C3.34375,-15.9375 2.48438,-16.2031 0.765625,-16.2031 L0.765625,-17.0781 L14.9063,-17.0781 L15.5938,-11.3594 L14.875,-11.3594 C14.6979,-12.7969 14.4479,-13.8411 14.125,-14.4922 C13.8021,-15.1432 13.2891,-15.5911 12.5859,-15.8359 C11.8828,-16.0807 10.8229,-16.2031 9.40625,-16.2031 L6.95313,-16.2031 C6.65104,-16.2031 6.41667,-16.1901 6.25,-16.1641 C6.08333,-16.138 5.94531,-16.0651 5.83594,-15.9453 C5.72656,-15.8255 5.67188,-15.6458 5.67188,-15.4063 L5.67188,-9.29688 L7.51563,-9.29688 C8.36979,-9.29688 9.00521,-9.36979 9.42188,-9.51563 C9.83854,-9.66146 10.125,-9.9349 10.2813,-10.3359 C10.4375,-10.737 10.5156,-11.3646 10.5156,-12.2188 L11.25,-12.2188 L11.25,-5.5 L10.5156,-5.5 C10.5156,-6.35417 10.4375,-6.98438 10.2813,-7.39063 C10.125,-7.79688 9.83854,-8.07031 9.42188,-8.21094 C9.00521,-8.35156 8.36979,-8.42188 7.51563,-8.42188 L5.67188,-8.42188 L5.67188,-1.67188 C5.67188,-1.31771 5.77344,-1.09635 5.97656,-1.00781 C6.17969,-0.919271 6.50521,-0.875 6.95313,-0.875 L9.59375,-0.875 C10.75,-0.875 11.6849,-0.966146 12.3984,-1.14844 C13.112,-1.33073 13.6667,-1.63542 14.0625,-2.0625 C14.4583,-2.48958 14.763,-3.04427 14.9766,-3.72656 C15.1901,-4.40885 15.3906,-5.35417 15.5781,-6.5625 L16.2969,-6.5625 L15.25,0 L0.765625,0"/>
</g>

<g fill="#212121" fill-opacity="1" stroke="none" transform="matrix(0,-0.428571,0.428571,0,14.319,130.787)"
font-family="MS Shell Dlg 2" font-size="8.14286" font-weight="400" font-style="normal" 
>
<path vector-effect="none" fill-rule="evenodd" d="M0.875,0 L0.875,-0.875 C2.59375,-0.875 3.45313,-1.36979 3.45313,-2.35938 L3.45313,-15.4063 C3.45313,-15.9375 2.59375,-16.2031 0.875,-16.2031 L0.875,-17.0781 L5.60938,-17.0781 C5.80729,-17.0781 5.9375,-16.9844 6,-16.7969 L11.4531,-2.65625 L16.8906,-16.7969 C16.9635,-16.9844 17.099,-17.0781 17.2969,-17.0781 L22.0156,-17.0781 L22.0156,-16.2031 C20.3073,-16.2031 19.4531,-15.9375 19.4531,-15.4063 L19.4531,-1.67188 C19.4531,-1.14063 20.3073,-0.875 22.0156,-0.875 L22.0156,0 L14.75,0 L14.75,-0.875 C16.4688,-0.875 17.3281,-1.14063 17.3281,-1.67188 L17.3281,-16.2188 L11.1719,-0.28125 C11.099,-0.09375 10.9583,0 10.75,0 C10.5417,0 10.401,-0.09375 10.3281,-0.28125 L4.25,-16.0313 L4.25,-2.35938 C4.25,-1.36979 5.10938,-0.875 6.82813,-0.875 L6.82813,0 L0.875,0"/>
</g>

<g fill="#212121" fill-opacity="1" stroke="none" transform="matrix(0,-0.428571,0.428571,0,14.319,120.704)"
font-family="MS Shell Dlg 2" font-size="8.14286" font-weight="400" font-style="normal" 
>
<path vector-effect="none" fill-rule="evenodd" d="M9.73438,0.546875 C8.14063,0.546875 6.71094,0.125 5.44531,-0.71875 C4.17969,-1.5625 3.1901,-2.68229 2.47656,-4.07813 C1.76302,-5.47396 1.40625,-6.9375 1.40625,-8.46875 C1.40625,-9.61458 1.61198,-10.7448 2.02344,-11.8594 C2.4349,-12.974 3.00781,-13.9609 3.74219,-14.8203 C4.47656,-15.6797 5.36198,-16.362 6.39844,-16.8672 C7.4349,-17.3724 8.54688,-17.625 9.73438,-17.625 C10.9115,-17.625 12.0182,-17.3698 13.0547,-16.8594 C14.0911,-16.349 14.9792,-15.6589 15.7188,-14.7891 C16.4583,-13.9193 17.0286,-12.9427 17.4297,-11.8594 C17.8307,-10.776 18.0313,-9.64583 18.0313,-8.46875 C18.0313,-6.9375 17.6719,-5.47396 16.9531,-4.07813 C16.2344,-2.68229 15.2422,-1.5625 13.9766,-0.71875 C12.7109,0.125 11.2969,0.546875 9.73438,0.546875 M5.57813,-2.70313 C6.06771,-1.93229 6.66927,-1.32292 7.38281,-0.875 C8.09635,-0.427083 8.88021,-0.203125 9.73438,-0.203125 C10.276,-0.203125 10.8099,-0.3125 11.3359,-0.53125 C11.862,-0.75 12.3385,-1.04948 12.7656,-1.42969 C13.1927,-1.8099 13.5573,-2.23438 13.8594,-2.70313 C14.849,-4.19271 15.3438,-6.25 15.3438,-8.875 C15.3438,-11.2708 14.849,-13.1667 13.8594,-14.5625 C13.3698,-15.2604 12.7604,-15.8203 12.0313,-16.2422 C11.3021,-16.6641 10.5365,-16.875 9.73438,-16.875 C8.92188,-16.875 8.14844,-16.6641 7.41406,-16.2422 C6.67969,-15.8203 6.06771,-15.2604 5.57813,-14.5625 C5.19271,-14.0208 4.89063,-13.4427 4.67188,-12.8281 C4.45313,-12.2135 4.29948,-11.5755 4.21094,-10.9141 C4.1224,-10.2526 4.07813,-9.57292 4.07813,-8.875 C4.07813,-8.11458 4.11979,-7.375 4.20313,-6.65625 C4.28646,-5.9375 4.44531,-5.23177 4.67969,-4.53906 C4.91406,-3.84635 5.21354,-3.23438 5.57813,-2.70313 "/>
</g>

<g fill="#212121" fill-opacity="1" stroke="none" transform="matrix(0,-0.428571,0.428571,0,14.319,112.148)"
font-family="MS Shell Dlg 2" font-size="8.14286" font-weight="400" font-style="normal" 
>
<path vector-effect="none" fill-rule="evenodd" d="M0.28125,-4.625 L0.28125,-6.17188 L6.89063,-6.17188 L6.89063,-4.625 L0.28125,-4.625"/>
</g>

<g fill="#212121" fill-opacity="1" stroke="none" transform="matrix(0,-0.428571,0.428571,0,14.319,108.482)"
font-family="MS Shell Dlg 2" font-size="8.14286" font-weight="400" font-style="normal" 
>
<path vector-effect="none" fill-rule="evenodd" d="M9.73438,0.546875 C8.14063,0.546875 6.71094,0.125 5.44531,-0.71875 C4.17969,-1.5625 3.1901,-2.68229 2.47656,-4.07813 C1.76302,-5.47396 1.40625,-6.9375 1.40625,-8.46875 C1.40625,-9.61458 1.61198,-10.7448 2.02344,-11.8594 C2.4349,-12.974 3.00781,-13.9609 3.74219,-14.8203 C4.47656,-15.6797 5.36198,-16.362 6.39844,-16.8672 C7.4349,-17.3724 8.54688,-17.625 9.73438,-17.625 C10.9115,-17.625 12.0182,-17.3698 13.0547,-16.8594 C14.0911,-16.349 14.9792,-15.6589 15.7188,-14.7891 C16.4583,-13.9193 17.0286,-12.9427 17.4297,-11.8594 C17.8307,-10.776 18.0313,-9.64583 18.0313,-8.46875 C18.0313,-7.32292 17.8307,-6.20573 17.4297,-5.11719 C17.0286,-4.02865 16.4427,-3.05208 15.6719,-2.1875 C14.901,-1.32292 14,-0.651042 12.9688,-0.171875 C13.2917,0.567708 13.6198,1.14323 13.9531,1.55469 C14.2865,1.96615 14.75,2.17188 15.3438,2.17188 C15.9688,2.17188 16.5052,1.95573 16.9531,1.52344 C17.401,1.09115 17.625,0.567708 17.625,-0.046875 C17.625,-0.109375 17.6563,-0.164063 17.7188,-0.210938 C17.7813,-0.257813 17.8385,-0.28125 17.8906,-0.28125 C18.0781,-0.28125 18.1719,-0.171875 18.1719,0.046875 C18.1719,1.24479 17.9375,2.34375 17.4688,3.34375 C17,4.34375 16.2344,4.84375 15.1719,4.84375 C14.5885,4.84375 14.1042,4.70052 13.7188,4.41406 C13.3333,4.1276 13.0417,3.76302 12.8438,3.32031 C12.6458,2.8776 12.4896,2.36198 12.375,1.77344 C12.2604,1.1849 12.1615,0.651042 12.0781,0.171875 C11.3385,0.421875 10.5573,0.546875 9.73438,0.546875 M9.73438,-0.171875 C10.4844,-0.171875 11.2083,-0.364583 11.9063,-0.75 C11.75,-1.45833 11.5104,-2.02604 11.1875,-2.45313 C10.8646,-2.88021 10.3802,-3.09375 9.73438,-3.09375 C9.32813,-3.09375 8.98698,-2.94531 8.71094,-2.64844 C8.4349,-2.35156 8.29688,-2.01042 8.29688,-1.625 C8.29688,-1.19792 8.42969,-0.848958 8.69531,-0.578125 C8.96094,-0.307292 9.30729,-0.171875 9.73438,-0.171875 M7.65625,-1.625 C7.65625,-1.98958 7.74479,-2.33594 7.92188,-2.66406 C8.09896,-2.99219 8.34896,-3.25521 8.67188,-3.45313 C8.99479,-3.65104 9.34896,-3.75 9.73438,-3.75 C10.4531,-3.75 11.0234,-3.51563 11.4453,-3.04688 C11.8672,-2.57813 12.2448,-1.94271 12.5781,-1.14063 C13.1302,-1.55729 13.5938,-2.04948 13.9688,-2.61719 C14.3438,-3.1849 14.6354,-3.77865 14.8438,-4.39844 C15.0521,-5.01823 15.2031,-5.67708 15.2969,-6.375 C15.3906,-7.07292 15.4375,-7.77083 15.4375,-8.46875 C15.4375,-9.625 15.3203,-10.7109 15.0859,-11.7266 C14.8516,-12.7422 14.4583,-13.6563 13.9063,-14.4688 C13.4271,-15.1875 12.8177,-15.7682 12.0781,-16.2109 C11.3385,-16.6536 10.5573,-16.875 9.73438,-16.875 C8.89063,-16.875 8.10156,-16.6589 7.36719,-16.2266 C6.63281,-15.7943 6.02083,-15.2083 5.53125,-14.4688 C4.95833,-13.6354 4.5599,-12.7109 4.33594,-11.6953 C4.11198,-10.6797 4,-9.60417 4,-8.46875 C4,-6.69792 4.30208,-5.08594 4.90625,-3.63281 C5.51042,-2.17969 6.51563,-1.15104 7.92188,-0.546875 C7.74479,-0.890625 7.65625,-1.25 7.65625,-1.625 "/>
</g>

<g fill="#212121" fill-opacity="1" stroke="none" transform="matrix(0,-0.428571,0.428571,0,14.319,96.2594)"
font-family="MS Shell Dlg 2" font-size="8.14286" font-weight="400" font-style="normal" 
>
<path vector-effect="none" fill-rule="evenodd" d="M9.73438,0.546875 C8.14063,0.546875 6.71094,0.125 5.44531,-0.71875 C4.17969,-1.5625 3.1901,-2.68229 2.47656,-4.07813 C1.76302,-5.47396 1.40625,-6.9375 1.40625,-8.46875 C1.40625,-9.61458 1.61198,-10.7448 2.02344,-11.8594 C2.4349,-12.974 3.00781,-13.9609 3.74219,-14.8203 C4.47656,-15.6797 5.36198,-16.362 6.39844,-16.8672 C7.4349,-17.3724 8.54688,-17.625 9.73438,-17.625 C10.9115,-17.625 12.0182,-17.3698 13.0547,-16.8594 C14.0911,-16.349 14.9792,-15.6589 15.7188,-14.7891 C16.4583,-13.9193 17.0286,-12.9427 17.4297,-11.8594 C17.8307,-10.776 18.0313,-9.64583 18.0313,-8.46875 C18.0313,-6.9375 17.6719,-5.47396 16.9531,-4.07813 C16.2344,-2.68229 15.2422,-1.5625 13.9766,-0.71875 C12.7109,0.125 11.2969,0.546875 9.73438,0.546875 M5.57813,-2.70313 C6.06771,-1.93229 6.66927,-1.32292 7.38281,-0.875 C8.09635,-0.427083 8.88021,-0.203125 9.73438,-0.203125 C10.276,-0.203125 10.8099,-0.3125 11.3359,-0.53125 C11.862,-0.75 12.3385,-1.04948 12.7656,-1.42969 C13.1927,-1.8099 13.5573,-2.23438 13.8594,-2.70313 C14.849,-4.19271 15.3438,-6.25 15.3438,-8.875 C15.3438,-11.2708 14.849,-13.1667 13.8594,-14.5625 C13.3698,-15.2604 12.7604,-15.8203 12.0313,-16.2422 C11.3021,-16.6641 10.5365,-16.875 9.73438,-16.875 C8.92188,-16.875 8.14844,-16.6641 7.41406,-16.2422 C6.67969,-15.8203 6.06771,-15.2604 5.57813,-14.5625 C5.19271,-14.0208 4.89063,-13.4427 4.67188,-12.8281 C4.45313,-12.2135 4.29948,-11.5755 4.21094,-10.9141 C4.1224,-10.2526 4.07813,-9.57292 4.07813,-8.875 C4.07813,-8.11458 4.11979,-7.375 4.20313,-6.65625 C4.28646,-5.9375 4.44531,-5.23177 4.67969,-4.53906 C4.91406,-3.84635 5.21354,-3.23438 5.57813,-2.70313 "/>
</g>

<g fill="#212121" fill-opacity="1" stroke="none" transform="matrix(0,-0.428571,0.428571,0,14.319,87.7038)"
font-family="MS Shell Dlg 2" font-size="8.14286" font-weight="400" font-style="normal" 
>
<path vector-effect="none" fill-rule="evenodd" d="M0.828125,0 L0.828125,-0.875 C2.54688,-0.875 3.40625,-1.14063 3.40625,-1.67188 L3.40625,-15.4063 C3.40625,-15.9375 2.54688,-16.2031 0.828125,-16.2031 L0.828125,-17.0781 L10.0469,-17.0781 C11.1823,-17.0781 12.224,-16.8307 13.1719,-16.3359 C14.1198,-15.8411 14.9271,-15.1849 15.5938,-14.3672 C16.2604,-13.5495 16.7734,-12.6198 17.1328,-11.5781 C17.4922,-10.5365 17.6719,-9.46875 17.6719,-8.375 C17.6719,-7.3125 17.4896,-6.28385 17.125,-5.28906 C16.7604,-4.29427 16.2344,-3.39583 15.5469,-2.59375 C14.8594,-1.79167 14.0443,-1.15885 13.1016,-0.695313 C12.1589,-0.231771 11.1406,0 10.0469,0 L0.828125,0 M5.65625,-1.67188 C5.65625,-1.31771 5.75781,-1.09635 5.96094,-1.00781 C6.16406,-0.919271 6.48438,-0.875 6.92188,-0.875 L9.40625,-0.875 C10.2604,-0.875 11.0703,-1.0599 11.8359,-1.42969 C12.6016,-1.79948 13.2396,-2.31771 13.75,-2.98438 C14.2708,-3.68229 14.6224,-4.46354 14.8047,-5.32813 C14.987,-6.19271 15.0781,-7.20833 15.0781,-8.375 C15.0781,-9.58333 14.987,-10.6432 14.8047,-11.5547 C14.6224,-12.4661 14.2708,-13.2813 13.75,-14 C13.25,-14.7083 12.6172,-15.2526 11.8516,-15.6328 C11.0859,-16.013 10.2708,-16.2031 9.40625,-16.2031 L6.92188,-16.2031 C6.61979,-16.2031 6.38542,-16.1901 6.21875,-16.1641 C6.05208,-16.138 5.91667,-16.0651 5.8125,-15.9453 C5.70833,-15.8255 5.65625,-15.6458 5.65625,-15.4063 L5.65625,-1.67188"/>
</g>

<g fill="#212121" fill-opacity="1" stroke="none" transform="matrix(0,-0.428571,0.428571,0,14.319,79.301)"
font-family="MS Shell Dlg 2" font-size="8.14286" font-weight="400" font-style="normal" 
>
<path vector-effect="none" fill-rule="evenodd" d="M5.75,-2.67188 C6.35417,-1.94271 7.08854,-1.36979 7.95313,-0.953125 C8.81771,-0.536458 9.72396,-0.328125 10.6719,-0.328125 C11.599,-0.328125 12.4401,-0.565104 13.1953,-1.03906 C13.9505,-1.51302 14.3281,-2.18229 14.3281,-3.04688 L14.3281,-5.15625 C14.3281,-5.67708 13.2865,-5.9375 11.2031,-5.9375 L11.2031,-6.82813 L18.375,-6.82813 L18.375,-5.9375 C17.8438,-5.9375 17.4245,-5.89323 17.1172,-5.80469 C16.8099,-5.71615 16.6563,-5.5 16.6563,-5.15625 L16.6563,-0.21875 C16.6563,-0.166667 16.6328,-0.117188 16.5859,-0.0703125 C16.5391,-0.0234375 16.4896,0 16.4375,0 C16.2813,0 16.0208,-0.182292 15.6563,-0.546875 C15.2917,-0.911458 15.0052,-1.23958 14.7969,-1.53125 C14.3906,-0.822917 13.7526,-0.299479 12.8828,0.0390625 C12.013,0.377604 11.099,0.546875 10.1406,0.546875 C8.52604,0.546875 7.05208,0.130208 5.71875,-0.703125 C4.38542,-1.53646 3.33333,-2.65104 2.5625,-4.04688 C1.79167,-5.44271 1.40625,-6.94271 1.40625,-8.54688 C1.40625,-9.72396 1.63021,-10.8698 2.07813,-11.9844 C2.52604,-13.099 3.15104,-14.0807 3.95313,-14.9297 C4.75521,-15.7786 5.6875,-16.4401 6.75,-16.9141 C7.8125,-17.388 8.94271,-17.625 10.1406,-17.625 C11.0052,-17.625 11.8229,-17.4401 12.5938,-17.0703 C13.3646,-16.7005 14.0521,-16.1771 14.6563,-15.5 L16.0938,-17.5469 C16.1979,-17.599 16.2552,-17.625 16.2656,-17.625 L16.4531,-17.625 C16.5052,-17.625 16.5521,-17.6042 16.5938,-17.5625 C16.6354,-17.5208 16.6563,-17.474 16.6563,-17.4219 L16.6563,-10.6719 C16.6563,-10.526 16.5885,-10.4531 16.4531,-10.4531 L16,-10.4531 C15.8438,-10.4531 15.7656,-10.526 15.7656,-10.6719 C15.7656,-11.151 15.6719,-11.6875 15.4844,-12.2813 C15.2969,-12.875 15.0547,-13.4375 14.7578,-13.9688 C14.4609,-14.5 14.1146,-14.9688 13.7188,-15.375 C12.7813,-16.2917 11.7083,-16.75 10.5,-16.75 C9.57292,-16.75 8.6849,-16.5417 7.83594,-16.125 C6.98698,-15.7083 6.27604,-15.1354 5.70313,-14.4063 C5.08854,-13.625 4.66406,-12.7344 4.42969,-11.7344 C4.19531,-10.7344 4.07813,-9.67188 4.07813,-8.54688 C4.07813,-5.99479 4.63542,-4.03646 5.75,-2.67188 "/>
</g>

<g fill="#212121" fill-opacity="1" stroke="#212121" stroke-opacity="1" stroke-width="1.16667" stroke-linecap="square" stroke-linejoin="round" transform="matrix(0.428571,0,0,0.428571,0,0)"
font-family="MS Shell Dlg 2" font-size="8.14286" font-weight="400" font-style="normal" 
>
<polyline fill="none" vector-effect="none" points="100,465 100,40 " />
<polyline fill="none" vector-effect="none" points="695,465 695,40 " />
<polyline fill="none" vector-effect="none" points="100,431.447 105.95,431.447 " />
<polyline fill="none" vector-effect="none" points="689.05,431.447 695,431.447 " />
<polyline fill="none" vector-effect="none" points="100,364.661 105.95,364.661 " />
<polyline fill="none" vector-effect="none" points="689.05,364.661 695,364.661 " />
<polyline fill="none" vector-effect="none" points="100,297.875 105.95,297.875 " />
<polyline fill="none" vector-effect="none" points="689.05,297.875 695,297.875 " />
<polyline fill="none" vector-effect="none" points="100,231.09 105.95,231.09 " />
<polyline fill="none" vector-effect="none" points="689.05,231.09 695,231.09 " />
<polyline fill="none" vector-effect="none" points="100,164.304 105.95,164.304 " />
<polyline fill="none" vector-effect="none" points="689.05,164.304 695,164.304 " />
<polyline fill="none" vector-effect="none" points="100,97.5184 105.95,97.5184 " />
<polyline fill="none" vector-effect="none" points="689.05,97.5184 695,97.5184 " />
</g>

<g fill="#212121" fill-opacity="1" stroke="none" transform="matrix(0.428571,0,0,0.428571,22.746,187.306)"
font-family="MS Shell Dlg 2" font-size="8.14286" font-weight="400" font-style="normal" 
>
<path vector-effect="none" fill-rule="evenodd" d="M0.265625,-4.25 L0.265625,-5.6875 L6.34375,-5.6875 L6.34375,-4.25 L0.265625,-4.25"/>
</g>

<g fill="#212121" fill-opacity="1" stroke="none" transform="matrix(0.428571,0,0,0.428571,26.0793,187.306)"
font-family="MS Shell Dlg 2" font-size="8.14286" font-weight="400" font-style="normal" 
>
<path vector-effect="none" fill-rule="evenodd" d="M2.1875,-1.78125 C2.55208,-1.26042 3.03646,-0.872396 3.64063,-0.617188 C4.24479,-0.361979 4.89583,-0.234375 5.59375,-0.234375 C6.47917,-0.234375 7.10938,-0.614583 7.48438,-1.375 C7.85938,-2.13542 8.04688,-3 8.04688,-3.96875 C8.04688,-4.39583 8.00781,-4.82813 7.92969,-5.26563 C7.85156,-5.70313 7.71875,-6.10938 7.53125,-6.48438 C7.34375,-6.85938 7.08854,-7.15885 6.76563,-7.38281 C6.44271,-7.60677 6.04688,-7.71875 5.57813,-7.71875 L4.04688,-7.71875 C3.91146,-7.71875 3.84375,-7.78646 3.84375,-7.92188 L3.84375,-8.125 C3.84375,-8.23958 3.91146,-8.29688 4.04688,-8.29688 L5.3125,-8.40625 C5.85417,-8.40625 6.30208,-8.60677 6.65625,-9.00781 C7.01042,-9.40885 7.27083,-9.90104 7.4375,-10.4844 C7.60417,-11.0677 7.6875,-11.6198 7.6875,-12.1406 C7.6875,-12.8698 7.51563,-13.4714 7.17188,-13.9453 C6.82813,-14.4193 6.30208,-14.6563 5.59375,-14.6563 C5.01042,-14.6563 4.45313,-14.5469 3.92188,-14.3281 C3.39063,-14.1094 2.96875,-13.7708 2.65625,-13.3125 C2.6875,-13.3229 2.71354,-13.3307 2.73438,-13.3359 C2.75521,-13.3411 2.78125,-13.3438 2.8125,-13.3438 C3.15625,-13.3438 3.44271,-13.224 3.67188,-12.9844 C3.90104,-12.7448 4.01563,-12.4583 4.01563,-12.125 C4.01563,-11.7917 3.90104,-11.5052 3.67188,-11.2656 C3.44271,-11.026 3.15625,-10.9063 2.8125,-10.9063 C2.46875,-10.9063 2.17708,-11.026 1.9375,-11.2656 C1.69792,-11.5052 1.57813,-11.7917 1.57813,-12.125 C1.57813,-12.7813 1.77865,-13.3516 2.17969,-13.8359 C2.58073,-14.3203 3.09375,-14.6875 3.71875,-14.9375 C4.34375,-15.1875 4.96875,-15.3125 5.59375,-15.3125 C6.0625,-15.3125 6.55469,-15.2448 7.07031,-15.1094 C7.58594,-14.974 8.05208,-14.776 8.46875,-14.5156 C8.88542,-14.2552 9.22656,-13.9245 9.49219,-13.5234 C9.75781,-13.1224 9.89063,-12.6615 9.89063,-12.1406 C9.89063,-11.4948 9.7474,-10.8984 9.46094,-10.3516 C9.17448,-9.80469 8.78125,-9.33333 8.28125,-8.9375 C7.78125,-8.54167 7.22917,-8.25 6.625,-8.0625 C7.29167,-7.92708 7.92448,-7.67448 8.52344,-7.30469 C9.1224,-6.9349 9.60417,-6.45573 9.96875,-5.86719 C10.3333,-5.27865 10.5156,-4.65104 10.5156,-3.98438 C10.5156,-3.13021 10.2839,-2.36198 9.82031,-1.67969 C9.35677,-0.997396 8.74479,-0.463542 7.98438,-0.078125 C7.22396,0.307292 6.42708,0.5 5.59375,0.5 C4.875,0.5 4.15365,0.364583 3.42969,0.09375 C2.70573,-0.177083 2.11458,-0.585938 1.65625,-1.13281 C1.19792,-1.67969 0.96875,-2.33854 0.96875,-3.10938 C0.96875,-3.49479 1.09635,-3.8151 1.35156,-4.07031 C1.60677,-4.32552 1.92188,-4.45313 2.29688,-4.45313 C2.54688,-4.45313 2.77604,-4.39323 2.98438,-4.27344 C3.19271,-4.15365 3.35417,-3.98958 3.46875,-3.78125 C3.58333,-3.57292 3.64063,-3.34896 3.64063,-3.10938 C3.64063,-2.73438 3.51042,-2.41927 3.25,-2.16406 C2.98958,-1.90885 2.67188,-1.78125 2.29688,-1.78125 L2.1875,-1.78125"/>
</g>

<g fill="#212121" fill-opacity="1" stroke="none" transform="matrix(0.428571,0,0,0.428571,31.0793,187.306)"
font-family="MS Shell Dlg 2" font-size="8.14286" font-weight="400" font-style="normal" 
>
<path vector-effect="none" fill-rule="evenodd" d="M1.9375,-1.26563 C1.9375,-1.60938 2.0651,-1.90625 2.32031,-2.15625 C2.57552,-2.40625 2.86979,-2.53125 3.20313,-2.53125 C3.41146,-2.53125 3.61719,-2.47396 3.82031,-2.35938 C4.02344,-2.24479 4.17969,-2.08594 4.28906,-1.88281 C4.39844,-1.67969 4.45313,-1.47396 4.45313,-1.26563 C4.45313,-0.932292 4.33073,-0.638021 4.08594,-0.382813 C3.84115,-0.127604 3.54688,0 3.20313,0 C2.86979,0 2.57552,-0.127604 2.32031,-0.382813 C2.0651,-0.638021 1.9375,-0.932292 1.9375,-1.26563 "/>
</g>

<g fill="#212121" fill-opacity="1" stroke="none" transform="matrix(0.428571,0,0,0.428571,33.8571,187.306)"
font-family="MS Shell Dlg 2" font-size="8.14286" font-weight="400" font-style="normal" 
>
<path vector-effect="none" fill-rule="evenodd" d="M2,-2.625 C2.15625,-2.17708 2.39844,-1.77083 2.72656,-1.40625 C3.05469,-1.04167 3.4401,-0.755208 3.88281,-0.546875 C4.32552,-0.338542 4.78646,-0.234375 5.26563,-0.234375 C6.36979,-0.234375 7.13281,-0.664063 7.55469,-1.52344 C7.97656,-2.38281 8.1875,-3.42708 8.1875,-4.65625 C8.1875,-5.1875 8.17708,-5.63542 8.15625,-6 C8.13542,-6.36458 8.08333,-6.71354 8,-7.04688 C7.86458,-7.58854 7.61979,-8.0599 7.26563,-8.46094 C6.91146,-8.86198 6.47396,-9.0625 5.95313,-9.0625 C5.43229,-9.0625 4.98698,-8.98438 4.61719,-8.82813 C4.2474,-8.67188 3.94792,-8.48958 3.71875,-8.28125 C3.48958,-8.07292 3.28385,-7.85156 3.10156,-7.61719 C2.91927,-7.38281 2.80729,-7.26042 2.76563,-7.25 L2.5,-7.25 C2.46875,-7.25 2.42448,-7.27344 2.36719,-7.32031 C2.3099,-7.36719 2.28125,-7.41146 2.28125,-7.45313 L2.28125,-15.1406 C2.28125,-15.1719 2.30469,-15.2083 2.35156,-15.25 C2.39844,-15.2917 2.44792,-15.3125 2.5,-15.3125 L2.57813,-15.3125 C3.60938,-14.8229 4.70313,-14.5781 5.85938,-14.5781 C6.99479,-14.5781 8.09375,-14.8229 9.15625,-15.3125 L9.21875,-15.3125 C9.27083,-15.3125 9.32031,-15.2943 9.36719,-15.2578 C9.41406,-15.2214 9.4375,-15.1823 9.4375,-15.1406 L9.4375,-14.9219 C9.4375,-14.849 9.42188,-14.8125 9.39063,-14.8125 C8.86979,-14.1146 8.21354,-13.5703 7.42188,-13.1797 C6.63021,-12.7891 5.8125,-12.5938 4.96875,-12.5938 C4.35417,-12.5938 3.72396,-12.6823 3.07813,-12.8594 L3.07813,-8.51563 C3.58854,-8.92188 4.04427,-9.21354 4.44531,-9.39063 C4.84635,-9.56771 5.35417,-9.65625 5.96875,-9.65625 C6.82292,-9.65625 7.58333,-9.41406 8.25,-8.92969 C8.91667,-8.44531 9.42969,-7.8099 9.78906,-7.02344 C10.1484,-6.23698 10.3281,-5.4375 10.3281,-4.625 C10.3281,-3.70833 10.1016,-2.85677 9.64844,-2.07031 C9.19531,-1.28385 8.58073,-0.658854 7.80469,-0.195313 C7.02865,0.268229 6.18229,0.5 5.26563,0.5 C4.51563,0.5 3.82292,0.307292 3.1875,-0.078125 C2.55208,-0.463542 2.05208,-0.986979 1.6875,-1.64844 C1.32292,-2.3099 1.14063,-3.01042 1.14063,-3.75 C1.14063,-4.09375 1.2526,-4.375 1.47656,-4.59375 C1.70052,-4.8125 1.98438,-4.92188 2.32813,-4.92188 C2.66146,-4.92188 2.94271,-4.8125 3.17188,-4.59375 C3.40104,-4.375 3.51563,-4.09375 3.51563,-3.75 C3.51563,-3.42708 3.40104,-3.15104 3.17188,-2.92188 C2.94271,-2.69271 2.66146,-2.57813 2.32813,-2.57813 C2.27604,-2.57813 2.21615,-2.58333 2.14844,-2.59375 C2.08073,-2.60417 2.03125,-2.61458 2,-2.625 "/>
</g>

<g fill="#212121" fill-opacity="1" stroke="none" transform="matrix(0.428571,0,0,0.428571,30.5238,158.683)"
font-family="MS Shell Dlg 2" font-size="8.14286" font-weight="400" font-style="normal" 
>
<path vector-effect="none" fill-rule="evenodd" d="M0.265625,-4.25 L0.265625,-5.6875 L6.34375,-5.6875 L6.34375,-4.25 L0.265625,-4.25"/>
</g>

<g fill="#212121" fill-opacity="1" stroke="none" transform="matrix(0.428571,0,0,0.428571,33.8571,158.683)"
font-family="MS Shell Dlg 2" font-size="8.14286" font-weight="400" font-style="normal" 
>
<path vector-effect="none" fill-rule="evenodd" d="M2.1875,-1.78125 C2.55208,-1.26042 3.03646,-0.872396 3.64063,-0.617188 C4.24479,-0.361979 4.89583,-0.234375 5.59375,-0.234375 C6.47917,-0.234375 7.10938,-0.614583 7.48438,-1.375 C7.85938,-2.13542 8.04688,-3 8.04688,-3.96875 C8.04688,-4.39583 8.00781,-4.82813 7.92969,-5.26563 C7.85156,-5.70313 7.71875,-6.10938 7.53125,-6.48438 C7.34375,-6.85938 7.08854,-7.15885 6.76563,-7.38281 C6.44271,-7.60677 6.04688,-7.71875 5.57813,-7.71875 L4.04688,-7.71875 C3.91146,-7.71875 3.84375,-7.78646 3.84375,-7.92188 L3.84375,-8.125 C3.84375,-8.23958 3.91146,-8.29688 4.04688,-8.29688 L5.3125,-8.40625 C5.85417,-8.40625 6.30208,-8.60677 6.65625,-9.00781 C7.01042,-9.40885 7.27083,-9.90104 7.4375,-10.4844 C7.60417,-11.0677 7.6875,-11.6198 7.6875,-12.1406 C7.6875,-12.8698 7.51563,-13.4714 7.17188,-13.9453 C6.82813,-14.4193 6.30208,-14.6563 5.59375,-14.6563 C5.01042,-14.6563 4.45313,-14.5469 3.92188,-14.3281 C3.39063,-14.1094 2.96875,-13.7708 2.65625,-13.3125 C2.6875,-13.3229 2.71354,-13.3307 2.73438,-13.3359 C2.75521,-13.3411 2.78125,-13.3438 2.8125,-13.3438 C3.15625,-13.3438 3.44271,-13.224 3.67188,-12.9844 C3.90104,-12.7448 4.01563,-12.4583 4.01563,-12.125 C4.01563,-11.7917 3.90104,-11.5052 3.67188,-11.2656 C3.44271,-11.026 3.15625,-10.9063 2.8125,-10.9063 C2.46875,-10.9063 2.17708,-11.026 1.9375,-11.2656 C1.69792,-11.5052 1.57813,-11.7917 1.57813,-12.125 C1.57813,-12.7813 1.77865,-13.3516 2.17969,-13.8359 C2.58073,-14.3203 3.09375,-14.6875 3.71875,-14.9375 C4.34375,-15.1875 4.96875,-15.3125 5.59375,-15.3125 C6.0625,-15.3125 6.55469,-15.2448 7.07031,-15.1094 C7.58594,-14.974 8.05208,-14.776 8.46875,-14.5156 C8.88542,-14.2552 9.22656,-13.9245 9.49219,-13.5234 C9.75781,-13.1224 9.89063,-12.6615 9.89063,-12.1406 C9.89063,-11.4948 9.7474,-10.8984 9.46094,-10.3516 C9.17448,-9.80469 8.78125,-9.33333 8.28125,-8.9375 C7.78125,-8.54167 7.22917,-8.25 6.625,-8.0625 C7.29167,-7.92708 7.92448,-7.67448 8.52344,-7.30469 C9.1224,-6.9349 9.60417,-6.45573 9.96875,-5.86719 C10.3333,-5.27865 10.5156,-4.65104 10.5156,-3.98438 C10.5156,-3.13021 10.2839,-2.36198 9.82031,-1.67969 C9.35677,-0.997396 8.74479,-0.463542 7.98438,-0.078125 C7.22396,0.307292 6.42708,0.5 5.59375,0.5 C4.875,0.5 4.15365,0.364583 3.42969,0.09375 C2.70573,-0.177083 2.11458,-0.585938 1.65625,-1.13281 C1.19792,-1.67969 0.96875,-2.33854 0.96875,-3.10938 C0.96875,-3.49479 1.09635,-3.8151 1.35156,-4.07031 C1.60677,-4.32552 1.92188,-4.45313 2.29688,-4.45313 C2.54688,-4.45313 2.77604,-4.39323 2.98438,-4.27344 C3.19271,-4.15365 3.35417,-3.98958 3.46875,-3.78125 C3.58333,-3.57292 3.64063,-3.34896 3.64063,-3.10938 C3.64063,-2.73438 3.51042,-2.41927 3.25,-2.16406 C2.98958,-1.90885 2.67188,-1.78125 2.29688,-1.78125 L2.1875,-1.78125"/>
</g>

<g fill="#212121" fill-opacity="1" stroke="none" transform="matrix(0.428571,0,0,0.428571,22.746,130.061)"
font-family="MS Shell Dlg 2" font-size="8.14286" font-weight="400" font-style="normal" 
>
<path vector-effect="none" fill-rule="evenodd" d="M0.265625,-4.25 L0.265625,-5.6875 L6.34375,-5.6875 L6.34375,-4.25 L0.265625,-4.25"/>
</g>

<g fill="#212121" fill-opacity="1" stroke="none" transform="matrix(0.428571,0,0,0.428571,26.0793,130.061)"
font-family="MS Shell Dlg 2" font-size="8.14286" font-weight="400" font-style="normal" 
>
<path vector-effect="none" fill-rule="evenodd" d="M1.14063,0 L1.14063,-0.625 C1.14063,-0.65625 1.15625,-0.692708 1.1875,-0.734375 L4.76563,-4.6875 C5.30729,-5.28125 5.74479,-5.77604 6.07813,-6.17188 C6.41146,-6.56771 6.74219,-7.02344 7.07031,-7.53906 C7.39844,-8.05469 7.65885,-8.58073 7.85156,-9.11719 C8.04427,-9.65365 8.14063,-10.2188 8.14063,-10.8125 C8.14063,-11.4479 8.02604,-12.0521 7.79688,-12.625 C7.56771,-13.1979 7.22135,-13.6563 6.75781,-14 C6.29427,-14.3438 5.73958,-14.5156 5.09375,-14.5156 C4.42708,-14.5156 3.82813,-14.3151 3.29688,-13.9141 C2.76563,-13.513 2.39063,-12.9948 2.17188,-12.3594 C2.22396,-12.3698 2.30729,-12.375 2.42188,-12.375 C2.76563,-12.375 3.05729,-12.2604 3.29688,-12.0313 C3.53646,-11.8021 3.65625,-11.5 3.65625,-11.125 C3.65625,-10.7813 3.53646,-10.487 3.29688,-10.2422 C3.05729,-9.9974 2.76563,-9.875 2.42188,-9.875 C2.05729,-9.875 1.7526,-10 1.50781,-10.25 C1.26302,-10.5 1.14063,-10.7917 1.14063,-11.125 C1.14063,-11.7083 1.25,-12.2526 1.46875,-12.7578 C1.6875,-13.263 2,-13.7109 2.40625,-14.1016 C2.8125,-14.4922 3.27344,-14.7917 3.78906,-15 C4.30469,-15.2083 4.84896,-15.3125 5.42188,-15.3125 C6.29688,-15.3125 7.11198,-15.1276 7.86719,-14.7578 C8.6224,-14.388 9.22135,-13.8646 9.66406,-13.1875 C10.1068,-12.5104 10.3281,-11.7188 10.3281,-10.8125 C10.3281,-10.1458 10.1823,-9.51302 9.89063,-8.91406 C9.59896,-8.3151 9.22656,-7.77083 8.77344,-7.28125 C8.32031,-6.79167 7.73698,-6.23698 7.02344,-5.61719 C6.3099,-4.9974 5.83854,-4.58333 5.60938,-4.375 L3.01563,-1.85938 L5.21875,-1.85938 C6.30208,-1.85938 7.21094,-1.86979 7.94531,-1.89063 C8.67969,-1.91146 9.06771,-1.94271 9.10938,-1.98438 C9.28646,-2.17188 9.46875,-2.875 9.65625,-4.09375 L10.3281,-4.09375 L9.6875,0 L1.14063,0"/>
</g>

<g fill="#212121" fill-opacity="1" stroke="none" transform="matrix(0.428571,0,0,0.428571,31.0793,130.061)"
font-family="MS Shell Dlg 2" font-size="8.14286" font-weight="400" font-style="normal" 
>
<path vector-effect="none" fill-rule="evenodd" d="M1.9375,-1.26563 C1.9375,-1.60938 2.0651,-1.90625 2.32031,-2.15625 C2.57552,-2.40625 2.86979,-2.53125 3.20313,-2.53125 C3.41146,-2.53125 3.61719,-2.47396 3.82031,-2.35938 C4.02344,-2.24479 4.17969,-2.08594 4.28906,-1.88281 C4.39844,-1.67969 4.45313,-1.47396 4.45313,-1.26563 C4.45313,-0.932292 4.33073,-0.638021 4.08594,-0.382813 C3.84115,-0.127604 3.54688,0 3.20313,0 C2.86979,0 2.57552,-0.127604 2.32031,-0.382813 C2.0651,-0.638021 1.9375,-0.932292 1.9375,-1.26563 "/>
</g>

<g fill="#212121" fill-opacity="1" stroke="none" transform="matrix(0.428571,0,0,0.428571,33.8571,130.061)"
font-family="MS Shell Dlg 2" font-size="8.14286" font-weight="400" font-style="normal" 
>
<path vector-effect="none" fill-rule="evenodd" d="M2,-2.625 C2.15625,-2.17708 2.39844,-1.77083 2.72656,-1.40625 C3.05469,-1.04167 3.4401,-0.755208 3.88281,-0.546875 C4.32552,-0.338542 4.78646,-0.234375 5.26563,-0.234375 C6.36979,-0.234375 7.13281,-0.664063 7.55469,-1.52344 C7.97656,-2.38281 8.1875,-3.42708 8.1875,-4.65625 C8.1875,-5.1875 8.17708,-5.63542 8.15625,-6 C8.13542,-6.36458 8.08333,-6.71354 8,-7.04688 C7.86458,-7.58854 7.61979,-8.0599 7.26563,-8.46094 C6.91146,-8.86198 6.47396,-9.0625 5.95313,-9.0625 C5.43229,-9.0625 4.98698,-8.98438 4.61719,-8.82813 C4.2474,-8.67188 3.94792,-8.48958 3.71875,-8.28125 C3.48958,-8.07292 3.28385,-7.85156 3.10156,-7.61719 C2.91927,-7.38281 2.80729,-7.26042 2.76563,-7.25 L2.5,-7.25 C2.46875,-7.25 2.42448,-7.27344 2.36719,-7.32031 C2.3099,-7.36719 2.28125,-7.41146 2.28125,-7.45313 L2.28125,-15.1406 C2.28125,-15.1719 2.30469,-15.2083 2.35156,-15.25 C2.39844,-15.2917 2.44792,-15.3125 2.5,-15.3125 L2.57813,-15.3125 C3.60938,-14.8229 4.70313,-14.5781 5.85938,-14.5781 C6.99479,-14.5781 8.09375,-14.8229 9.15625,-15.3125 L9.21875,-15.3125 C9.27083,-15.3125 9.32031,-15.2943 9.36719,-15.2578 C9.41406,-15.2214 9.4375,-15.1823 9.4375,-15.1406 L9.4375,-14.9219 C9.4375,-14.849 9.42188,-14.8125 9.39063,-14.8125 C8.86979,-14.1146 8.21354,-13.5703 7.42188,-13.1797 C6.63021,-12.7891 5.8125,-12.5938 4.96875,-12.5938 C4.35417,-12.5938 3.72396,-12.6823 3.07813,-12.8594 L3.07813,-8.51563 C3.58854,-8.92188 4.04427,-9.21354 4.44531,-9.39063 C4.84635,-9.56771 5.35417,-9.65625 5.96875,-9.65625 C6.82292,-9.65625 7.58333,-9.41406 8.25,-8.92969 C8.91667,-8.44531 9.42969,-7.8099 9.78906,-7.02344 C10.1484,-6.23698 10.3281,-5.4375 10.3281,-4.625 C10.3281,-3.70833 10.1016,-2.85677 9.64844,-2.07031 C9.19531,-1.28385 8.58073,-0.658854 7.80469,-0.195313 C7.02865,0.268229 6.18229,0.5 5.26563,0.5 C4.51563,0.5 3.82292,0.307292 3.1875,-0.078125 C2.55208,-0.463542 2.05208,-0.986979 1.6875,-1.64844 C1.32292,-2.3099 1.14063,-3.01042 1.14063,-3.75 C1.14063,-4.09375 1.2526,-4.375 1.47656,-4.59375 C1.70052,-4.8125 1.98438,-4.92188 2.32813,-4.92188 C2.66146,-4.92188 2.94271,-4.8125 3.17188,-4.59375 C3.40104,-4.375 3.51563,-4.09375 3.51563,-3.75 C3.51563,-3.42708 3.40104,-3.15104 3.17188,-2.92188 C2.94271,-2.69271 2.66146,-2.57813 2.32813,-2.57813 C2.27604,-2.57813 2.21615,-2.58333 2.14844,-2.59375 C2.08073,-2.60417 2.03125,-2.61458 2,-2.625 "/>
</g>

<g fill="#212121" fill-opacity="1" stroke="none" transform="matrix(0.428571,0,0,0.428571,30.5238,101.438)"
font-family="MS Shell Dlg 2" font-size="8.14286" font-weight="400" font-style="normal" 
>
<path vector-effect="none" fill-rule="evenodd" d="M0.265625,-4.25 L0.265625,-5.6875 L6.34375,-5.6875 L6.34375,-4.25 L0.265625,-4.25"/>
</g>

<g fill="#212121" fill-opacity="1" stroke="none" transform="matrix(0.428571,0,0,0.428571,33.8571,101.438)"
font-family="MS Shell Dlg 2" font-size="8.14286" font-weight="400" font-style="normal" 
>
<path vector-effect="none" fill-rule="evenodd" d="M1.14063,0 L1.14063,-0.625 C1.14063,-0.65625 1.15625,-0.692708 1.1875,-0.734375 L4.76563,-4.6875 C5.30729,-5.28125 5.74479,-5.77604 6.07813,-6.17188 C6.41146,-6.56771 6.74219,-7.02344 7.07031,-7.53906 C7.39844,-8.05469 7.65885,-8.58073 7.85156,-9.11719 C8.04427,-9.65365 8.14063,-10.2188 8.14063,-10.8125 C8.14063,-11.4479 8.02604,-12.0521 7.79688,-12.625 C7.56771,-13.1979 7.22135,-13.6563 6.75781,-14 C6.29427,-14.3438 5.73958,-14.5156 5.09375,-14.5156 C4.42708,-14.5156 3.82813,-14.3151 3.29688,-13.9141 C2.76563,-13.513 2.39063,-12.9948 2.17188,-12.3594 C2.22396,-12.3698 2.30729,-12.375 2.42188,-12.375 C2.76563,-12.375 3.05729,-12.2604 3.29688,-12.0313 C3.53646,-11.8021 3.65625,-11.5 3.65625,-11.125 C3.65625,-10.7813 3.53646,-10.487 3.29688,-10.2422 C3.05729,-9.9974 2.76563,-9.875 2.42188,-9.875 C2.05729,-9.875 1.7526,-10 1.50781,-10.25 C1.26302,-10.5 1.14063,-10.7917 1.14063,-11.125 C1.14063,-11.7083 1.25,-12.2526 1.46875,-12.7578 C1.6875,-13.263 2,-13.7109 2.40625,-14.1016 C2.8125,-14.4922 3.27344,-14.7917 3.78906,-15 C4.30469,-15.2083 4.84896,-15.3125 5.42188,-15.3125 C6.29688,-15.3125 7.11198,-15.1276 7.86719,-14.7578 C8.6224,-14.388 9.22135,-13.8646 9.66406,-13.1875 C10.1068,-12.5104 10.3281,-11.7188 10.3281,-10.8125 C10.3281,-10.1458 10.1823,-9.51302 9.89063,-8.91406 C9.59896,-8.3151 9.22656,-7.77083 8.77344,-7.28125 C8.32031,-6.79167 7.73698,-6.23698 7.02344,-5.61719 C6.3099,-4.9974 5.83854,-4.58333 5.60938,-4.375 L3.01563,-1.85938 L5.21875,-1.85938 C6.30208,-1.85938 7.21094,-1.86979 7.94531,-1.89063 C8.67969,-1.91146 9.06771,-1.94271 9.10938,-1.98438 C9.28646,-2.17188 9.46875,-2.875 9.65625,-4.09375 L10.3281,-4.09375 L9.6875,0 L1.14063,0"/>
</g>

<g fill="#212121" fill-opacity="1" stroke="none" transform="matrix(0.428571,0,0,0.428571,22.746,72.816)"
font-family="MS Shell Dlg 2" font-size="8.14286" font-weight="400" font-style="normal" 
>
<path vector-effect="none" fill-rule="evenodd" d="M0.265625,-4.25 L0.265625,-5.6875 L6.34375,-5.6875 L6.34375,-4.25 L0.265625,-4.25"/>
</g>

<g fill="#212121" fill-opacity="1" stroke="none" transform="matrix(0.428571,0,0,0.428571,26.0793,72.816)"
font-family="MS Shell Dlg 2" font-size="8.14286" font-weight="400" font-style="normal" 
>
<path vector-effect="none" fill-rule="evenodd" d="M2.14063,0 L2.14063,-0.8125 C4.05729,-0.8125 5.01563,-1.05208 5.01563,-1.53125 L5.01563,-13.6094 C4.21354,-13.224 3.20833,-13.0313 2,-13.0313 L2,-13.8438 C3.875,-13.8438 5.29167,-14.3333 6.25,-15.3125 L6.57813,-15.3125 C6.63021,-15.3125 6.68229,-15.2917 6.73438,-15.25 C6.78646,-15.2083 6.8125,-15.1615 6.8125,-15.1094 L6.8125,-1.53125 C6.8125,-1.05208 7.77083,-0.8125 9.6875,-0.8125 L9.6875,0 L2.14063,0"/>
</g>

<g fill="#212121" fill-opacity="1" stroke="none" transform="matrix(0.428571,0,0,0.428571,31.0793,72.816)"
font-family="MS Shell Dlg 2" font-size="8.14286" font-weight="400" font-style="normal" 
>
<path vector-effect="none" fill-rule="evenodd" d="M1.9375,-1.26563 C1.9375,-1.60938 2.0651,-1.90625 2.32031,-2.15625 C2.57552,-2.40625 2.86979,-2.53125 3.20313,-2.53125 C3.41146,-2.53125 3.61719,-2.47396 3.82031,-2.35938 C4.02344,-2.24479 4.17969,-2.08594 4.28906,-1.88281 C4.39844,-1.67969 4.45313,-1.47396 4.45313,-1.26563 C4.45313,-0.932292 4.33073,-0.638021 4.08594,-0.382813 C3.84115,-0.127604 3.54688,0 3.20313,0 C2.86979,0 2.57552,-0.127604 2.32031,-0.382813 C2.0651,-0.638021 1.9375,-0.932292 1.9375,-1.26563 "/>
</g>

<g fill="#212121" fill-opacity="1" stroke="none" transform="matrix(0.428571,0,0,0.428571,33.8571,72.816)"
font-family="MS Shell Dlg 2" font-size="8.14286" font-weight="400" font-style="normal" 
>
<path vector-effect="none" fill-rule="evenodd" d="M2,-2.625 C2.15625,-2.17708 2.39844,-1.77083 2.72656,-1.40625 C3.05469,-1.04167 3.4401,-0.755208 3.88281,-0.546875 C4.32552,-0.338542 4.78646,-0.234375 5.26563,-0.234375 C6.36979,-0.234375 7.13281,-0.664063 7.55469,-1.52344 C7.97656,-2.38281 8.1875,-3.42708 8.1875,-4.65625 C8.1875,-5.1875 8.17708,-5.63542 8.15625,-6 C8.13542,-6.36458 8.08333,-6.71354 8,-7.04688 C7.86458,-7.58854 7.61979,-8.0599 7.26563,-8.46094 C6.91146,-8.86198 6.47396,-9.0625 5.95313,-9.0625 C5.43229,-9.0625 4.98698,-8.98438 4.61719,-8.82813 C4.2474,-8.67188 3.94792,-8.48958 3.71875,-8.28125 C3.48958,-8.07292 3.28385,-7.85156 3.10156,-7.61719 C2.91927,-7.38281 2.80729,-7.26042 2.76563,-7.25 L2.5,-7.25 C2.46875,-7.25 2.42448,-7.27344 2.36719,-7.32031 C2.3099,-7.36719 2.28125,-7.41146 2.28125,-7.45313 L2.28125,-15.1406 C2.28125,-15.1719 2.30469,-15.2083 2.35156,-15.25 C2.39844,-15.2917 2.44792,-15.3125 2.5,-15.3125 L2.57813,-15.3125 C3.60938,-14.8229 4.70313,-14.5781 5.85938,-14.5781 C6.99479,-14.5781 8.09375,-14.8229 9.15625,-15.3125 L9.21875,-15.3125 C9.27083,-15.3125 9.32031,-15.2943 9.36719,-15.2578 C9.41406,-15.2214 9.4375,-15.1823 9.4375,-15.1406 L9.4375,-14.9219 C9.4375,-14.849 9.42188,-14.8125 9.39063,-14.8125 C8.86979,-14.1146 8.21354,-13.5703 7.42188,-13.1797 C6.63021,-12.7891 5.8125,-12.5938 4.96875,-12.5938 C4.35417,-12.5938 3.72396,-12.6823 3.07813,-12.8594 L3.07813,-8.51563 C3.58854,-8.92188 4.04427,-9.21354 4.44531,-9.39063 C4.84635,-9.56771 5.35417,-9.65625 5.96875,-9.65625 C6.82292,-9.65625 7.58333,-9.41406 8.25,-8.92969 C8.91667,-8.44531 9.42969,-7.8099 9.78906,-7.02344 C10.1484,-6.23698 10.3281,-5.4375 10.3281,-4.625 C10.3281,-3.70833 10.1016,-2.85677 9.64844,-2.07031 C9.19531,-1.28385 8.58073,-0.658854 7.80469,-0.195313 C7.02865,0.268229 6.18229,0.5 5.26563,0.5 C4.51563,0.5 3.82292,0.307292 3.1875,-0.078125 C2.55208,-0.463542 2.05208,-0.986979 1.6875,-1.64844 C1.32292,-2.3099 1.14063,-3.01042 1.14063,-3.75 C1.14063,-4.09375 1.2526,-4.375 1.47656,-4.59375 C1.70052,-4.8125 1.98438,-4.92188 2.32813,-4.92188 C2.66146,-4.92188 2.94271,-4.8125 3.17188,-4.59375 C3.40104,-4.375 3.51563,-4.09375 3.51563,-3.75 C3.51563,-3.42708 3.40104,-3.15104 3.17188,-2.92188 C2.94271,-2.69271 2.66146,-2.57813 2.32813,-2.57813 C2.27604,-2.57813 2.21615,-2.58333 2.14844,-2.59375 C2.08073,-2.60417 2.03125,-2.61458 2,-2.625 "/>
</g>

<g fill="#212121" fill-opacity="1" stroke="none" transform="matrix(0.428571,0,0,0.428571,30.5238,44.1935)"
font-family="MS Shell Dlg 2" font-size="8.14286" font-weight="400" font-style="normal" 
>
<path vector-effect="none" fill-rule="evenodd" d="M0.265625,-4.25 L0.265625,-5.6875 L6.34375,-5.6875 L6.34375,-4.25 L0.265625,-4.25"/>
</g>

<g fill="#212121" fill-opacity="1" stroke="none" transform="matrix(0.428571,0,0,0.428571,33.8571,44.1935)"
font-family="MS Shell Dlg 2" font-size="8.14286" font-weight="400" font-style="normal" 
>
<path vector-effect="none" fill-rule="evenodd" d="M2.14063,0 L2.14063,-0.8125 C4.05729,-0.8125 5.01563,-1.05208 5.01563,-1.53125 L5.01563,-13.6094 C4.21354,-13.224 3.20833,-13.0313 2,-13.0313 L2,-13.8438 C3.875,-13.8438 5.29167,-14.3333 6.25,-15.3125 L6.57813,-15.3125 C6.63021,-15.3125 6.68229,-15.2917 6.73438,-15.25 C6.78646,-15.2083 6.8125,-15.1615 6.8125,-15.1094 L6.8125,-1.53125 C6.8125,-1.05208 7.77083,-0.8125 9.6875,-0.8125 L9.6875,0 L2.14063,0"/>
</g>
</g>
</svg>
