<?xml version="1.0" encoding="UTF-8" standalone="no"?>
<svg width="455.083mm" height="288.925mm"
 viewBox="0 0 1290 819"
 xmlns="http://www.w3.org/2000/svg" xmlns:xlink="http://www.w3.org/1999/xlink"  version="1.2" baseProfile="tiny">
<title>Qt SVG Document</title>
<desc>MATLAB, The MathWorks, Inc. Version 25.1.0.2943329 R2025a</desc>
<defs>
</defs>
<g fill="none" stroke="black" stroke-width="1" fill-rule="evenodd" stroke-linecap="square" stroke-linejoin="bevel" >

<g fill="#000000" fill-opacity="1" stroke="none" transform="matrix(0.43393,0,0,0.434125,-189.718,-72.048)"
font-family="MS Shell Dlg 2" font-size="6.85714" font-weight="400" font-style="normal" 
>
<path vector-effect="none" fill-rule="evenodd" d="M436,165 L3409,165 L3409,2050 L436,2050 L436,165"/>
</g>

<g fill="#121212" fill-opacity="1" stroke="none" transform="matrix(4.3393e-05,0,0,4.34125e-05,-189.718,-72.048)"
font-family="MS Shell Dlg 2" font-size="6.85714" font-weight="400" font-style="normal" 
>
<path vector-effect="none" fill-rule="evenodd" d="M4.89e+06,1.7e+06 L4.89e+06,2.017e+07 L3.406e+07,2.017e+07 L3.406e+07,1.7e+06 L4.89e+06,1.7e+06"/>
</g>

<g fill="#d9d9d9" fill-opacity="1" stroke="#d9d9d9" stroke-opacity="1" stroke-width="1.16667" stroke-linecap="square" stroke-linejoin="round" transform="matrix(0.43393,0,0,0.434125,-189.718,-72.048)"
font-family="MS Shell Dlg 2" font-size="6.85714" font-weight="400" font-style="normal" 
>
<polyline fill="none" vector-effect="none" points="489,2017 3406,2017 " />
<polyline fill="none" vector-effect="none" points="489,170 3406,170 " />
<polyline fill="none" vector-effect="none" points="856.689,2017 856.689,1987.83 " />
<polyline fill="none" vector-effect="none" points="856.689,199.17 856.689,170 " />
<polyline fill="none" vector-effect="none" points="1273.4,2017 1273.4,1987.83 " />
<polyline fill="none" vector-effect="none" points="1273.4,199.17 1273.4,170 " />
<polyline fill="none" vector-effect="none" points="1690.12,2017 1690.12,1987.83 " />
<polyline fill="none" vector-effect="none" points="1690.12,199.17 1690.12,170 " />
<polyline fill="none" vector-effect="none" points="2106.83,2017 2106.83,1987.83 " />
<polyline fill="none" vector-effect="none" points="2106.83,199.17 2106.83,170 " />
<polyline fill="none" vector-effect="none" points="2523.55,2017 2523.55,1987.83 " />
<polyline fill="none" vector-effect="none" points="2523.55,199.17 2523.55,170 " />
<polyline fill="none" vector-effect="none" points="2940.26,2017 2940.26,1987.83 " />
<polyline fill="none" vector-effect="none" points="2940.26,199.17 2940.26,170 " />
<polyline fill="none" vector-effect="none" points="3356.97,2017 3356.97,1987.83 " />
<polyline fill="none" vector-effect="none" points="3356.97,199.17 3356.97,170 " />
</g>

<g fill="#d9d9d9" fill-opacity="1" stroke="#d9d9d9" stroke-opacity="1" stroke-width="1" stroke-linecap="square" stroke-linejoin="bevel" transform="matrix(0.43393,0,0,0.434125,179.204,816.75)"
font-family="Helvetica" font-size="23" font-weight="400" font-style="normal" 
>
<text fill="#d9d9d9" fill-opacity="1" stroke="none" xml:space="preserve" x="0" y="0" font-family="Helvetica" font-size="23" font-weight="400" font-style="normal" 
 >2</text>
</g>

<g fill="#d9d9d9" fill-opacity="1" stroke="#d9d9d9" stroke-opacity="1" stroke-width="1" stroke-linecap="square" stroke-linejoin="bevel" transform="matrix(0.43393,0,0,0.434125,360.029,816.75)"
font-family="Helvetica" font-size="23" font-weight="400" font-style="normal" 
>
<text fill="#d9d9d9" fill-opacity="1" stroke="none" xml:space="preserve" x="0" y="0" font-family="Helvetica" font-size="23" font-weight="400" font-style="normal" 
 >3</text>
</g>

<g fill="#d9d9d9" fill-opacity="1" stroke="#d9d9d9" stroke-opacity="1" stroke-width="1" stroke-linecap="square" stroke-linejoin="bevel" transform="matrix(0.43393,0,0,0.434125,540.853,816.75)"
font-family="Helvetica" font-size="23" font-weight="400" font-style="normal" 
>
<text fill="#d9d9d9" fill-opacity="1" stroke="none" xml:space="preserve" x="0" y="0" font-family="Helvetica" font-size="23" font-weight="400" font-style="normal" 
 >4</text>
</g>

<g fill="#d9d9d9" fill-opacity="1" stroke="#d9d9d9" stroke-opacity="1" stroke-width="1" stroke-linecap="square" stroke-linejoin="bevel" transform="matrix(0.43393,0,0,0.434125,721.678,816.75)"
font-family="Helvetica" font-size="23" font-weight="400" font-style="normal" 
>
<text fill="#d9d9d9" fill-opacity="1" stroke="none" xml:space="preserve" x="0" y="0" font-family="Helvetica" font-size="23" font-weight="400" font-style="normal" 
 >5</text>
</g>

<g fill="#d9d9d9" fill-opacity="1" stroke="#d9d9d9" stroke-opacity="1" stroke-width="1" stroke-linecap="square" stroke-linejoin="bevel" transform="matrix(0.43393,0,0,0.434125,902.503,816.75)"
font-family="Helvetica" font-size="23" font-weight="400" font-style="normal" 
>
<text fill="#d9d9d9" fill-opacity="1" stroke="none" xml:space="preserve" x="0" y="0" font-family="Helvetica" font-size="23" font-weight="400" font-style="normal" 
 >6</text>
</g>

<g fill="#d9d9d9" fill-opacity="1" stroke="#d9d9d9" stroke-opacity="1" stroke-width="1" stroke-linecap="square" stroke-linejoin="bevel" transform="matrix(0.43393,0,0,0.434125,1083.33,816.75)"
font-family="Helvetica" font-size="23" font-weight="400" font-style="normal" 
>
<text fill="#d9d9d9" fill-opacity="1" stroke="none" xml:space="preserve" x="0" y="0" font-family="Helvetica" font-size="23" font-weight="400" font-style="normal" 
 >7</text>
</g>

<g fill="#d9d9d9" fill-opacity="1" stroke="#d9d9d9" stroke-opacity="1" stroke-width="1" stroke-linecap="square" stroke-linejoin="bevel" transform="matrix(0.43393,0,0,0.434125,1264.15,816.75)"
font-family="Helvetica" font-size="23" font-weight="400" font-style="normal" 
>
<text fill="#d9d9d9" fill-opacity="1" stroke="none" xml:space="preserve" x="0" y="0" font-family="Helvetica" font-size="23" font-weight="400" font-style="normal" 
 >8</text>
</g>

<g fill="#d9d9d9" fill-opacity="1" stroke="#d9d9d9" stroke-opacity="1" stroke-width="1.16667" stroke-linecap="square" stroke-linejoin="round" transform="matrix(0.43393,0,0,0.434125,-189.718,-72.048)"
font-family="Helvetica" font-size="23" font-weight="400" font-style="normal" 
>
<polyline fill="none" vector-effect="none" points="489,2017 489,170 " />
<polyline fill="none" vector-effect="none" points="3406,2017 3406,170 " />
<polyline fill="none" vector-effect="none" points="489,1899.66 518.17,1899.66 " />
<polyline fill="none" vector-effect="none" points="3376.83,1899.66 3406,1899.66 " />
<polyline fill="none" vector-effect="none" points="489,1635.8 518.17,1635.8 " />
<polyline fill="none" vector-effect="none" points="3376.83,1635.8 3406,1635.8 " />
<polyline fill="none" vector-effect="none" points="489,1371.94 518.17,1371.94 " />
<polyline fill="none" vector-effect="none" points="3376.83,1371.94 3406,1371.94 " />
<polyline fill="none" vector-effect="none" points="489,1108.08 518.17,1108.08 " />
<polyline fill="none" vector-effect="none" points="3376.83,1108.08 3406,1108.08 " />
<polyline fill="none" vector-effect="none" points="489,844.227 518.17,844.227 " />
<polyline fill="none" vector-effect="none" points="3376.83,844.227 3406,844.227 " />
<polyline fill="none" vector-effect="none" points="489,580.37 518.17,580.37 " />
<polyline fill="none" vector-effect="none" points="3376.83,580.37 3406,580.37 " />
<polyline fill="none" vector-effect="none" points="489,316.513 518.17,316.513 " />
<polyline fill="none" vector-effect="none" points="3376.83,316.513 3406,316.513 " />
</g>

<g fill="#d9d9d9" fill-opacity="1" stroke="#d9d9d9" stroke-opacity="1" stroke-width="1" stroke-linecap="square" stroke-linejoin="bevel" transform="matrix(0.43393,0,0,0.434125,1.06607,756.112)"
font-family="Helvetica" font-size="23" font-weight="400" font-style="normal" 
>
<text fill="#d9d9d9" fill-opacity="1" stroke="none" xml:space="preserve" x="0" y="0" font-family="Helvetica" font-size="23" font-weight="400" font-style="normal" 
 >-3.5</text>
</g>

<g fill="#d9d9d9" fill-opacity="1" stroke="#d9d9d9" stroke-opacity="1" stroke-width="1" stroke-linecap="square" stroke-linejoin="bevel" transform="matrix(0.43393,0,0,0.434125,9.31074,641.566)"
font-family="Helvetica" font-size="23" font-weight="400" font-style="normal" 
>
<text fill="#d9d9d9" fill-opacity="1" stroke="none" xml:space="preserve" x="0" y="0" font-family="Helvetica" font-size="23" font-weight="400" font-style="normal" 
 >-3</text>
</g>

<g fill="#d9d9d9" fill-opacity="1" stroke="#d9d9d9" stroke-opacity="1" stroke-width="1" stroke-linecap="square" stroke-linejoin="bevel" transform="matrix(0.43393,0,0,0.434125,1.06607,527.019)"
font-family="Helvetica" font-size="23" font-weight="400" font-style="normal" 
>
<text fill="#d9d9d9" fill-opacity="1" stroke="none" xml:space="preserve" x="0" y="0" font-family="Helvetica" font-size="23" font-weight="400" font-style="normal" 
 >-2.5</text>
</g>

<g fill="#d9d9d9" fill-opacity="1" stroke="#d9d9d9" stroke-opacity="1" stroke-width="1" stroke-linecap="square" stroke-linejoin="bevel" transform="matrix(0.43393,0,0,0.434125,9.31074,412.472)"
font-family="Helvetica" font-size="23" font-weight="400" font-style="normal" 
>
<text fill="#d9d9d9" fill-opacity="1" stroke="none" xml:space="preserve" x="0" y="0" font-family="Helvetica" font-size="23" font-weight="400" font-style="normal" 
 >-2</text>
</g>

<g fill="#d9d9d9" fill-opacity="1" stroke="#d9d9d9" stroke-opacity="1" stroke-width="1" stroke-linecap="square" stroke-linejoin="bevel" transform="matrix(0.43393,0,0,0.434125,1.06607,297.925)"
font-family="Helvetica" font-size="23" font-weight="400" font-style="normal" 
>
<text fill="#d9d9d9" fill-opacity="1" stroke="none" xml:space="preserve" x="0" y="0" font-family="Helvetica" font-size="23" font-weight="400" font-style="normal" 
 >-1.5</text>
</g>

<g fill="#d9d9d9" fill-opacity="1" stroke="#d9d9d9" stroke-opacity="1" stroke-width="1" stroke-linecap="square" stroke-linejoin="bevel" transform="matrix(0.43393,0,0,0.434125,9.31074,183.378)"
font-family="Helvetica" font-size="23" font-weight="400" font-style="normal" 
>
<text fill="#d9d9d9" fill-opacity="1" stroke="none" xml:space="preserve" x="0" y="0" font-family="Helvetica" font-size="23" font-weight="400" font-style="normal" 
 >-1</text>
</g>

<g fill="#d9d9d9" fill-opacity="1" stroke="#d9d9d9" stroke-opacity="1" stroke-width="1" stroke-linecap="square" stroke-linejoin="bevel" transform="matrix(0.43393,0,0,0.434125,1.06607,68.831)"
font-family="Helvetica" font-size="23" font-weight="400" font-style="normal" 
>
<text fill="#d9d9d9" fill-opacity="1" stroke="none" xml:space="preserve" x="0" y="0" font-family="Helvetica" font-size="23" font-weight="400" font-style="normal" 
 >-0.5</text>
</g>

<g fill="none" stroke="#268cdd" stroke-opacity="1" stroke-width="1.16667" stroke-linecap="butt" stroke-linejoin="round" transform="matrix(0.43393,0,0,0.434125,-189.718,-72.048)"
font-family="Helvetica" font-size="23" font-weight="400" font-style="normal" 
>
<polyline fill="none" vector-effect="none" points="489,239.267 856.689,1638.84 1273.4,1646.67 1690.12,1597.26 2106.83,1485.94 2523.55,1430.17 2940.26,1229.87 3356.97,972.624 " />
</g>

<g fill="none" stroke="#f57729" stroke-opacity="1" stroke-width="1.16667" stroke-linecap="butt" stroke-linejoin="round" transform="matrix(0.43393,0,0,0.434125,-189.718,-72.048)"
font-family="Helvetica" font-size="23" font-weight="400" font-style="normal" 
>
<polyline fill="none" vector-effect="none" points="489,238.17 856.689,1629.52 1273.4,1623.95 1690.12,1619.84 2106.83,1612.6 2523.55,1589.07 2940.26,1525.21 3356.97,1361.85 " />
</g>

<g fill="none" stroke="#ffe864" stroke-opacity="1" stroke-width="1.16667" stroke-linecap="butt" stroke-linejoin="round" transform="matrix(0.43393,0,0,0.434125,-189.718,-72.048)"
font-family="Helvetica" font-size="23" font-weight="400" font-style="normal" 
>
<polyline fill="none" vector-effect="none" points="489,242.993 856.689,1670.51 1273.4,1659.2 1690.12,1632.49 2106.83,1555.42 2523.55,1474.25 2940.26,1297.55 3356.97,959.63 " />
</g>
</g>
</svg>
