<?xml version="1.0" encoding="UTF-8" standalone="no"?>
<svg width="451.556mm" height="288.925mm"
 viewBox="0 0 1280 819"
 xmlns="http://www.w3.org/2000/svg" xmlns:xlink="http://www.w3.org/1999/xlink"  version="1.2" baseProfile="tiny">
<title>Qt SVG Document</title>
<desc>MATLAB, The MathWorks, Inc. Version 25.1.0.2943329 R2025a</desc>
<defs>
</defs>
<g fill="none" stroke="black" stroke-width="1" fill-rule="evenodd" stroke-linecap="square" stroke-linejoin="bevel" >

<g fill="#000000" fill-opacity="1" stroke="none" transform="matrix(0.432577,0,0,0.434125,-194.746,-72.048)"
font-family="MS Shell Dlg 2" font-size="6.85714" font-weight="400" font-style="normal" 
>
<path vector-effect="none" fill-rule="evenodd" d="M449,165 L3407,165 L3407,2050 L449,2050 L449,165"/>
</g>

<g fill="#121212" fill-opacity="1" stroke="none" transform="matrix(4.32577e-05,0,0,4.34125e-05,-194.746,-72.048)"
font-family="MS Shell Dlg 2" font-size="6.85714" font-weight="400" font-style="normal" 
>
<path vector-effect="none" fill-rule="evenodd" d="M4.89e+06,1.7e+06 L4.89e+06,2.017e+07 L3.404e+07,2.017e+07 L3.404e+07,1.7e+06 L4.89e+06,1.7e+06"/>
</g>

<g fill="#d9d9d9" fill-opacity="1" stroke="#d9d9d9" stroke-opacity="1" stroke-width="1.16667" stroke-linecap="square" stroke-linejoin="round" transform="matrix(0.432577,0,0,0.434125,-194.746,-72.048)"
font-family="MS Shell Dlg 2" font-size="6.85714" font-weight="400" font-style="normal" 
>
<polyline fill="none" vector-effect="none" points="489,2017 3404,2017 " />
<polyline fill="none" vector-effect="none" points="489,170 3404,170 " />
<polyline fill="none" vector-effect="none" points="858.187,2017 858.187,1987.85 " />
<polyline fill="none" vector-effect="none" points="858.187,199.15 858.187,170 " />
<polyline fill="none" vector-effect="none" points="1274.62,2017 1274.62,1987.85 " />
<polyline fill="none" vector-effect="none" points="1274.62,199.15 1274.62,170 " />
<polyline fill="none" vector-effect="none" points="1691.04,2017 1691.04,1987.85 " />
<polyline fill="none" vector-effect="none" points="1691.04,199.15 1691.04,170 " />
<polyline fill="none" vector-effect="none" points="2107.47,2017 2107.47,1987.85 " />
<polyline fill="none" vector-effect="none" points="2107.47,199.15 2107.47,170 " />
<polyline fill="none" vector-effect="none" points="2523.9,2017 2523.9,1987.85 " />
<polyline fill="none" vector-effect="none" points="2523.9,199.15 2523.9,170 " />
<polyline fill="none" vector-effect="none" points="2940.33,2017 2940.33,1987.85 " />
<polyline fill="none" vector-effect="none" points="2940.33,199.15 2940.33,170 " />
<polyline fill="none" vector-effect="none" points="3356.76,2017 3356.76,1987.85 " />
<polyline fill="none" vector-effect="none" points="3356.76,199.15 3356.76,170 " />
</g>

<g fill="#d9d9d9" fill-opacity="1" stroke="#d9d9d9" stroke-opacity="1" stroke-width="1" stroke-linecap="square" stroke-linejoin="bevel" transform="matrix(0.432577,0,0,0.434125,173.675,816.75)"
font-family="Helvetica" font-size="23" font-weight="400" font-style="normal" 
>
<text fill="#d9d9d9" fill-opacity="1" stroke="none" xml:space="preserve" x="0" y="0" font-family="Helvetica" font-size="23" font-weight="400" font-style="normal" 
 >2</text>
</g>

<g fill="#d9d9d9" fill-opacity="1" stroke="#d9d9d9" stroke-opacity="1" stroke-width="1" stroke-linecap="square" stroke-linejoin="bevel" transform="matrix(0.432577,0,0,0.434125,353.812,816.75)"
font-family="Helvetica" font-size="23" font-weight="400" font-style="normal" 
>
<text fill="#d9d9d9" fill-opacity="1" stroke="none" xml:space="preserve" x="0" y="0" font-family="Helvetica" font-size="23" font-weight="400" font-style="normal" 
 >3</text>
</g>

<g fill="#d9d9d9" fill-opacity="1" stroke="#d9d9d9" stroke-opacity="1" stroke-width="1" stroke-linecap="square" stroke-linejoin="bevel" transform="matrix(0.432577,0,0,0.434125,533.95,816.75)"
font-family="Helvetica" font-size="23" font-weight="400" font-style="normal" 
>
<text fill="#d9d9d9" fill-opacity="1" stroke="none" xml:space="preserve" x="0" y="0" font-family="Helvetica" font-size="23" font-weight="400" font-style="normal" 
 >4</text>
</g>

<g fill="#d9d9d9" fill-opacity="1" stroke="#d9d9d9" stroke-opacity="1" stroke-width="1" stroke-linecap="square" stroke-linejoin="bevel" transform="matrix(0.432577,0,0,0.434125,714.087,816.75)"
font-family="Helvetica" font-size="23" font-weight="400" font-style="normal" 
>
<text fill="#d9d9d9" fill-opacity="1" stroke="none" xml:space="preserve" x="0" y="0" font-family="Helvetica" font-size="23" font-weight="400" font-style="normal" 
 >5</text>
</g>

<g fill="#d9d9d9" fill-opacity="1" stroke="#d9d9d9" stroke-opacity="1" stroke-width="1" stroke-linecap="square" stroke-linejoin="bevel" transform="matrix(0.432577,0,0,0.434125,894.225,816.75)"
font-family="Helvetica" font-size="23" font-weight="400" font-style="normal" 
>
<text fill="#d9d9d9" fill-opacity="1" stroke="none" xml:space="preserve" x="0" y="0" font-family="Helvetica" font-size="23" font-weight="400" font-style="normal" 
 >6</text>
</g>

<g fill="#d9d9d9" fill-opacity="1" stroke="#d9d9d9" stroke-opacity="1" stroke-width="1" stroke-linecap="square" stroke-linejoin="bevel" transform="matrix(0.432577,0,0,0.434125,1074.36,816.75)"
font-family="Helvetica" font-size="23" font-weight="400" font-style="normal" 
>
<text fill="#d9d9d9" fill-opacity="1" stroke="none" xml:space="preserve" x="0" y="0" font-family="Helvetica" font-size="23" font-weight="400" font-style="normal" 
 >7</text>
</g>

<g fill="#d9d9d9" fill-opacity="1" stroke="#d9d9d9" stroke-opacity="1" stroke-width="1" stroke-linecap="square" stroke-linejoin="bevel" transform="matrix(0.432577,0,0,0.434125,1254.5,816.75)"
font-family="Helvetica" font-size="23" font-weight="400" font-style="normal" 
>
<text fill="#d9d9d9" fill-opacity="1" stroke="none" xml:space="preserve" x="0" y="0" font-family="Helvetica" font-size="23" font-weight="400" font-style="normal" 
 >8</text>
</g>

<g fill="#d9d9d9" fill-opacity="1" stroke="#d9d9d9" stroke-opacity="1" stroke-width="1.16667" stroke-linecap="square" stroke-linejoin="round" transform="matrix(0.432577,0,0,0.434125,-194.746,-72.048)"
font-family="Helvetica" font-size="23" font-weight="400" font-style="normal" 
>
<polyline fill="none" vector-effect="none" points="489,2017 489,170 " />
<polyline fill="none" vector-effect="none" points="3404,2017 3404,170 " />
<polyline fill="none" vector-effect="none" points="489,1896.46 518.15,1896.46 " />
<polyline fill="none" vector-effect="none" points="3374.85,1896.46 3404,1896.46 " />
<polyline fill="none" vector-effect="none" points="489,1665.59 518.15,1665.59 " />
<polyline fill="none" vector-effect="none" points="3374.85,1665.59 3404,1665.59 " />
<polyline fill="none" vector-effect="none" points="489,1434.71 518.15,1434.71 " />
<polyline fill="none" vector-effect="none" points="3374.85,1434.71 3404,1434.71 " />
<polyline fill="none" vector-effect="none" points="489,1203.84 518.15,1203.84 " />
<polyline fill="none" vector-effect="none" points="3374.85,1203.84 3404,1203.84 " />
<polyline fill="none" vector-effect="none" points="489,972.965 518.15,972.965 " />
<polyline fill="none" vector-effect="none" points="3374.85,972.965 3404,972.965 " />
<polyline fill="none" vector-effect="none" points="489,742.09 518.15,742.09 " />
<polyline fill="none" vector-effect="none" points="3374.85,742.09 3404,742.09 " />
<polyline fill="none" vector-effect="none" points="489,511.215 518.15,511.215 " />
<polyline fill="none" vector-effect="none" points="3374.85,511.215 3404,511.215 " />
<polyline fill="none" vector-effect="none" points="489,280.34 518.15,280.34 " />
<polyline fill="none" vector-effect="none" points="3374.85,280.34 3404,280.34 " />
</g>

<g fill="#d9d9d9" fill-opacity="1" stroke="#d9d9d9" stroke-opacity="1" stroke-width="1" stroke-linecap="square" stroke-linejoin="bevel" transform="matrix(0.432577,0,0,0.434125,7.12351,754.727)"
font-family="Helvetica" font-size="23" font-weight="400" font-style="normal" 
>
<text fill="#d9d9d9" fill-opacity="1" stroke="none" xml:space="preserve" x="0" y="0" font-family="Helvetica" font-size="23" font-weight="400" font-style="normal" 
 >5</text>
</g>

<g fill="#d9d9d9" fill-opacity="1" stroke="#d9d9d9" stroke-opacity="1" stroke-width="1" stroke-linecap="square" stroke-linejoin="bevel" transform="matrix(0.432577,0,0,0.434125,1.5,654.499)"
font-family="Helvetica" font-size="23" font-weight="400" font-style="normal" 
>
<text fill="#d9d9d9" fill-opacity="1" stroke="none" xml:space="preserve" x="0" y="0" font-family="Helvetica" font-size="23" font-weight="400" font-style="normal" 
 >10</text>
</g>

<g fill="#d9d9d9" fill-opacity="1" stroke="#d9d9d9" stroke-opacity="1" stroke-width="1" stroke-linecap="square" stroke-linejoin="bevel" transform="matrix(0.432577,0,0,0.434125,1.5,554.27)"
font-family="Helvetica" font-size="23" font-weight="400" font-style="normal" 
>
<text fill="#d9d9d9" fill-opacity="1" stroke="none" xml:space="preserve" x="0" y="0" font-family="Helvetica" font-size="23" font-weight="400" font-style="normal" 
 >15</text>
</g>

<g fill="#d9d9d9" fill-opacity="1" stroke="#d9d9d9" stroke-opacity="1" stroke-width="1" stroke-linecap="square" stroke-linejoin="bevel" transform="matrix(0.432577,0,0,0.434125,1.5,454.042)"
font-family="Helvetica" font-size="23" font-weight="400" font-style="normal" 
>
<text fill="#d9d9d9" fill-opacity="1" stroke="none" xml:space="preserve" x="0" y="0" font-family="Helvetica" font-size="23" font-weight="400" font-style="normal" 
 >20</text>
</g>

<g fill="#d9d9d9" fill-opacity="1" stroke="#d9d9d9" stroke-opacity="1" stroke-width="1" stroke-linecap="square" stroke-linejoin="bevel" transform="matrix(0.432577,0,0,0.434125,1.5,353.813)"
font-family="Helvetica" font-size="23" font-weight="400" font-style="normal" 
>
<text fill="#d9d9d9" fill-opacity="1" stroke="none" xml:space="preserve" x="0" y="0" font-family="Helvetica" font-size="23" font-weight="400" font-style="normal" 
 >25</text>
</g>

<g fill="#d9d9d9" fill-opacity="1" stroke="#d9d9d9" stroke-opacity="1" stroke-width="1" stroke-linecap="square" stroke-linejoin="bevel" transform="matrix(0.432577,0,0,0.434125,1.5,253.585)"
font-family="Helvetica" font-size="23" font-weight="400" font-style="normal" 
>
<text fill="#d9d9d9" fill-opacity="1" stroke="none" xml:space="preserve" x="0" y="0" font-family="Helvetica" font-size="23" font-weight="400" font-style="normal" 
 >30</text>
</g>

<g fill="#d9d9d9" fill-opacity="1" stroke="#d9d9d9" stroke-opacity="1" stroke-width="1" stroke-linecap="square" stroke-linejoin="bevel" transform="matrix(0.432577,0,0,0.434125,1.5,153.356)"
font-family="Helvetica" font-size="23" font-weight="400" font-style="normal" 
>
<text fill="#d9d9d9" fill-opacity="1" stroke="none" xml:space="preserve" x="0" y="0" font-family="Helvetica" font-size="23" font-weight="400" font-style="normal" 
 >35</text>
</g>

<g fill="#d9d9d9" fill-opacity="1" stroke="#d9d9d9" stroke-opacity="1" stroke-width="1" stroke-linecap="square" stroke-linejoin="bevel" transform="matrix(0.432577,0,0,0.434125,1.5,53.1274)"
font-family="Helvetica" font-size="23" font-weight="400" font-style="normal" 
>
<text fill="#d9d9d9" fill-opacity="1" stroke="none" xml:space="preserve" x="0" y="0" font-family="Helvetica" font-size="23" font-weight="400" font-style="normal" 
 >40</text>
</g>

<g fill="none" stroke="#268cdd" stroke-opacity="1" stroke-width="1.16667" stroke-linecap="butt" stroke-linejoin="round" transform="matrix(0.432577,0,0,0.434125,-194.746,-72.048)"
font-family="Helvetica" font-size="23" font-weight="400" font-style="normal" 
>
<polyline fill="none" vector-effect="none" points="731.097,2017 858.187,1968.53 1274.62,1681.28 1691.04,1316.89 2107.47,989.942 2523.9,793.059 2940.33,567.228 3356.76,363.576 " />
</g>

<g fill="none" stroke="#f57729" stroke-opacity="1" stroke-width="1.16667" stroke-linecap="butt" stroke-linejoin="round" transform="matrix(0.432577,0,0,0.434125,-194.746,-72.048)"
font-family="Helvetica" font-size="23" font-weight="400" font-style="normal" 
>
<polyline fill="none" vector-effect="none" points="970.694,2017 1274.62,1812.66 1691.04,1551.16 2107.47,1296.04 2523.9,1043.58 2940.33,792.883 3356.76,542.714 " />
</g>

<g fill="none" stroke="#ffe864" stroke-opacity="1" stroke-width="1.16667" stroke-linecap="butt" stroke-linejoin="round" transform="matrix(0.432577,0,0,0.434125,-194.746,-72.048)"
font-family="Helvetica" font-size="23" font-weight="400" font-style="normal" 
>
<polyline fill="none" vector-effect="none" points="710.687,2017 858.187,1956.48 1274.62,1636.44 1691.04,1321.23 2107.47,983.658 2523.9,771.969 2940.33,577.725 3356.76,385.251 " />
</g>
</g>
</svg>
