<?xml version="1.0" encoding="UTF-8" standalone="no"?>
<svg width="119.239mm" height="79.375mm"
 viewBox="0 0 338 225"
 xmlns="http://www.w3.org/2000/svg" xmlns:xlink="http://www.w3.org/1999/xlink"  version="1.2" baseProfile="tiny">
<title>Qt SVG Document</title>
<desc>MATLAB, The MathWorks, Inc. Version 25.1.0.2943329 R2025a</desc>
<defs>
</defs>
<g fill="none" stroke="black" stroke-width="1" fill-rule="evenodd" stroke-linecap="square" stroke-linejoin="bevel" >

<g fill="#ffffff" fill-opacity="1" stroke="none" transform="matrix(0.428571,0,0,0.428571,0,0)"
font-family="MS Shell Dlg 2" font-size="8.14286" font-weight="400" font-style="normal" 
>
<path vector-effect="none" fill-rule="evenodd" d="M0,0 L789,0 L789,526 L0,526 L0,0"/>
</g>

<g fill="#ffffff" fill-opacity="1" stroke="none" transform="matrix(4.28571e-05,0,0,4.28571e-05,0,0)"
font-family="MS Shell Dlg 2" font-size="8.14286" font-weight="400" font-style="normal" 
>
<path vector-effect="none" fill-rule="evenodd" d="M1.02e+06,390000 L1.02e+06,4.55e+06 L7.13e+06,4.55e+06 L7.13e+06,390000 L1.02e+06,390000"/>
</g>

<g fill="#212121" fill-opacity="0.14902" stroke="#212121" stroke-opacity="0.14902" stroke-width="1.16667" stroke-linecap="butt" stroke-linejoin="round" transform="matrix(0.428571,0,0,0.428571,0,0)"
font-family="MS Shell Dlg 2" font-size="8.14286" font-weight="400" font-style="normal" 
>
<polyline fill="none" vector-effect="none" points="102,39.0001 102,455 " />
<polyline fill="none" vector-effect="none" points="254.75,39.0001 254.75,455 " />
<polyline fill="none" vector-effect="none" points="407.5,39.0001 407.5,455 " />
<polyline fill="none" vector-effect="none" points="560.25,39.0001 560.25,455 " />
<polyline fill="none" vector-effect="none" points="713,39.0001 713,455 " />
<polyline fill="none" vector-effect="none" points="102,455 713,455 " />
<polyline fill="none" vector-effect="none" points="102,385.667 713,385.667 " />
<polyline fill="none" vector-effect="none" points="102,316.333 713,316.333 " />
<polyline fill="none" vector-effect="none" points="102,247 713,247 " />
<polyline fill="none" vector-effect="none" points="102,177.667 713,177.667 " />
<polyline fill="none" vector-effect="none" points="102,108.333 713,108.333 " />
<polyline fill="none" vector-effect="none" points="102,39.0001 713,39.0001 " />
</g>

<g fill="#212121" fill-opacity="1" stroke="none" transform="matrix(0.428571,0,0,0.428571,155.668,221.064)"
font-family="MS Shell Dlg 2" font-size="8.14286" font-weight="400" font-style="normal" 
>
<path vector-effect="none" fill-rule="evenodd" d="M2.54688,-3 L2.54688,-9.90625 L0.46875,-9.90625 L0.46875,-10.5469 C1.5625,-10.5469 2.36719,-11.0547 2.88281,-12.0703 C3.39844,-13.0859 3.65625,-14.1875 3.65625,-15.375 L4.375,-15.375 L4.375,-10.7813 L7.89063,-10.7813 L7.89063,-9.90625 L4.375,-9.90625 L4.375,-3.0625 C4.375,-2.375 4.48958,-1.77083 4.71875,-1.25 C4.94792,-0.729167 5.36458,-0.46875 5.96875,-0.46875 C6.54167,-0.46875 6.95313,-0.742188 7.20313,-1.28906 C7.45313,-1.83594 7.57813,-2.42708 7.57813,-3.0625 L7.57813,-4.53125 L8.29688,-4.53125 L8.29688,-3 C8.29688,-2.47917 8.20313,-1.96615 8.01563,-1.46094 C7.82813,-0.955729 7.54688,-0.539063 7.17188,-0.210938 C6.79688,0.117188 6.33854,0.28125 5.79688,0.28125 C4.79688,0.28125 4.00521,-0.0182292 3.42188,-0.617188 C2.83854,-1.21615 2.54688,-2.01042 2.54688,-3 "/>
</g>

<g fill="#212121" fill-opacity="1" stroke="none" transform="matrix(0.428571,0,0,0.428571,159.946,221.064)"
font-family="MS Shell Dlg 2" font-size="8.14286" font-weight="400" font-style="normal" 
>
<path vector-effect="none" fill-rule="evenodd" d="M0.765625,0 L0.765625,-0.875 C1.33854,-0.875 1.80729,-0.919271 2.17188,-1.00781 C2.53646,-1.09635 2.71875,-1.31771 2.71875,-1.67188 L2.71875,-8.5 C2.71875,-9.13542 2.59635,-9.52865 2.35156,-9.67969 C2.10677,-9.83073 1.61458,-9.90625 0.875,-9.90625 L0.875,-10.7813 L4.48438,-11.0469 L4.48438,-1.67188 C4.48438,-1.31771 4.64323,-1.09635 4.96094,-1.00781 C5.27865,-0.919271 5.69792,-0.875 6.21875,-0.875 L6.21875,0 L0.765625,0 M1.82813,-15.3438 C1.82813,-15.7083 1.96615,-16.0286 2.24219,-16.3047 C2.51823,-16.5807 2.83854,-16.7188 3.20313,-16.7188 C3.43229,-16.7188 3.65885,-16.6589 3.88281,-16.5391 C4.10677,-16.4193 4.27865,-16.25 4.39844,-16.0313 C4.51823,-15.8125 4.57813,-15.5833 4.57813,-15.3438 C4.57813,-14.9896 4.4401,-14.6745 4.16406,-14.3984 C3.88802,-14.1224 3.56771,-13.9844 3.20313,-13.9844 C2.83854,-13.9844 2.51823,-14.1224 2.24219,-14.3984 C1.96615,-14.6745 1.82813,-14.9896 1.82813,-15.3438 "/>
</g>

<g fill="#212121" fill-opacity="1" stroke="none" transform="matrix(0.428571,0,0,0.428571,163.001,221.064)"
font-family="MS Shell Dlg 2" font-size="8.14286" font-weight="400" font-style="normal" 
>
<path vector-effect="none" fill-rule="evenodd" d="M0.75,0 L0.75,-0.875 C1.3125,-0.875 1.77865,-0.919271 2.14844,-1.00781 C2.51823,-1.09635 2.70313,-1.31771 2.70313,-1.67188 L2.70313,-8.5 C2.70313,-8.94792 2.63542,-9.27083 2.5,-9.46875 C2.36458,-9.66667 2.16927,-9.78906 1.91406,-9.83594 C1.65885,-9.88281 1.27083,-9.90625 0.75,-9.90625 L0.75,-10.7813 L4.375,-11.0469 L4.375,-8.60938 C4.70833,-9.32813 5.20313,-9.91406 5.85938,-10.3672 C6.51563,-10.8203 7.22917,-11.0469 8,-11.0469 C9.91667,-11.0469 11.0417,-10.2656 11.375,-8.70313 C11.7083,-9.40104 12.1979,-9.96615 12.8438,-10.3984 C13.4896,-10.8307 14.1927,-11.0469 14.9531,-11.0469 C15.7135,-11.0469 16.3516,-10.9245 16.8672,-10.6797 C17.3828,-10.4349 17.7708,-10.0625 18.0313,-9.5625 C18.2917,-9.0625 18.4219,-8.43229 18.4219,-7.67188 L18.4219,-1.67188 C18.4219,-1.31771 18.6068,-1.09635 18.9766,-1.00781 C19.3464,-0.919271 19.8125,-0.875 20.375,-0.875 L20.375,0 L14.6563,0 L14.6563,-0.875 C15.2188,-0.875 15.6849,-0.919271 16.0547,-1.00781 C16.4245,-1.09635 16.6094,-1.31771 16.6094,-1.67188 L16.6094,-7.60938 C16.6094,-8.44271 16.4896,-9.11719 16.25,-9.63281 C16.0104,-10.1484 15.526,-10.4063 14.7969,-10.4063 C13.8385,-10.4063 13.0443,-10.0182 12.4141,-9.24219 C11.7839,-8.46615 11.4688,-7.58854 11.4688,-6.60938 L11.4688,-1.67188 C11.4688,-1.31771 11.6536,-1.09635 12.0234,-1.00781 C12.3932,-0.919271 12.8594,-0.875 13.4219,-0.875 L13.4219,0 L7.70313,0 L7.70313,-0.875 C8.27604,-0.875 8.74479,-0.919271 9.10938,-1.00781 C9.47396,-1.09635 9.65625,-1.31771 9.65625,-1.67188 L9.65625,-7.60938 C9.65625,-8.42188 9.53906,-9.09115 9.30469,-9.61719 C9.07031,-10.1432 8.58333,-10.4063 7.84375,-10.4063 C6.875,-10.4063 6.08073,-10.0182 5.46094,-9.24219 C4.84115,-8.46615 4.53125,-7.58854 4.53125,-6.60938 L4.53125,-1.67188 C4.53125,-1.31771 4.71354,-1.09635 5.07813,-1.00781 C5.44271,-0.919271 5.90625,-0.875 6.46875,-0.875 L6.46875,0 L0.75,0"/>
</g>

<g fill="#212121" fill-opacity="1" stroke="none" transform="matrix(0.428571,0,0,0.428571,172.168,221.064)"
font-family="MS Shell Dlg 2" font-size="8.14286" font-weight="400" font-style="normal" 
>
<path vector-effect="none" fill-rule="evenodd" d="M6.21875,0.28125 C5.20833,0.28125 4.27865,0.015625 3.42969,-0.515625 C2.58073,-1.04688 1.91406,-1.75781 1.42969,-2.64844 C0.945313,-3.53906 0.703125,-4.48438 0.703125,-5.48438 C0.703125,-6.46354 0.924479,-7.39063 1.36719,-8.26563 C1.8099,-9.14063 2.42708,-9.84896 3.21875,-10.3906 C4.01042,-10.9323 4.89583,-11.2031 5.875,-11.2031 C6.63542,-11.2031 7.29948,-11.0755 7.86719,-10.8203 C8.4349,-10.5651 8.90104,-10.2083 9.26563,-9.75 C9.63021,-9.29167 9.90625,-8.75521 10.0938,-8.14063 C10.2813,-7.52604 10.375,-6.84896 10.375,-6.10938 C10.375,-5.89063 10.2917,-5.78125 10.125,-5.78125 L2.875,-5.78125 L2.875,-5.5 C2.875,-4.125 3.15365,-2.94271 3.71094,-1.95313 C4.26823,-0.963542 5.18229,-0.46875 6.45313,-0.46875 C6.96354,-0.46875 7.4349,-0.580729 7.86719,-0.804688 C8.29948,-1.02865 8.67708,-1.34375 9,-1.75 C9.32292,-2.15625 9.54167,-2.59375 9.65625,-3.0625 C9.67708,-3.11458 9.70833,-3.16406 9.75,-3.21094 C9.79167,-3.25781 9.84375,-3.28125 9.90625,-3.28125 L10.125,-3.28125 C10.2917,-3.28125 10.375,-3.17188 10.375,-2.95313 C10.1354,-2.01563 9.625,-1.24219 8.84375,-0.632813 C8.0625,-0.0234375 7.1875,0.28125 6.21875,0.28125 M2.90625,-6.39063 L8.60938,-6.39063 C8.60938,-7.01563 8.52083,-7.64844 8.34375,-8.28906 C8.16667,-8.92969 7.875,-9.46354 7.46875,-9.89063 C7.0625,-10.3177 6.53125,-10.5313 5.875,-10.5313 C4.92708,-10.5313 4.19531,-10.0911 3.67969,-9.21094 C3.16406,-8.33073 2.90625,-7.39063 2.90625,-6.39063 "/>
</g>

<g fill="#212121" fill-opacity="1" stroke="none" transform="matrix(0.428571,0,0,0.428571,180.723,221.064)"
font-family="MS Shell Dlg 2" font-size="8.14286" font-weight="400" font-style="normal" 
>
<path vector-effect="none" fill-rule="evenodd" d="M7.75,6.20313 C6.82292,5.47396 6.02344,4.63542 5.35156,3.6875 C4.67969,2.73958 4.13021,1.72656 3.70313,0.648438 C3.27604,-0.429688 2.95573,-1.55469 2.74219,-2.72656 C2.52865,-3.89844 2.42188,-5.07292 2.42188,-6.25 C2.42188,-7.44792 2.52865,-8.63281 2.74219,-9.80469 C2.95573,-10.9766 3.28125,-12.1042 3.71875,-13.1875 C4.15625,-14.2708 4.71094,-15.2839 5.38281,-16.2266 C6.05469,-17.1693 6.84375,-17.9948 7.75,-18.7031 C7.75,-18.7344 7.79167,-18.75 7.875,-18.75 L8.10938,-18.75 C8.15104,-18.75 8.19271,-18.7266 8.23438,-18.6797 C8.27604,-18.6328 8.29688,-18.5833 8.29688,-18.5313 C8.29688,-18.4583 8.28125,-18.4063 8.25,-18.375 C7.4375,-17.5729 6.76042,-16.7161 6.21875,-15.8047 C5.67708,-14.8932 5.24219,-13.9245 4.91406,-12.8984 C4.58594,-11.8724 4.34896,-10.8073 4.20313,-9.70313 C4.05729,-8.59896 3.98438,-7.44792 3.98438,-6.25 C3.98438,-0.947917 5.40104,3.07813 8.23438,5.82813 C8.27604,5.86979 8.29688,5.9375 8.29688,6.03125 C8.29688,6.07292 8.27604,6.11979 8.23438,6.17188 C8.19271,6.22396 8.15104,6.25 8.10938,6.25 L7.875,6.25 C7.79167,6.25 7.75,6.23438 7.75,6.20313 "/>
</g>

<g fill="#212121" fill-opacity="1" stroke="none" transform="matrix(0.428571,0,0,0.428571,185.001,221.064)"
font-family="MS Shell Dlg 2" font-size="8.14286" font-weight="400" font-style="normal" 
>
<path vector-effect="none" fill-rule="evenodd" d="M0.828125,0.078125 L0.828125,-4.01563 C0.828125,-4.15104 0.901042,-4.21875 1.04688,-4.21875 L1.35938,-4.21875 C1.45313,-4.21875 1.51563,-4.15104 1.54688,-4.01563 C2.01563,-1.59896 3.14063,-0.390625 4.92188,-0.390625 C5.71354,-0.390625 6.375,-0.570313 6.90625,-0.929688 C7.4375,-1.28906 7.70313,-1.84375 7.70313,-2.59375 C7.70313,-3.125 7.49479,-3.58073 7.07813,-3.96094 C6.66146,-4.34115 6.17188,-4.59896 5.60938,-4.73438 L3.9375,-5.0625 C3.375,-5.1875 2.86198,-5.375 2.39844,-5.625 C1.9349,-5.875 1.55729,-6.21094 1.26563,-6.63281 C0.973958,-7.05469 0.828125,-7.54167 0.828125,-8.09375 C0.828125,-8.82292 1.02083,-9.41927 1.40625,-9.88281 C1.79167,-10.3464 2.29427,-10.6823 2.91406,-10.8906 C3.53385,-11.099 4.20313,-11.2031 4.92188,-11.2031 C5.77604,-11.2031 6.52083,-10.9792 7.15625,-10.5313 L7.875,-11.1406 C7.875,-11.1823 7.91667,-11.2031 8,-11.2031 L8.17188,-11.2031 C8.22396,-11.2031 8.27083,-11.1823 8.3125,-11.1406 C8.35417,-11.099 8.375,-11.0521 8.375,-11 L8.375,-7.73438 C8.375,-7.57813 8.30729,-7.5 8.17188,-7.5 L7.875,-7.5 C7.72917,-7.5 7.65625,-7.57813 7.65625,-7.73438 C7.65625,-8.60938 7.41406,-9.3099 6.92969,-9.83594 C6.44531,-10.362 5.76563,-10.625 4.89063,-10.625 C4.14063,-10.625 3.49219,-10.487 2.94531,-10.2109 C2.39844,-9.9349 2.125,-9.46354 2.125,-8.79688 C2.125,-8.32813 2.32292,-7.94531 2.71875,-7.64844 C3.11458,-7.35156 3.57813,-7.13542 4.10938,-7 L5.79688,-6.6875 C6.36979,-6.5625 6.90104,-6.34375 7.39063,-6.03125 C7.88021,-5.71875 8.27083,-5.32552 8.5625,-4.85156 C8.85417,-4.3776 9,-3.84375 9,-3.25 C9,-2.64583 8.89583,-2.1224 8.6875,-1.67969 C8.47917,-1.23698 8.1901,-0.869792 7.82031,-0.578125 C7.45052,-0.286458 7.01302,-0.0703125 6.50781,0.0703125 C6.0026,0.210938 5.47396,0.28125 4.92188,0.28125 C3.88021,0.28125 2.98958,-0.0729167 2.25,-0.78125 L1.32813,0.21875 C1.32813,0.260417 1.28646,0.28125 1.20313,0.28125 L1.04688,0.28125 C0.901042,0.28125 0.828125,0.213542 0.828125,0.078125 "/>
</g>

<g fill="#212121" fill-opacity="1" stroke="none" transform="matrix(0.428571,0,0,0.428571,189.34,221.064)"
font-family="MS Shell Dlg 2" font-size="8.14286" font-weight="400" font-style="normal" 
>
<path vector-effect="none" fill-rule="evenodd" d="M1.625,6.25 C1.47917,6.25 1.40625,6.17708 1.40625,6.03125 C1.40625,5.95833 1.42188,5.90625 1.45313,5.875 C4.29688,3.09375 5.71875,-0.947917 5.71875,-6.25 C5.71875,-11.5521 4.3125,-15.5781 1.5,-18.3281 C1.4375,-18.3698 1.40625,-18.4375 1.40625,-18.5313 C1.40625,-18.5833 1.42708,-18.6328 1.46875,-18.6797 C1.51042,-18.7266 1.5625,-18.75 1.625,-18.75 L1.85938,-18.75 C1.90104,-18.75 1.94271,-18.7344 1.98438,-18.7031 C3.17188,-17.7552 4.16667,-16.6068 4.96875,-15.2578 C5.77083,-13.9089 6.35677,-12.4688 6.72656,-10.9375 C7.09635,-9.40625 7.28125,-7.84375 7.28125,-6.25 C7.28125,-5.07292 7.17969,-3.91146 6.97656,-2.76563 C6.77344,-1.61979 6.45573,-0.492188 6.02344,0.617188 C5.59115,1.72656 5.04167,2.7526 4.375,3.69531 C3.70833,4.63802 2.91146,5.47396 1.98438,6.20313 C1.94271,6.23438 1.90104,6.25 1.85938,6.25 L1.625,6.25"/>
</g>

<g fill="#212121" fill-opacity="1" stroke="#212121" stroke-opacity="1" stroke-width="1.16667" stroke-linecap="square" stroke-linejoin="round" transform="matrix(0.428571,0,0,0.428571,0,0)"
font-family="MS Shell Dlg 2" font-size="8.14286" font-weight="400" font-style="normal" 
>
<polyline fill="none" vector-effect="none" points="102,455 713,455 " />
<polyline fill="none" vector-effect="none" points="102,39.0001 713,39.0001 " />
<polyline fill="none" vector-effect="none" points="102,455 102,448.89 " />
<polyline fill="none" vector-effect="none" points="102,45.1101 102,39.0001 " />
<polyline fill="none" vector-effect="none" points="254.75,455 254.75,448.89 " />
<polyline fill="none" vector-effect="none" points="254.75,45.1101 254.75,39.0001 " />
<polyline fill="none" vector-effect="none" points="407.5,455 407.5,448.89 " />
<polyline fill="none" vector-effect="none" points="407.5,45.1101 407.5,39.0001 " />
<polyline fill="none" vector-effect="none" points="560.25,455 560.25,448.89 " />
<polyline fill="none" vector-effect="none" points="560.25,45.1101 560.25,39.0001 " />
<polyline fill="none" vector-effect="none" points="713,455 713,448.89 " />
<polyline fill="none" vector-effect="none" points="713,45.1101 713,39.0001 " />
</g>

<g fill="#212121" fill-opacity="1" stroke="none" transform="matrix(0.428571,0,0,0.428571,41.2143,207.4)"
font-family="MS Shell Dlg 2" font-size="8.14286" font-weight="400" font-style="normal" 
>
<path vector-effect="none" fill-rule="evenodd" d="M5.75,0.5 C3.875,0.5 2.59896,-0.273438 1.92188,-1.82031 C1.24479,-3.36719 0.90625,-5.20313 0.90625,-7.32813 C0.90625,-8.66146 1.02604,-9.91667 1.26563,-11.0938 C1.50521,-12.2708 1.98698,-13.2682 2.71094,-14.0859 C3.4349,-14.9036 4.44792,-15.3125 5.75,-15.3125 C6.76042,-15.3125 7.58854,-15.0677 8.23438,-14.5781 C8.88021,-14.0885 9.36979,-13.4505 9.70313,-12.6641 C10.0365,-11.8776 10.2656,-11.0391 10.3906,-10.1484 C10.5156,-9.25781 10.5781,-8.31771 10.5781,-7.32813 C10.5781,-6.01563 10.4557,-4.78385 10.2109,-3.63281 C9.96615,-2.48177 9.48958,-1.50521 8.78125,-0.703125 C8.07292,0.0989583 7.0625,0.5 5.75,0.5 M5.75,-0.09375 C6.60417,-0.09375 7.23958,-0.53125 7.65625,-1.40625 C8.07292,-2.28125 8.33073,-3.25 8.42969,-4.3125 C8.52865,-5.375 8.57813,-6.50521 8.57813,-7.70313 C8.57813,-8.85938 8.52865,-9.92448 8.42969,-10.8984 C8.33073,-11.8724 8.07552,-12.7526 7.66406,-13.5391 C7.2526,-14.3255 6.61458,-14.7188 5.75,-14.7188 C4.88542,-14.7188 4.24219,-14.3229 3.82031,-13.5313 C3.39844,-12.7396 3.13802,-11.8594 3.03906,-10.8906 C2.9401,-9.92188 2.89063,-8.85938 2.89063,-7.70313 C2.89063,-6.84896 2.91146,-6.04427 2.95313,-5.28906 C2.99479,-4.53385 3.10677,-3.7526 3.28906,-2.94531 C3.47135,-2.13802 3.76302,-1.46094 4.16406,-0.914063 C4.5651,-0.367188 5.09375,-0.09375 5.75,-0.09375 "/>
</g>

<g fill="#212121" fill-opacity="1" stroke="none" transform="matrix(0.428571,0,0,0.428571,106.679,207.4)"
font-family="MS Shell Dlg 2" font-size="8.14286" font-weight="400" font-style="normal" 
>
<path vector-effect="none" fill-rule="evenodd" d="M2,-2.625 C2.15625,-2.17708 2.39844,-1.77083 2.72656,-1.40625 C3.05469,-1.04167 3.4401,-0.755208 3.88281,-0.546875 C4.32552,-0.338542 4.78646,-0.234375 5.26563,-0.234375 C6.36979,-0.234375 7.13281,-0.664063 7.55469,-1.52344 C7.97656,-2.38281 8.1875,-3.42708 8.1875,-4.65625 C8.1875,-5.1875 8.17708,-5.63542 8.15625,-6 C8.13542,-6.36458 8.08333,-6.71354 8,-7.04688 C7.86458,-7.58854 7.61979,-8.0599 7.26563,-8.46094 C6.91146,-8.86198 6.47396,-9.0625 5.95313,-9.0625 C5.43229,-9.0625 4.98698,-8.98438 4.61719,-8.82813 C4.2474,-8.67188 3.94792,-8.48958 3.71875,-8.28125 C3.48958,-8.07292 3.28385,-7.85156 3.10156,-7.61719 C2.91927,-7.38281 2.80729,-7.26042 2.76563,-7.25 L2.5,-7.25 C2.46875,-7.25 2.42448,-7.27344 2.36719,-7.32031 C2.3099,-7.36719 2.28125,-7.41146 2.28125,-7.45313 L2.28125,-15.1406 C2.28125,-15.1719 2.30469,-15.2083 2.35156,-15.25 C2.39844,-15.2917 2.44792,-15.3125 2.5,-15.3125 L2.57813,-15.3125 C3.60938,-14.8229 4.70313,-14.5781 5.85938,-14.5781 C6.99479,-14.5781 8.09375,-14.8229 9.15625,-15.3125 L9.21875,-15.3125 C9.27083,-15.3125 9.32031,-15.2943 9.36719,-15.2578 C9.41406,-15.2214 9.4375,-15.1823 9.4375,-15.1406 L9.4375,-14.9219 C9.4375,-14.849 9.42188,-14.8125 9.39063,-14.8125 C8.86979,-14.1146 8.21354,-13.5703 7.42188,-13.1797 C6.63021,-12.7891 5.8125,-12.5938 4.96875,-12.5938 C4.35417,-12.5938 3.72396,-12.6823 3.07813,-12.8594 L3.07813,-8.51563 C3.58854,-8.92188 4.04427,-9.21354 4.44531,-9.39063 C4.84635,-9.56771 5.35417,-9.65625 5.96875,-9.65625 C6.82292,-9.65625 7.58333,-9.41406 8.25,-8.92969 C8.91667,-8.44531 9.42969,-7.8099 9.78906,-7.02344 C10.1484,-6.23698 10.3281,-5.4375 10.3281,-4.625 C10.3281,-3.70833 10.1016,-2.85677 9.64844,-2.07031 C9.19531,-1.28385 8.58073,-0.658854 7.80469,-0.195313 C7.02865,0.268229 6.18229,0.5 5.26563,0.5 C4.51563,0.5 3.82292,0.307292 3.1875,-0.078125 C2.55208,-0.463542 2.05208,-0.986979 1.6875,-1.64844 C1.32292,-2.3099 1.14063,-3.01042 1.14063,-3.75 C1.14063,-4.09375 1.2526,-4.375 1.47656,-4.59375 C1.70052,-4.8125 1.98438,-4.92188 2.32813,-4.92188 C2.66146,-4.92188 2.94271,-4.8125 3.17188,-4.59375 C3.40104,-4.375 3.51563,-4.09375 3.51563,-3.75 C3.51563,-3.42708 3.40104,-3.15104 3.17188,-2.92188 C2.94271,-2.69271 2.66146,-2.57813 2.32813,-2.57813 C2.27604,-2.57813 2.21615,-2.58333 2.14844,-2.59375 C2.08073,-2.60417 2.03125,-2.61458 2,-2.625 "/>
</g>

<g fill="#212121" fill-opacity="1" stroke="none" transform="matrix(0.428571,0,0,0.428571,169.643,207.4)"
font-family="MS Shell Dlg 2" font-size="8.14286" font-weight="400" font-style="normal" 
>
<path vector-effect="none" fill-rule="evenodd" d="M2.14063,0 L2.14063,-0.8125 C4.05729,-0.8125 5.01563,-1.05208 5.01563,-1.53125 L5.01563,-13.6094 C4.21354,-13.224 3.20833,-13.0313 2,-13.0313 L2,-13.8438 C3.875,-13.8438 5.29167,-14.3333 6.25,-15.3125 L6.57813,-15.3125 C6.63021,-15.3125 6.68229,-15.2917 6.73438,-15.25 C6.78646,-15.2083 6.8125,-15.1615 6.8125,-15.1094 L6.8125,-1.53125 C6.8125,-1.05208 7.77083,-0.8125 9.6875,-0.8125 L9.6875,0 L2.14063,0"/>
</g>

<g fill="#212121" fill-opacity="1" stroke="none" transform="matrix(0.428571,0,0,0.428571,174.643,207.4)"
font-family="MS Shell Dlg 2" font-size="8.14286" font-weight="400" font-style="normal" 
>
<path vector-effect="none" fill-rule="evenodd" d="M5.75,0.5 C3.875,0.5 2.59896,-0.273438 1.92188,-1.82031 C1.24479,-3.36719 0.90625,-5.20313 0.90625,-7.32813 C0.90625,-8.66146 1.02604,-9.91667 1.26563,-11.0938 C1.50521,-12.2708 1.98698,-13.2682 2.71094,-14.0859 C3.4349,-14.9036 4.44792,-15.3125 5.75,-15.3125 C6.76042,-15.3125 7.58854,-15.0677 8.23438,-14.5781 C8.88021,-14.0885 9.36979,-13.4505 9.70313,-12.6641 C10.0365,-11.8776 10.2656,-11.0391 10.3906,-10.1484 C10.5156,-9.25781 10.5781,-8.31771 10.5781,-7.32813 C10.5781,-6.01563 10.4557,-4.78385 10.2109,-3.63281 C9.96615,-2.48177 9.48958,-1.50521 8.78125,-0.703125 C8.07292,0.0989583 7.0625,0.5 5.75,0.5 M5.75,-0.09375 C6.60417,-0.09375 7.23958,-0.53125 7.65625,-1.40625 C8.07292,-2.28125 8.33073,-3.25 8.42969,-4.3125 C8.52865,-5.375 8.57813,-6.50521 8.57813,-7.70313 C8.57813,-8.85938 8.52865,-9.92448 8.42969,-10.8984 C8.33073,-11.8724 8.07552,-12.7526 7.66406,-13.5391 C7.2526,-14.3255 6.61458,-14.7188 5.75,-14.7188 C4.88542,-14.7188 4.24219,-14.3229 3.82031,-13.5313 C3.39844,-12.7396 3.13802,-11.8594 3.03906,-10.8906 C2.9401,-9.92188 2.89063,-8.85938 2.89063,-7.70313 C2.89063,-6.84896 2.91146,-6.04427 2.95313,-5.28906 C2.99479,-4.53385 3.10677,-3.7526 3.28906,-2.94531 C3.47135,-2.13802 3.76302,-1.46094 4.16406,-0.914063 C4.5651,-0.367188 5.09375,-0.09375 5.75,-0.09375 "/>
</g>

<g fill="#212121" fill-opacity="1" stroke="none" transform="matrix(0.428571,0,0,0.428571,235.107,207.4)"
font-family="MS Shell Dlg 2" font-size="8.14286" font-weight="400" font-style="normal" 
>
<path vector-effect="none" fill-rule="evenodd" d="M2.14063,0 L2.14063,-0.8125 C4.05729,-0.8125 5.01563,-1.05208 5.01563,-1.53125 L5.01563,-13.6094 C4.21354,-13.224 3.20833,-13.0313 2,-13.0313 L2,-13.8438 C3.875,-13.8438 5.29167,-14.3333 6.25,-15.3125 L6.57813,-15.3125 C6.63021,-15.3125 6.68229,-15.2917 6.73438,-15.25 C6.78646,-15.2083 6.8125,-15.1615 6.8125,-15.1094 L6.8125,-1.53125 C6.8125,-1.05208 7.77083,-0.8125 9.6875,-0.8125 L9.6875,0 L2.14063,0"/>
</g>

<g fill="#212121" fill-opacity="1" stroke="none" transform="matrix(0.428571,0,0,0.428571,240.107,207.4)"
font-family="MS Shell Dlg 2" font-size="8.14286" font-weight="400" font-style="normal" 
>
<path vector-effect="none" fill-rule="evenodd" d="M2,-2.625 C2.15625,-2.17708 2.39844,-1.77083 2.72656,-1.40625 C3.05469,-1.04167 3.4401,-0.755208 3.88281,-0.546875 C4.32552,-0.338542 4.78646,-0.234375 5.26563,-0.234375 C6.36979,-0.234375 7.13281,-0.664063 7.55469,-1.52344 C7.97656,-2.38281 8.1875,-3.42708 8.1875,-4.65625 C8.1875,-5.1875 8.17708,-5.63542 8.15625,-6 C8.13542,-6.36458 8.08333,-6.71354 8,-7.04688 C7.86458,-7.58854 7.61979,-8.0599 7.26563,-8.46094 C6.91146,-8.86198 6.47396,-9.0625 5.95313,-9.0625 C5.43229,-9.0625 4.98698,-8.98438 4.61719,-8.82813 C4.2474,-8.67188 3.94792,-8.48958 3.71875,-8.28125 C3.48958,-8.07292 3.28385,-7.85156 3.10156,-7.61719 C2.91927,-7.38281 2.80729,-7.26042 2.76563,-7.25 L2.5,-7.25 C2.46875,-7.25 2.42448,-7.27344 2.36719,-7.32031 C2.3099,-7.36719 2.28125,-7.41146 2.28125,-7.45313 L2.28125,-15.1406 C2.28125,-15.1719 2.30469,-15.2083 2.35156,-15.25 C2.39844,-15.2917 2.44792,-15.3125 2.5,-15.3125 L2.57813,-15.3125 C3.60938,-14.8229 4.70313,-14.5781 5.85938,-14.5781 C6.99479,-14.5781 8.09375,-14.8229 9.15625,-15.3125 L9.21875,-15.3125 C9.27083,-15.3125 9.32031,-15.2943 9.36719,-15.2578 C9.41406,-15.2214 9.4375,-15.1823 9.4375,-15.1406 L9.4375,-14.9219 C9.4375,-14.849 9.42188,-14.8125 9.39063,-14.8125 C8.86979,-14.1146 8.21354,-13.5703 7.42188,-13.1797 C6.63021,-12.7891 5.8125,-12.5938 4.96875,-12.5938 C4.35417,-12.5938 3.72396,-12.6823 3.07813,-12.8594 L3.07813,-8.51563 C3.58854,-8.92188 4.04427,-9.21354 4.44531,-9.39063 C4.84635,-9.56771 5.35417,-9.65625 5.96875,-9.65625 C6.82292,-9.65625 7.58333,-9.41406 8.25,-8.92969 C8.91667,-8.44531 9.42969,-7.8099 9.78906,-7.02344 C10.1484,-6.23698 10.3281,-5.4375 10.3281,-4.625 C10.3281,-3.70833 10.1016,-2.85677 9.64844,-2.07031 C9.19531,-1.28385 8.58073,-0.658854 7.80469,-0.195313 C7.02865,0.268229 6.18229,0.5 5.26563,0.5 C4.51563,0.5 3.82292,0.307292 3.1875,-0.078125 C2.55208,-0.463542 2.05208,-0.986979 1.6875,-1.64844 C1.32292,-2.3099 1.14063,-3.01042 1.14063,-3.75 C1.14063,-4.09375 1.2526,-4.375 1.47656,-4.59375 C1.70052,-4.8125 1.98438,-4.92188 2.32813,-4.92188 C2.66146,-4.92188 2.94271,-4.8125 3.17188,-4.59375 C3.40104,-4.375 3.51563,-4.09375 3.51563,-3.75 C3.51563,-3.42708 3.40104,-3.15104 3.17188,-2.92188 C2.94271,-2.69271 2.66146,-2.57813 2.32813,-2.57813 C2.27604,-2.57813 2.21615,-2.58333 2.14844,-2.59375 C2.08073,-2.60417 2.03125,-2.61458 2,-2.625 "/>
</g>

<g fill="#212121" fill-opacity="1" stroke="none" transform="matrix(0.428571,0,0,0.428571,300.571,207.4)"
font-family="MS Shell Dlg 2" font-size="8.14286" font-weight="400" font-style="normal" 
>
<path vector-effect="none" fill-rule="evenodd" d="M1.14063,0 L1.14063,-0.625 C1.14063,-0.65625 1.15625,-0.692708 1.1875,-0.734375 L4.76563,-4.6875 C5.30729,-5.28125 5.74479,-5.77604 6.07813,-6.17188 C6.41146,-6.56771 6.74219,-7.02344 7.07031,-7.53906 C7.39844,-8.05469 7.65885,-8.58073 7.85156,-9.11719 C8.04427,-9.65365 8.14063,-10.2188 8.14063,-10.8125 C8.14063,-11.4479 8.02604,-12.0521 7.79688,-12.625 C7.56771,-13.1979 7.22135,-13.6563 6.75781,-14 C6.29427,-14.3438 5.73958,-14.5156 5.09375,-14.5156 C4.42708,-14.5156 3.82813,-14.3151 3.29688,-13.9141 C2.76563,-13.513 2.39063,-12.9948 2.17188,-12.3594 C2.22396,-12.3698 2.30729,-12.375 2.42188,-12.375 C2.76563,-12.375 3.05729,-12.2604 3.29688,-12.0313 C3.53646,-11.8021 3.65625,-11.5 3.65625,-11.125 C3.65625,-10.7813 3.53646,-10.487 3.29688,-10.2422 C3.05729,-9.9974 2.76563,-9.875 2.42188,-9.875 C2.05729,-9.875 1.7526,-10 1.50781,-10.25 C1.26302,-10.5 1.14063,-10.7917 1.14063,-11.125 C1.14063,-11.7083 1.25,-12.2526 1.46875,-12.7578 C1.6875,-13.263 2,-13.7109 2.40625,-14.1016 C2.8125,-14.4922 3.27344,-14.7917 3.78906,-15 C4.30469,-15.2083 4.84896,-15.3125 5.42188,-15.3125 C6.29688,-15.3125 7.11198,-15.1276 7.86719,-14.7578 C8.6224,-14.388 9.22135,-13.8646 9.66406,-13.1875 C10.1068,-12.5104 10.3281,-11.7188 10.3281,-10.8125 C10.3281,-10.1458 10.1823,-9.51302 9.89063,-8.91406 C9.59896,-8.3151 9.22656,-7.77083 8.77344,-7.28125 C8.32031,-6.79167 7.73698,-6.23698 7.02344,-5.61719 C6.3099,-4.9974 5.83854,-4.58333 5.60938,-4.375 L3.01563,-1.85938 L5.21875,-1.85938 C6.30208,-1.85938 7.21094,-1.86979 7.94531,-1.89063 C8.67969,-1.91146 9.06771,-1.94271 9.10938,-1.98438 C9.28646,-2.17188 9.46875,-2.875 9.65625,-4.09375 L10.3281,-4.09375 L9.6875,0 L1.14063,0"/>
</g>

<g fill="#212121" fill-opacity="1" stroke="none" transform="matrix(0.428571,0,0,0.428571,305.571,207.4)"
font-family="MS Shell Dlg 2" font-size="8.14286" font-weight="400" font-style="normal" 
>
<path vector-effect="none" fill-rule="evenodd" d="M5.75,0.5 C3.875,0.5 2.59896,-0.273438 1.92188,-1.82031 C1.24479,-3.36719 0.90625,-5.20313 0.90625,-7.32813 C0.90625,-8.66146 1.02604,-9.91667 1.26563,-11.0938 C1.50521,-12.2708 1.98698,-13.2682 2.71094,-14.0859 C3.4349,-14.9036 4.44792,-15.3125 5.75,-15.3125 C6.76042,-15.3125 7.58854,-15.0677 8.23438,-14.5781 C8.88021,-14.0885 9.36979,-13.4505 9.70313,-12.6641 C10.0365,-11.8776 10.2656,-11.0391 10.3906,-10.1484 C10.5156,-9.25781 10.5781,-8.31771 10.5781,-7.32813 C10.5781,-6.01563 10.4557,-4.78385 10.2109,-3.63281 C9.96615,-2.48177 9.48958,-1.50521 8.78125,-0.703125 C8.07292,0.0989583 7.0625,0.5 5.75,0.5 M5.75,-0.09375 C6.60417,-0.09375 7.23958,-0.53125 7.65625,-1.40625 C8.07292,-2.28125 8.33073,-3.25 8.42969,-4.3125 C8.52865,-5.375 8.57813,-6.50521 8.57813,-7.70313 C8.57813,-8.85938 8.52865,-9.92448 8.42969,-10.8984 C8.33073,-11.8724 8.07552,-12.7526 7.66406,-13.5391 C7.2526,-14.3255 6.61458,-14.7188 5.75,-14.7188 C4.88542,-14.7188 4.24219,-14.3229 3.82031,-13.5313 C3.39844,-12.7396 3.13802,-11.8594 3.03906,-10.8906 C2.9401,-9.92188 2.89063,-8.85938 2.89063,-7.70313 C2.89063,-6.84896 2.91146,-6.04427 2.95313,-5.28906 C2.99479,-4.53385 3.10677,-3.7526 3.28906,-2.94531 C3.47135,-2.13802 3.76302,-1.46094 4.16406,-0.914063 C4.5651,-0.367188 5.09375,-0.09375 5.75,-0.09375 "/>
</g>

<g fill="#212121" fill-opacity="1" stroke="none" transform="matrix(0,-0.428571,0.428571,0,10.2542,147.68)"
font-family="MS Shell Dlg 2" font-size="8.14286" font-weight="400" font-style="normal" 
>
<path vector-effect="none" fill-rule="evenodd" d="M0.828125,0 L0.828125,-0.875 C2.54688,-0.875 3.40625,-1.14063 3.40625,-1.67188 L3.40625,-15.4063 C3.40625,-15.9375 2.54688,-16.2031 0.828125,-16.2031 L0.828125,-17.0781 L9.73438,-17.0781 C10.6406,-17.0781 11.5495,-16.8906 12.4609,-16.5156 C13.3724,-16.1406 14.1224,-15.5964 14.7109,-14.8828 C15.2995,-14.1693 15.5938,-13.3333 15.5938,-12.375 C15.5938,-11.4479 15.2969,-10.6354 14.7031,-9.9375 C14.1094,-9.23958 13.362,-8.70833 12.4609,-8.34375 C11.5599,-7.97917 10.651,-7.79688 9.73438,-7.79688 L5.71875,-7.79688 L5.71875,-1.67188 C5.71875,-1.14063 6.57813,-0.875 8.29688,-0.875 L8.29688,0 L0.828125,0 M5.65625,-8.54688 L9.04688,-8.54688 C9.96354,-8.54688 10.7083,-8.67969 11.2813,-8.94531 C11.8542,-9.21094 12.2708,-9.6224 12.5313,-10.1797 C12.7917,-10.737 12.9219,-11.4688 12.9219,-12.375 C12.9219,-13.7396 12.625,-14.7188 12.0313,-15.3125 C11.4375,-15.9063 10.4427,-16.2031 9.04688,-16.2031 L6.92188,-16.2031 C6.61979,-16.2031 6.38542,-16.1901 6.21875,-16.1641 C6.05208,-16.138 5.91667,-16.0651 5.8125,-15.9453 C5.70833,-15.8255 5.65625,-15.6458 5.65625,-15.4063 L5.65625,-8.54688"/>
</g>

<g fill="#212121" fill-opacity="1" stroke="none" transform="matrix(0,-0.428571,0.428571,0,10.2542,140.194)"
font-family="MS Shell Dlg 2" font-size="8.14286" font-weight="400" font-style="normal" 
>
<path vector-effect="none" fill-rule="evenodd" d="M0.765625,0 L0.765625,-0.875 C2.48438,-0.875 3.34375,-1.14063 3.34375,-1.67188 L3.34375,-15.4063 C3.34375,-15.9375 2.48438,-16.2031 0.765625,-16.2031 L0.765625,-17.0781 L14.9063,-17.0781 L15.5938,-11.3594 L14.875,-11.3594 C14.6979,-12.7969 14.4479,-13.8411 14.125,-14.4922 C13.8021,-15.1432 13.2891,-15.5911 12.5859,-15.8359 C11.8828,-16.0807 10.8229,-16.2031 9.40625,-16.2031 L6.95313,-16.2031 C6.65104,-16.2031 6.41667,-16.1901 6.25,-16.1641 C6.08333,-16.138 5.94531,-16.0651 5.83594,-15.9453 C5.72656,-15.8255 5.67188,-15.6458 5.67188,-15.4063 L5.67188,-9.29688 L7.51563,-9.29688 C8.36979,-9.29688 9.00521,-9.36979 9.42188,-9.51563 C9.83854,-9.66146 10.125,-9.9349 10.2813,-10.3359 C10.4375,-10.737 10.5156,-11.3646 10.5156,-12.2188 L11.25,-12.2188 L11.25,-5.5 L10.5156,-5.5 C10.5156,-6.35417 10.4375,-6.98438 10.2813,-7.39063 C10.125,-7.79688 9.83854,-8.07031 9.42188,-8.21094 C9.00521,-8.35156 8.36979,-8.42188 7.51563,-8.42188 L5.67188,-8.42188 L5.67188,-1.67188 C5.67188,-1.31771 5.77344,-1.09635 5.97656,-1.00781 C6.17969,-0.919271 6.50521,-0.875 6.95313,-0.875 L9.59375,-0.875 C10.75,-0.875 11.6849,-0.966146 12.3984,-1.14844 C13.112,-1.33073 13.6667,-1.63542 14.0625,-2.0625 C14.4583,-2.48958 14.763,-3.04427 14.9766,-3.72656 C15.1901,-4.40885 15.3906,-5.35417 15.5781,-6.5625 L16.2969,-6.5625 L15.25,0 L0.765625,0"/>
</g>

<g fill="#212121" fill-opacity="1" stroke="none" transform="matrix(0,-0.428571,0.428571,0,10.2542,132.708)"
font-family="MS Shell Dlg 2" font-size="8.14286" font-weight="400" font-style="normal" 
>
<path vector-effect="none" fill-rule="evenodd" d="M0.875,0 L0.875,-0.875 C2.59375,-0.875 3.45313,-1.36979 3.45313,-2.35938 L3.45313,-15.4063 C3.45313,-15.9375 2.59375,-16.2031 0.875,-16.2031 L0.875,-17.0781 L5.60938,-17.0781 C5.80729,-17.0781 5.9375,-16.9844 6,-16.7969 L11.4531,-2.65625 L16.8906,-16.7969 C16.9635,-16.9844 17.099,-17.0781 17.2969,-17.0781 L22.0156,-17.0781 L22.0156,-16.2031 C20.3073,-16.2031 19.4531,-15.9375 19.4531,-15.4063 L19.4531,-1.67188 C19.4531,-1.14063 20.3073,-0.875 22.0156,-0.875 L22.0156,0 L14.75,0 L14.75,-0.875 C16.4688,-0.875 17.3281,-1.14063 17.3281,-1.67188 L17.3281,-16.2188 L11.1719,-0.28125 C11.099,-0.09375 10.9583,0 10.75,0 C10.5417,0 10.401,-0.09375 10.3281,-0.28125 L4.25,-16.0313 L4.25,-2.35938 C4.25,-1.36979 5.10938,-0.875 6.82813,-0.875 L6.82813,0 L0.875,0"/>
</g>

<g fill="#212121" fill-opacity="1" stroke="none" transform="matrix(0,-0.428571,0.428571,0,10.2542,122.625)"
font-family="MS Shell Dlg 2" font-size="8.14286" font-weight="400" font-style="normal" 
>
<path vector-effect="none" fill-rule="evenodd" d="M9.73438,0.546875 C8.14063,0.546875 6.71094,0.125 5.44531,-0.71875 C4.17969,-1.5625 3.1901,-2.68229 2.47656,-4.07813 C1.76302,-5.47396 1.40625,-6.9375 1.40625,-8.46875 C1.40625,-9.61458 1.61198,-10.7448 2.02344,-11.8594 C2.4349,-12.974 3.00781,-13.9609 3.74219,-14.8203 C4.47656,-15.6797 5.36198,-16.362 6.39844,-16.8672 C7.4349,-17.3724 8.54688,-17.625 9.73438,-17.625 C10.9115,-17.625 12.0182,-17.3698 13.0547,-16.8594 C14.0911,-16.349 14.9792,-15.6589 15.7188,-14.7891 C16.4583,-13.9193 17.0286,-12.9427 17.4297,-11.8594 C17.8307,-10.776 18.0313,-9.64583 18.0313,-8.46875 C18.0313,-6.9375 17.6719,-5.47396 16.9531,-4.07813 C16.2344,-2.68229 15.2422,-1.5625 13.9766,-0.71875 C12.7109,0.125 11.2969,0.546875 9.73438,0.546875 M5.57813,-2.70313 C6.06771,-1.93229 6.66927,-1.32292 7.38281,-0.875 C8.09635,-0.427083 8.88021,-0.203125 9.73438,-0.203125 C10.276,-0.203125 10.8099,-0.3125 11.3359,-0.53125 C11.862,-0.75 12.3385,-1.04948 12.7656,-1.42969 C13.1927,-1.8099 13.5573,-2.23438 13.8594,-2.70313 C14.849,-4.19271 15.3438,-6.25 15.3438,-8.875 C15.3438,-11.2708 14.849,-13.1667 13.8594,-14.5625 C13.3698,-15.2604 12.7604,-15.8203 12.0313,-16.2422 C11.3021,-16.6641 10.5365,-16.875 9.73438,-16.875 C8.92188,-16.875 8.14844,-16.6641 7.41406,-16.2422 C6.67969,-15.8203 6.06771,-15.2604 5.57813,-14.5625 C5.19271,-14.0208 4.89063,-13.4427 4.67188,-12.8281 C4.45313,-12.2135 4.29948,-11.5755 4.21094,-10.9141 C4.1224,-10.2526 4.07813,-9.57292 4.07813,-8.875 C4.07813,-8.11458 4.11979,-7.375 4.20313,-6.65625 C4.28646,-5.9375 4.44531,-5.23177 4.67969,-4.53906 C4.91406,-3.84635 5.21354,-3.23438 5.57813,-2.70313 "/>
</g>

<g fill="#212121" fill-opacity="1" stroke="none" transform="matrix(0,-0.428571,0.428571,0,10.2542,114.069)"
font-family="MS Shell Dlg 2" font-size="8.14286" font-weight="400" font-style="normal" 
>
<path vector-effect="none" fill-rule="evenodd" d="M0.28125,-4.625 L0.28125,-6.17188 L6.89063,-6.17188 L6.89063,-4.625 L0.28125,-4.625"/>
</g>

<g fill="#212121" fill-opacity="1" stroke="none" transform="matrix(0,-0.428571,0.428571,0,10.2542,110.402)"
font-family="MS Shell Dlg 2" font-size="8.14286" font-weight="400" font-style="normal" 
>
<path vector-effect="none" fill-rule="evenodd" d="M9.73438,0.546875 C8.14063,0.546875 6.71094,0.125 5.44531,-0.71875 C4.17969,-1.5625 3.1901,-2.68229 2.47656,-4.07813 C1.76302,-5.47396 1.40625,-6.9375 1.40625,-8.46875 C1.40625,-9.61458 1.61198,-10.7448 2.02344,-11.8594 C2.4349,-12.974 3.00781,-13.9609 3.74219,-14.8203 C4.47656,-15.6797 5.36198,-16.362 6.39844,-16.8672 C7.4349,-17.3724 8.54688,-17.625 9.73438,-17.625 C10.9115,-17.625 12.0182,-17.3698 13.0547,-16.8594 C14.0911,-16.349 14.9792,-15.6589 15.7188,-14.7891 C16.4583,-13.9193 17.0286,-12.9427 17.4297,-11.8594 C17.8307,-10.776 18.0313,-9.64583 18.0313,-8.46875 C18.0313,-7.32292 17.8307,-6.20573 17.4297,-5.11719 C17.0286,-4.02865 16.4427,-3.05208 15.6719,-2.1875 C14.901,-1.32292 14,-0.651042 12.9688,-0.171875 C13.2917,0.567708 13.6198,1.14323 13.9531,1.55469 C14.2865,1.96615 14.75,2.17188 15.3438,2.17188 C15.9688,2.17188 16.5052,1.95573 16.9531,1.52344 C17.401,1.09115 17.625,0.567708 17.625,-0.046875 C17.625,-0.109375 17.6563,-0.164063 17.7188,-0.210938 C17.7813,-0.257813 17.8385,-0.28125 17.8906,-0.28125 C18.0781,-0.28125 18.1719,-0.171875 18.1719,0.046875 C18.1719,1.24479 17.9375,2.34375 17.4688,3.34375 C17,4.34375 16.2344,4.84375 15.1719,4.84375 C14.5885,4.84375 14.1042,4.70052 13.7188,4.41406 C13.3333,4.1276 13.0417,3.76302 12.8438,3.32031 C12.6458,2.8776 12.4896,2.36198 12.375,1.77344 C12.2604,1.1849 12.1615,0.651042 12.0781,0.171875 C11.3385,0.421875 10.5573,0.546875 9.73438,0.546875 M9.73438,-0.171875 C10.4844,-0.171875 11.2083,-0.364583 11.9063,-0.75 C11.75,-1.45833 11.5104,-2.02604 11.1875,-2.45313 C10.8646,-2.88021 10.3802,-3.09375 9.73438,-3.09375 C9.32813,-3.09375 8.98698,-2.94531 8.71094,-2.64844 C8.4349,-2.35156 8.29688,-2.01042 8.29688,-1.625 C8.29688,-1.19792 8.42969,-0.848958 8.69531,-0.578125 C8.96094,-0.307292 9.30729,-0.171875 9.73438,-0.171875 M7.65625,-1.625 C7.65625,-1.98958 7.74479,-2.33594 7.92188,-2.66406 C8.09896,-2.99219 8.34896,-3.25521 8.67188,-3.45313 C8.99479,-3.65104 9.34896,-3.75 9.73438,-3.75 C10.4531,-3.75 11.0234,-3.51563 11.4453,-3.04688 C11.8672,-2.57813 12.2448,-1.94271 12.5781,-1.14063 C13.1302,-1.55729 13.5938,-2.04948 13.9688,-2.61719 C14.3438,-3.1849 14.6354,-3.77865 14.8438,-4.39844 C15.0521,-5.01823 15.2031,-5.67708 15.2969,-6.375 C15.3906,-7.07292 15.4375,-7.77083 15.4375,-8.46875 C15.4375,-9.625 15.3203,-10.7109 15.0859,-11.7266 C14.8516,-12.7422 14.4583,-13.6563 13.9063,-14.4688 C13.4271,-15.1875 12.8177,-15.7682 12.0781,-16.2109 C11.3385,-16.6536 10.5573,-16.875 9.73438,-16.875 C8.89063,-16.875 8.10156,-16.6589 7.36719,-16.2266 C6.63281,-15.7943 6.02083,-15.2083 5.53125,-14.4688 C4.95833,-13.6354 4.5599,-12.7109 4.33594,-11.6953 C4.11198,-10.6797 4,-9.60417 4,-8.46875 C4,-6.69792 4.30208,-5.08594 4.90625,-3.63281 C5.51042,-2.17969 6.51563,-1.15104 7.92188,-0.546875 C7.74479,-0.890625 7.65625,-1.25 7.65625,-1.625 "/>
</g>

<g fill="#212121" fill-opacity="1" stroke="none" transform="matrix(0,-0.428571,0.428571,0,10.2542,98.18)"
font-family="MS Shell Dlg 2" font-size="8.14286" font-weight="400" font-style="normal" 
>
<path vector-effect="none" fill-rule="evenodd" d="M7.75,6.20313 C6.82292,5.47396 6.02344,4.63542 5.35156,3.6875 C4.67969,2.73958 4.13021,1.72656 3.70313,0.648438 C3.27604,-0.429688 2.95573,-1.55469 2.74219,-2.72656 C2.52865,-3.89844 2.42188,-5.07292 2.42188,-6.25 C2.42188,-7.44792 2.52865,-8.63281 2.74219,-9.80469 C2.95573,-10.9766 3.28125,-12.1042 3.71875,-13.1875 C4.15625,-14.2708 4.71094,-15.2839 5.38281,-16.2266 C6.05469,-17.1693 6.84375,-17.9948 7.75,-18.7031 C7.75,-18.7344 7.79167,-18.75 7.875,-18.75 L8.10938,-18.75 C8.15104,-18.75 8.19271,-18.7266 8.23438,-18.6797 C8.27604,-18.6328 8.29688,-18.5833 8.29688,-18.5313 C8.29688,-18.4583 8.28125,-18.4063 8.25,-18.375 C7.4375,-17.5729 6.76042,-16.7161 6.21875,-15.8047 C5.67708,-14.8932 5.24219,-13.9245 4.91406,-12.8984 C4.58594,-11.8724 4.34896,-10.8073 4.20313,-9.70313 C4.05729,-8.59896 3.98438,-7.44792 3.98438,-6.25 C3.98438,-0.947917 5.40104,3.07813 8.23438,5.82813 C8.27604,5.86979 8.29688,5.9375 8.29688,6.03125 C8.29688,6.07292 8.27604,6.11979 8.23438,6.17188 C8.19271,6.22396 8.15104,6.25 8.10938,6.25 L7.875,6.25 C7.79167,6.25 7.75,6.23438 7.75,6.20313 "/>
</g>

<g fill="#212121" fill-opacity="1" stroke="none" transform="matrix(0,-0.428571,0.428571,0,10.2542,93.9022)"
font-family="MS Shell Dlg 2" font-size="8.14286" font-weight="400" font-style="normal" 
>
<path vector-effect="none" fill-rule="evenodd" d="M9.73438,0.546875 C8.14063,0.546875 6.71094,0.125 5.44531,-0.71875 C4.17969,-1.5625 3.1901,-2.68229 2.47656,-4.07813 C1.76302,-5.47396 1.40625,-6.9375 1.40625,-8.46875 C1.40625,-9.61458 1.61198,-10.7448 2.02344,-11.8594 C2.4349,-12.974 3.00781,-13.9609 3.74219,-14.8203 C4.47656,-15.6797 5.36198,-16.362 6.39844,-16.8672 C7.4349,-17.3724 8.54688,-17.625 9.73438,-17.625 C10.9115,-17.625 12.0182,-17.3698 13.0547,-16.8594 C14.0911,-16.349 14.9792,-15.6589 15.7188,-14.7891 C16.4583,-13.9193 17.0286,-12.9427 17.4297,-11.8594 C17.8307,-10.776 18.0313,-9.64583 18.0313,-8.46875 C18.0313,-6.9375 17.6719,-5.47396 16.9531,-4.07813 C16.2344,-2.68229 15.2422,-1.5625 13.9766,-0.71875 C12.7109,0.125 11.2969,0.546875 9.73438,0.546875 M5.57813,-2.70313 C6.06771,-1.93229 6.66927,-1.32292 7.38281,-0.875 C8.09635,-0.427083 8.88021,-0.203125 9.73438,-0.203125 C10.276,-0.203125 10.8099,-0.3125 11.3359,-0.53125 C11.862,-0.75 12.3385,-1.04948 12.7656,-1.42969 C13.1927,-1.8099 13.5573,-2.23438 13.8594,-2.70313 C14.849,-4.19271 15.3438,-6.25 15.3438,-8.875 C15.3438,-11.2708 14.849,-13.1667 13.8594,-14.5625 C13.3698,-15.2604 12.7604,-15.8203 12.0313,-16.2422 C11.3021,-16.6641 10.5365,-16.875 9.73438,-16.875 C8.92188,-16.875 8.14844,-16.6641 7.41406,-16.2422 C6.67969,-15.8203 6.06771,-15.2604 5.57813,-14.5625 C5.19271,-14.0208 4.89063,-13.4427 4.67188,-12.8281 C4.45313,-12.2135 4.29948,-11.5755 4.21094,-10.9141 C4.1224,-10.2526 4.07813,-9.57292 4.07813,-8.875 C4.07813,-8.11458 4.11979,-7.375 4.20313,-6.65625 C4.28646,-5.9375 4.44531,-5.23177 4.67969,-4.53906 C4.91406,-3.84635 5.21354,-3.23438 5.57813,-2.70313 "/>
</g>

<g fill="#212121" fill-opacity="1" stroke="none" transform="matrix(0,-0.428571,0.428571,0,10.2542,85.3466)"
font-family="MS Shell Dlg 2" font-size="8.14286" font-weight="400" font-style="normal" 
>
<path vector-effect="none" fill-rule="evenodd" d="M0.828125,0 L0.828125,-0.875 C2.54688,-0.875 3.40625,-1.14063 3.40625,-1.67188 L3.40625,-15.4063 C3.40625,-15.9375 2.54688,-16.2031 0.828125,-16.2031 L0.828125,-17.0781 L10.0469,-17.0781 C11.1823,-17.0781 12.224,-16.8307 13.1719,-16.3359 C14.1198,-15.8411 14.9271,-15.1849 15.5938,-14.3672 C16.2604,-13.5495 16.7734,-12.6198 17.1328,-11.5781 C17.4922,-10.5365 17.6719,-9.46875 17.6719,-8.375 C17.6719,-7.3125 17.4896,-6.28385 17.125,-5.28906 C16.7604,-4.29427 16.2344,-3.39583 15.5469,-2.59375 C14.8594,-1.79167 14.0443,-1.15885 13.1016,-0.695313 C12.1589,-0.231771 11.1406,0 10.0469,0 L0.828125,0 M5.65625,-1.67188 C5.65625,-1.31771 5.75781,-1.09635 5.96094,-1.00781 C6.16406,-0.919271 6.48438,-0.875 6.92188,-0.875 L9.40625,-0.875 C10.2604,-0.875 11.0703,-1.0599 11.8359,-1.42969 C12.6016,-1.79948 13.2396,-2.31771 13.75,-2.98438 C14.2708,-3.68229 14.6224,-4.46354 14.8047,-5.32813 C14.987,-6.19271 15.0781,-7.20833 15.0781,-8.375 C15.0781,-9.58333 14.987,-10.6432 14.8047,-11.5547 C14.6224,-12.4661 14.2708,-13.2813 13.75,-14 C13.25,-14.7083 12.6172,-15.2526 11.8516,-15.6328 C11.0859,-16.013 10.2708,-16.2031 9.40625,-16.2031 L6.92188,-16.2031 C6.61979,-16.2031 6.38542,-16.1901 6.21875,-16.1641 C6.05208,-16.138 5.91667,-16.0651 5.8125,-15.9453 C5.70833,-15.8255 5.65625,-15.6458 5.65625,-15.4063 L5.65625,-1.67188"/>
</g>

<g fill="#212121" fill-opacity="1" stroke="none" transform="matrix(0,-0.428571,0.428571,0,10.2542,76.9438)"
font-family="MS Shell Dlg 2" font-size="8.14286" font-weight="400" font-style="normal" 
>
<path vector-effect="none" fill-rule="evenodd" d="M5.75,-2.67188 C6.35417,-1.94271 7.08854,-1.36979 7.95313,-0.953125 C8.81771,-0.536458 9.72396,-0.328125 10.6719,-0.328125 C11.599,-0.328125 12.4401,-0.565104 13.1953,-1.03906 C13.9505,-1.51302 14.3281,-2.18229 14.3281,-3.04688 L14.3281,-5.15625 C14.3281,-5.67708 13.2865,-5.9375 11.2031,-5.9375 L11.2031,-6.82813 L18.375,-6.82813 L18.375,-5.9375 C17.8438,-5.9375 17.4245,-5.89323 17.1172,-5.80469 C16.8099,-5.71615 16.6563,-5.5 16.6563,-5.15625 L16.6563,-0.21875 C16.6563,-0.166667 16.6328,-0.117188 16.5859,-0.0703125 C16.5391,-0.0234375 16.4896,0 16.4375,0 C16.2813,0 16.0208,-0.182292 15.6563,-0.546875 C15.2917,-0.911458 15.0052,-1.23958 14.7969,-1.53125 C14.3906,-0.822917 13.7526,-0.299479 12.8828,0.0390625 C12.013,0.377604 11.099,0.546875 10.1406,0.546875 C8.52604,0.546875 7.05208,0.130208 5.71875,-0.703125 C4.38542,-1.53646 3.33333,-2.65104 2.5625,-4.04688 C1.79167,-5.44271 1.40625,-6.94271 1.40625,-8.54688 C1.40625,-9.72396 1.63021,-10.8698 2.07813,-11.9844 C2.52604,-13.099 3.15104,-14.0807 3.95313,-14.9297 C4.75521,-15.7786 5.6875,-16.4401 6.75,-16.9141 C7.8125,-17.388 8.94271,-17.625 10.1406,-17.625 C11.0052,-17.625 11.8229,-17.4401 12.5938,-17.0703 C13.3646,-16.7005 14.0521,-16.1771 14.6563,-15.5 L16.0938,-17.5469 C16.1979,-17.599 16.2552,-17.625 16.2656,-17.625 L16.4531,-17.625 C16.5052,-17.625 16.5521,-17.6042 16.5938,-17.5625 C16.6354,-17.5208 16.6563,-17.474 16.6563,-17.4219 L16.6563,-10.6719 C16.6563,-10.526 16.5885,-10.4531 16.4531,-10.4531 L16,-10.4531 C15.8438,-10.4531 15.7656,-10.526 15.7656,-10.6719 C15.7656,-11.151 15.6719,-11.6875 15.4844,-12.2813 C15.2969,-12.875 15.0547,-13.4375 14.7578,-13.9688 C14.4609,-14.5 14.1146,-14.9688 13.7188,-15.375 C12.7813,-16.2917 11.7083,-16.75 10.5,-16.75 C9.57292,-16.75 8.6849,-16.5417 7.83594,-16.125 C6.98698,-15.7083 6.27604,-15.1354 5.70313,-14.4063 C5.08854,-13.625 4.66406,-12.7344 4.42969,-11.7344 C4.19531,-10.7344 4.07813,-9.67188 4.07813,-8.54688 C4.07813,-5.99479 4.63542,-4.03646 5.75,-2.67188 "/>
</g>

<g fill="#212121" fill-opacity="1" stroke="none" transform="matrix(0,-0.428571,0.428571,0,10.2542,68.3119)"
font-family="MS Shell Dlg 2" font-size="8.14286" font-weight="400" font-style="normal" 
>
<path vector-effect="none" fill-rule="evenodd" d="M1.625,6.25 C1.47917,6.25 1.40625,6.17708 1.40625,6.03125 C1.40625,5.95833 1.42188,5.90625 1.45313,5.875 C4.29688,3.09375 5.71875,-0.947917 5.71875,-6.25 C5.71875,-11.5521 4.3125,-15.5781 1.5,-18.3281 C1.4375,-18.3698 1.40625,-18.4375 1.40625,-18.5313 C1.40625,-18.5833 1.42708,-18.6328 1.46875,-18.6797 C1.51042,-18.7266 1.5625,-18.75 1.625,-18.75 L1.85938,-18.75 C1.90104,-18.75 1.94271,-18.7344 1.98438,-18.7031 C3.17188,-17.7552 4.16667,-16.6068 4.96875,-15.2578 C5.77083,-13.9089 6.35677,-12.4688 6.72656,-10.9375 C7.09635,-9.40625 7.28125,-7.84375 7.28125,-6.25 C7.28125,-5.07292 7.17969,-3.91146 6.97656,-2.76563 C6.77344,-1.61979 6.45573,-0.492188 6.02344,0.617188 C5.59115,1.72656 5.04167,2.7526 4.375,3.69531 C3.70833,4.63802 2.91146,5.47396 1.98438,6.20313 C1.94271,6.23438 1.90104,6.25 1.85938,6.25 L1.625,6.25"/>
</g>

<g fill="#212121" fill-opacity="1" stroke="#212121" stroke-opacity="1" stroke-width="1.16667" stroke-linecap="square" stroke-linejoin="round" transform="matrix(0.428571,0,0,0.428571,0,0)"
font-family="MS Shell Dlg 2" font-size="8.14286" font-weight="400" font-style="normal" 
>
<polyline fill="none" vector-effect="none" points="102,455 102,39.0001 " />
<polyline fill="none" vector-effect="none" points="713,455 713,39.0001 " />
<polyline fill="none" vector-effect="none" points="102,455 108.11,455 " />
<polyline fill="none" vector-effect="none" points="706.89,455 713,455 " />
<polyline fill="none" vector-effect="none" points="102,385.667 108.11,385.667 " />
<polyline fill="none" vector-effect="none" points="706.89,385.667 713,385.667 " />
<polyline fill="none" vector-effect="none" points="102,316.333 108.11,316.333 " />
<polyline fill="none" vector-effect="none" points="706.89,316.333 713,316.333 " />
<polyline fill="none" vector-effect="none" points="102,247 108.11,247 " />
<polyline fill="none" vector-effect="none" points="706.89,247 713,247 " />
<polyline fill="none" vector-effect="none" points="102,177.667 108.11,177.667 " />
<polyline fill="none" vector-effect="none" points="706.89,177.667 713,177.667 " />
<polyline fill="none" vector-effect="none" points="102,108.333 108.11,108.333 " />
<polyline fill="none" vector-effect="none" points="706.89,108.333 713,108.333 " />
<polyline fill="none" vector-effect="none" points="102,39.0001 108.11,39.0001 " />
<polyline fill="none" vector-effect="none" points="706.89,39.0001 713,39.0001 " />
</g>

<g fill="#212121" fill-opacity="1" stroke="none" transform="matrix(0.428571,0,0,0.428571,23.6031,197.4)"
font-family="MS Shell Dlg 2" font-size="8.14286" font-weight="400" font-style="normal" 
>
<path vector-effect="none" fill-rule="evenodd" d="M0.265625,-4.25 L0.265625,-5.6875 L6.34375,-5.6875 L6.34375,-4.25 L0.265625,-4.25"/>
</g>

<g fill="#212121" fill-opacity="1" stroke="none" transform="matrix(0.428571,0,0,0.428571,26.9365,197.4)"
font-family="MS Shell Dlg 2" font-size="8.14286" font-weight="400" font-style="normal" 
>
<path vector-effect="none" fill-rule="evenodd" d="M2.1875,-1.78125 C2.55208,-1.26042 3.03646,-0.872396 3.64063,-0.617188 C4.24479,-0.361979 4.89583,-0.234375 5.59375,-0.234375 C6.47917,-0.234375 7.10938,-0.614583 7.48438,-1.375 C7.85938,-2.13542 8.04688,-3 8.04688,-3.96875 C8.04688,-4.39583 8.00781,-4.82813 7.92969,-5.26563 C7.85156,-5.70313 7.71875,-6.10938 7.53125,-6.48438 C7.34375,-6.85938 7.08854,-7.15885 6.76563,-7.38281 C6.44271,-7.60677 6.04688,-7.71875 5.57813,-7.71875 L4.04688,-7.71875 C3.91146,-7.71875 3.84375,-7.78646 3.84375,-7.92188 L3.84375,-8.125 C3.84375,-8.23958 3.91146,-8.29688 4.04688,-8.29688 L5.3125,-8.40625 C5.85417,-8.40625 6.30208,-8.60677 6.65625,-9.00781 C7.01042,-9.40885 7.27083,-9.90104 7.4375,-10.4844 C7.60417,-11.0677 7.6875,-11.6198 7.6875,-12.1406 C7.6875,-12.8698 7.51563,-13.4714 7.17188,-13.9453 C6.82813,-14.4193 6.30208,-14.6563 5.59375,-14.6563 C5.01042,-14.6563 4.45313,-14.5469 3.92188,-14.3281 C3.39063,-14.1094 2.96875,-13.7708 2.65625,-13.3125 C2.6875,-13.3229 2.71354,-13.3307 2.73438,-13.3359 C2.75521,-13.3411 2.78125,-13.3438 2.8125,-13.3438 C3.15625,-13.3438 3.44271,-13.224 3.67188,-12.9844 C3.90104,-12.7448 4.01563,-12.4583 4.01563,-12.125 C4.01563,-11.7917 3.90104,-11.5052 3.67188,-11.2656 C3.44271,-11.026 3.15625,-10.9063 2.8125,-10.9063 C2.46875,-10.9063 2.17708,-11.026 1.9375,-11.2656 C1.69792,-11.5052 1.57813,-11.7917 1.57813,-12.125 C1.57813,-12.7813 1.77865,-13.3516 2.17969,-13.8359 C2.58073,-14.3203 3.09375,-14.6875 3.71875,-14.9375 C4.34375,-15.1875 4.96875,-15.3125 5.59375,-15.3125 C6.0625,-15.3125 6.55469,-15.2448 7.07031,-15.1094 C7.58594,-14.974 8.05208,-14.776 8.46875,-14.5156 C8.88542,-14.2552 9.22656,-13.9245 9.49219,-13.5234 C9.75781,-13.1224 9.89063,-12.6615 9.89063,-12.1406 C9.89063,-11.4948 9.7474,-10.8984 9.46094,-10.3516 C9.17448,-9.80469 8.78125,-9.33333 8.28125,-8.9375 C7.78125,-8.54167 7.22917,-8.25 6.625,-8.0625 C7.29167,-7.92708 7.92448,-7.67448 8.52344,-7.30469 C9.1224,-6.9349 9.60417,-6.45573 9.96875,-5.86719 C10.3333,-5.27865 10.5156,-4.65104 10.5156,-3.98438 C10.5156,-3.13021 10.2839,-2.36198 9.82031,-1.67969 C9.35677,-0.997396 8.74479,-0.463542 7.98438,-0.078125 C7.22396,0.307292 6.42708,0.5 5.59375,0.5 C4.875,0.5 4.15365,0.364583 3.42969,0.09375 C2.70573,-0.177083 2.11458,-0.585938 1.65625,-1.13281 C1.19792,-1.67969 0.96875,-2.33854 0.96875,-3.10938 C0.96875,-3.49479 1.09635,-3.8151 1.35156,-4.07031 C1.60677,-4.32552 1.92188,-4.45313 2.29688,-4.45313 C2.54688,-4.45313 2.77604,-4.39323 2.98438,-4.27344 C3.19271,-4.15365 3.35417,-3.98958 3.46875,-3.78125 C3.58333,-3.57292 3.64063,-3.34896 3.64063,-3.10938 C3.64063,-2.73438 3.51042,-2.41927 3.25,-2.16406 C2.98958,-1.90885 2.67188,-1.78125 2.29688,-1.78125 L2.1875,-1.78125"/>
</g>

<g fill="#212121" fill-opacity="1" stroke="none" transform="matrix(0.428571,0,0,0.428571,31.9365,197.4)"
font-family="MS Shell Dlg 2" font-size="8.14286" font-weight="400" font-style="normal" 
>
<path vector-effect="none" fill-rule="evenodd" d="M1.9375,-1.26563 C1.9375,-1.60938 2.0651,-1.90625 2.32031,-2.15625 C2.57552,-2.40625 2.86979,-2.53125 3.20313,-2.53125 C3.41146,-2.53125 3.61719,-2.47396 3.82031,-2.35938 C4.02344,-2.24479 4.17969,-2.08594 4.28906,-1.88281 C4.39844,-1.67969 4.45313,-1.47396 4.45313,-1.26563 C4.45313,-0.932292 4.33073,-0.638021 4.08594,-0.382813 C3.84115,-0.127604 3.54688,0 3.20313,0 C2.86979,0 2.57552,-0.127604 2.32031,-0.382813 C2.0651,-0.638021 1.9375,-0.932292 1.9375,-1.26563 "/>
</g>

<g fill="#212121" fill-opacity="1" stroke="none" transform="matrix(0.428571,0,0,0.428571,34.7143,197.4)"
font-family="MS Shell Dlg 2" font-size="8.14286" font-weight="400" font-style="normal" 
>
<path vector-effect="none" fill-rule="evenodd" d="M1.14063,0 L1.14063,-0.625 C1.14063,-0.65625 1.15625,-0.692708 1.1875,-0.734375 L4.76563,-4.6875 C5.30729,-5.28125 5.74479,-5.77604 6.07813,-6.17188 C6.41146,-6.56771 6.74219,-7.02344 7.07031,-7.53906 C7.39844,-8.05469 7.65885,-8.58073 7.85156,-9.11719 C8.04427,-9.65365 8.14063,-10.2188 8.14063,-10.8125 C8.14063,-11.4479 8.02604,-12.0521 7.79688,-12.625 C7.56771,-13.1979 7.22135,-13.6563 6.75781,-14 C6.29427,-14.3438 5.73958,-14.5156 5.09375,-14.5156 C4.42708,-14.5156 3.82813,-14.3151 3.29688,-13.9141 C2.76563,-13.513 2.39063,-12.9948 2.17188,-12.3594 C2.22396,-12.3698 2.30729,-12.375 2.42188,-12.375 C2.76563,-12.375 3.05729,-12.2604 3.29688,-12.0313 C3.53646,-11.8021 3.65625,-11.5 3.65625,-11.125 C3.65625,-10.7813 3.53646,-10.487 3.29688,-10.2422 C3.05729,-9.9974 2.76563,-9.875 2.42188,-9.875 C2.05729,-9.875 1.7526,-10 1.50781,-10.25 C1.26302,-10.5 1.14063,-10.7917 1.14063,-11.125 C1.14063,-11.7083 1.25,-12.2526 1.46875,-12.7578 C1.6875,-13.263 2,-13.7109 2.40625,-14.1016 C2.8125,-14.4922 3.27344,-14.7917 3.78906,-15 C4.30469,-15.2083 4.84896,-15.3125 5.42188,-15.3125 C6.29688,-15.3125 7.11198,-15.1276 7.86719,-14.7578 C8.6224,-14.388 9.22135,-13.8646 9.66406,-13.1875 C10.1068,-12.5104 10.3281,-11.7188 10.3281,-10.8125 C10.3281,-10.1458 10.1823,-9.51302 9.89063,-8.91406 C9.59896,-8.3151 9.22656,-7.77083 8.77344,-7.28125 C8.32031,-6.79167 7.73698,-6.23698 7.02344,-5.61719 C6.3099,-4.9974 5.83854,-4.58333 5.60938,-4.375 L3.01563,-1.85938 L5.21875,-1.85938 C6.30208,-1.85938 7.21094,-1.86979 7.94531,-1.89063 C8.67969,-1.91146 9.06771,-1.94271 9.10938,-1.98438 C9.28646,-2.17188 9.46875,-2.875 9.65625,-4.09375 L10.3281,-4.09375 L9.6875,0 L1.14063,0"/>
</g>

<g fill="#212121" fill-opacity="1" stroke="none" transform="matrix(0.428571,0,0,0.428571,18.6031,167.686)"
font-family="MS Shell Dlg 2" font-size="8.14286" font-weight="400" font-style="normal" 
>
<path vector-effect="none" fill-rule="evenodd" d="M0.265625,-4.25 L0.265625,-5.6875 L6.34375,-5.6875 L6.34375,-4.25 L0.265625,-4.25"/>
</g>

<g fill="#212121" fill-opacity="1" stroke="none" transform="matrix(0.428571,0,0,0.428571,21.9365,167.686)"
font-family="MS Shell Dlg 2" font-size="8.14286" font-weight="400" font-style="normal" 
>
<path vector-effect="none" fill-rule="evenodd" d="M2.1875,-1.78125 C2.55208,-1.26042 3.03646,-0.872396 3.64063,-0.617188 C4.24479,-0.361979 4.89583,-0.234375 5.59375,-0.234375 C6.47917,-0.234375 7.10938,-0.614583 7.48438,-1.375 C7.85938,-2.13542 8.04688,-3 8.04688,-3.96875 C8.04688,-4.39583 8.00781,-4.82813 7.92969,-5.26563 C7.85156,-5.70313 7.71875,-6.10938 7.53125,-6.48438 C7.34375,-6.85938 7.08854,-7.15885 6.76563,-7.38281 C6.44271,-7.60677 6.04688,-7.71875 5.57813,-7.71875 L4.04688,-7.71875 C3.91146,-7.71875 3.84375,-7.78646 3.84375,-7.92188 L3.84375,-8.125 C3.84375,-8.23958 3.91146,-8.29688 4.04688,-8.29688 L5.3125,-8.40625 C5.85417,-8.40625 6.30208,-8.60677 6.65625,-9.00781 C7.01042,-9.40885 7.27083,-9.90104 7.4375,-10.4844 C7.60417,-11.0677 7.6875,-11.6198 7.6875,-12.1406 C7.6875,-12.8698 7.51563,-13.4714 7.17188,-13.9453 C6.82813,-14.4193 6.30208,-14.6563 5.59375,-14.6563 C5.01042,-14.6563 4.45313,-14.5469 3.92188,-14.3281 C3.39063,-14.1094 2.96875,-13.7708 2.65625,-13.3125 C2.6875,-13.3229 2.71354,-13.3307 2.73438,-13.3359 C2.75521,-13.3411 2.78125,-13.3438 2.8125,-13.3438 C3.15625,-13.3438 3.44271,-13.224 3.67188,-12.9844 C3.90104,-12.7448 4.01563,-12.4583 4.01563,-12.125 C4.01563,-11.7917 3.90104,-11.5052 3.67188,-11.2656 C3.44271,-11.026 3.15625,-10.9063 2.8125,-10.9063 C2.46875,-10.9063 2.17708,-11.026 1.9375,-11.2656 C1.69792,-11.5052 1.57813,-11.7917 1.57813,-12.125 C1.57813,-12.7813 1.77865,-13.3516 2.17969,-13.8359 C2.58073,-14.3203 3.09375,-14.6875 3.71875,-14.9375 C4.34375,-15.1875 4.96875,-15.3125 5.59375,-15.3125 C6.0625,-15.3125 6.55469,-15.2448 7.07031,-15.1094 C7.58594,-14.974 8.05208,-14.776 8.46875,-14.5156 C8.88542,-14.2552 9.22656,-13.9245 9.49219,-13.5234 C9.75781,-13.1224 9.89063,-12.6615 9.89063,-12.1406 C9.89063,-11.4948 9.7474,-10.8984 9.46094,-10.3516 C9.17448,-9.80469 8.78125,-9.33333 8.28125,-8.9375 C7.78125,-8.54167 7.22917,-8.25 6.625,-8.0625 C7.29167,-7.92708 7.92448,-7.67448 8.52344,-7.30469 C9.1224,-6.9349 9.60417,-6.45573 9.96875,-5.86719 C10.3333,-5.27865 10.5156,-4.65104 10.5156,-3.98438 C10.5156,-3.13021 10.2839,-2.36198 9.82031,-1.67969 C9.35677,-0.997396 8.74479,-0.463542 7.98438,-0.078125 C7.22396,0.307292 6.42708,0.5 5.59375,0.5 C4.875,0.5 4.15365,0.364583 3.42969,0.09375 C2.70573,-0.177083 2.11458,-0.585938 1.65625,-1.13281 C1.19792,-1.67969 0.96875,-2.33854 0.96875,-3.10938 C0.96875,-3.49479 1.09635,-3.8151 1.35156,-4.07031 C1.60677,-4.32552 1.92188,-4.45313 2.29688,-4.45313 C2.54688,-4.45313 2.77604,-4.39323 2.98438,-4.27344 C3.19271,-4.15365 3.35417,-3.98958 3.46875,-3.78125 C3.58333,-3.57292 3.64063,-3.34896 3.64063,-3.10938 C3.64063,-2.73438 3.51042,-2.41927 3.25,-2.16406 C2.98958,-1.90885 2.67188,-1.78125 2.29688,-1.78125 L2.1875,-1.78125"/>
</g>

<g fill="#212121" fill-opacity="1" stroke="none" transform="matrix(0.428571,0,0,0.428571,26.9365,167.686)"
font-family="MS Shell Dlg 2" font-size="8.14286" font-weight="400" font-style="normal" 
>
<path vector-effect="none" fill-rule="evenodd" d="M1.9375,-1.26563 C1.9375,-1.60938 2.0651,-1.90625 2.32031,-2.15625 C2.57552,-2.40625 2.86979,-2.53125 3.20313,-2.53125 C3.41146,-2.53125 3.61719,-2.47396 3.82031,-2.35938 C4.02344,-2.24479 4.17969,-2.08594 4.28906,-1.88281 C4.39844,-1.67969 4.45313,-1.47396 4.45313,-1.26563 C4.45313,-0.932292 4.33073,-0.638021 4.08594,-0.382813 C3.84115,-0.127604 3.54688,0 3.20313,0 C2.86979,0 2.57552,-0.127604 2.32031,-0.382813 C2.0651,-0.638021 1.9375,-0.932292 1.9375,-1.26563 "/>
</g>

<g fill="#212121" fill-opacity="1" stroke="none" transform="matrix(0.428571,0,0,0.428571,29.7143,167.686)"
font-family="MS Shell Dlg 2" font-size="8.14286" font-weight="400" font-style="normal" 
>
<path vector-effect="none" fill-rule="evenodd" d="M2.14063,0 L2.14063,-0.8125 C4.05729,-0.8125 5.01563,-1.05208 5.01563,-1.53125 L5.01563,-13.6094 C4.21354,-13.224 3.20833,-13.0313 2,-13.0313 L2,-13.8438 C3.875,-13.8438 5.29167,-14.3333 6.25,-15.3125 L6.57813,-15.3125 C6.63021,-15.3125 6.68229,-15.2917 6.73438,-15.25 C6.78646,-15.2083 6.8125,-15.1615 6.8125,-15.1094 L6.8125,-1.53125 C6.8125,-1.05208 7.77083,-0.8125 9.6875,-0.8125 L9.6875,0 L2.14063,0"/>
</g>

<g fill="#212121" fill-opacity="1" stroke="none" transform="matrix(0.428571,0,0,0.428571,34.7143,167.686)"
font-family="MS Shell Dlg 2" font-size="8.14286" font-weight="400" font-style="normal" 
>
<path vector-effect="none" fill-rule="evenodd" d="M2,-2.625 C2.15625,-2.17708 2.39844,-1.77083 2.72656,-1.40625 C3.05469,-1.04167 3.4401,-0.755208 3.88281,-0.546875 C4.32552,-0.338542 4.78646,-0.234375 5.26563,-0.234375 C6.36979,-0.234375 7.13281,-0.664063 7.55469,-1.52344 C7.97656,-2.38281 8.1875,-3.42708 8.1875,-4.65625 C8.1875,-5.1875 8.17708,-5.63542 8.15625,-6 C8.13542,-6.36458 8.08333,-6.71354 8,-7.04688 C7.86458,-7.58854 7.61979,-8.0599 7.26563,-8.46094 C6.91146,-8.86198 6.47396,-9.0625 5.95313,-9.0625 C5.43229,-9.0625 4.98698,-8.98438 4.61719,-8.82813 C4.2474,-8.67188 3.94792,-8.48958 3.71875,-8.28125 C3.48958,-8.07292 3.28385,-7.85156 3.10156,-7.61719 C2.91927,-7.38281 2.80729,-7.26042 2.76563,-7.25 L2.5,-7.25 C2.46875,-7.25 2.42448,-7.27344 2.36719,-7.32031 C2.3099,-7.36719 2.28125,-7.41146 2.28125,-7.45313 L2.28125,-15.1406 C2.28125,-15.1719 2.30469,-15.2083 2.35156,-15.25 C2.39844,-15.2917 2.44792,-15.3125 2.5,-15.3125 L2.57813,-15.3125 C3.60938,-14.8229 4.70313,-14.5781 5.85938,-14.5781 C6.99479,-14.5781 8.09375,-14.8229 9.15625,-15.3125 L9.21875,-15.3125 C9.27083,-15.3125 9.32031,-15.2943 9.36719,-15.2578 C9.41406,-15.2214 9.4375,-15.1823 9.4375,-15.1406 L9.4375,-14.9219 C9.4375,-14.849 9.42188,-14.8125 9.39063,-14.8125 C8.86979,-14.1146 8.21354,-13.5703 7.42188,-13.1797 C6.63021,-12.7891 5.8125,-12.5938 4.96875,-12.5938 C4.35417,-12.5938 3.72396,-12.6823 3.07813,-12.8594 L3.07813,-8.51563 C3.58854,-8.92188 4.04427,-9.21354 4.44531,-9.39063 C4.84635,-9.56771 5.35417,-9.65625 5.96875,-9.65625 C6.82292,-9.65625 7.58333,-9.41406 8.25,-8.92969 C8.91667,-8.44531 9.42969,-7.8099 9.78906,-7.02344 C10.1484,-6.23698 10.3281,-5.4375 10.3281,-4.625 C10.3281,-3.70833 10.1016,-2.85677 9.64844,-2.07031 C9.19531,-1.28385 8.58073,-0.658854 7.80469,-0.195313 C7.02865,0.268229 6.18229,0.5 5.26563,0.5 C4.51563,0.5 3.82292,0.307292 3.1875,-0.078125 C2.55208,-0.463542 2.05208,-0.986979 1.6875,-1.64844 C1.32292,-2.3099 1.14063,-3.01042 1.14063,-3.75 C1.14063,-4.09375 1.2526,-4.375 1.47656,-4.59375 C1.70052,-4.8125 1.98438,-4.92188 2.32813,-4.92188 C2.66146,-4.92188 2.94271,-4.8125 3.17188,-4.59375 C3.40104,-4.375 3.51563,-4.09375 3.51563,-3.75 C3.51563,-3.42708 3.40104,-3.15104 3.17188,-2.92188 C2.94271,-2.69271 2.66146,-2.57813 2.32813,-2.57813 C2.27604,-2.57813 2.21615,-2.58333 2.14844,-2.59375 C2.08073,-2.60417 2.03125,-2.61458 2,-2.625 "/>
</g>

<g fill="#212121" fill-opacity="1" stroke="none" transform="matrix(0.428571,0,0,0.428571,23.6031,137.971)"
font-family="MS Shell Dlg 2" font-size="8.14286" font-weight="400" font-style="normal" 
>
<path vector-effect="none" fill-rule="evenodd" d="M0.265625,-4.25 L0.265625,-5.6875 L6.34375,-5.6875 L6.34375,-4.25 L0.265625,-4.25"/>
</g>

<g fill="#212121" fill-opacity="1" stroke="none" transform="matrix(0.428571,0,0,0.428571,26.9365,137.971)"
font-family="MS Shell Dlg 2" font-size="8.14286" font-weight="400" font-style="normal" 
>
<path vector-effect="none" fill-rule="evenodd" d="M2.1875,-1.78125 C2.55208,-1.26042 3.03646,-0.872396 3.64063,-0.617188 C4.24479,-0.361979 4.89583,-0.234375 5.59375,-0.234375 C6.47917,-0.234375 7.10938,-0.614583 7.48438,-1.375 C7.85938,-2.13542 8.04688,-3 8.04688,-3.96875 C8.04688,-4.39583 8.00781,-4.82813 7.92969,-5.26563 C7.85156,-5.70313 7.71875,-6.10938 7.53125,-6.48438 C7.34375,-6.85938 7.08854,-7.15885 6.76563,-7.38281 C6.44271,-7.60677 6.04688,-7.71875 5.57813,-7.71875 L4.04688,-7.71875 C3.91146,-7.71875 3.84375,-7.78646 3.84375,-7.92188 L3.84375,-8.125 C3.84375,-8.23958 3.91146,-8.29688 4.04688,-8.29688 L5.3125,-8.40625 C5.85417,-8.40625 6.30208,-8.60677 6.65625,-9.00781 C7.01042,-9.40885 7.27083,-9.90104 7.4375,-10.4844 C7.60417,-11.0677 7.6875,-11.6198 7.6875,-12.1406 C7.6875,-12.8698 7.51563,-13.4714 7.17188,-13.9453 C6.82813,-14.4193 6.30208,-14.6563 5.59375,-14.6563 C5.01042,-14.6563 4.45313,-14.5469 3.92188,-14.3281 C3.39063,-14.1094 2.96875,-13.7708 2.65625,-13.3125 C2.6875,-13.3229 2.71354,-13.3307 2.73438,-13.3359 C2.75521,-13.3411 2.78125,-13.3438 2.8125,-13.3438 C3.15625,-13.3438 3.44271,-13.224 3.67188,-12.9844 C3.90104,-12.7448 4.01563,-12.4583 4.01563,-12.125 C4.01563,-11.7917 3.90104,-11.5052 3.67188,-11.2656 C3.44271,-11.026 3.15625,-10.9063 2.8125,-10.9063 C2.46875,-10.9063 2.17708,-11.026 1.9375,-11.2656 C1.69792,-11.5052 1.57813,-11.7917 1.57813,-12.125 C1.57813,-12.7813 1.77865,-13.3516 2.17969,-13.8359 C2.58073,-14.3203 3.09375,-14.6875 3.71875,-14.9375 C4.34375,-15.1875 4.96875,-15.3125 5.59375,-15.3125 C6.0625,-15.3125 6.55469,-15.2448 7.07031,-15.1094 C7.58594,-14.974 8.05208,-14.776 8.46875,-14.5156 C8.88542,-14.2552 9.22656,-13.9245 9.49219,-13.5234 C9.75781,-13.1224 9.89063,-12.6615 9.89063,-12.1406 C9.89063,-11.4948 9.7474,-10.8984 9.46094,-10.3516 C9.17448,-9.80469 8.78125,-9.33333 8.28125,-8.9375 C7.78125,-8.54167 7.22917,-8.25 6.625,-8.0625 C7.29167,-7.92708 7.92448,-7.67448 8.52344,-7.30469 C9.1224,-6.9349 9.60417,-6.45573 9.96875,-5.86719 C10.3333,-5.27865 10.5156,-4.65104 10.5156,-3.98438 C10.5156,-3.13021 10.2839,-2.36198 9.82031,-1.67969 C9.35677,-0.997396 8.74479,-0.463542 7.98438,-0.078125 C7.22396,0.307292 6.42708,0.5 5.59375,0.5 C4.875,0.5 4.15365,0.364583 3.42969,0.09375 C2.70573,-0.177083 2.11458,-0.585938 1.65625,-1.13281 C1.19792,-1.67969 0.96875,-2.33854 0.96875,-3.10938 C0.96875,-3.49479 1.09635,-3.8151 1.35156,-4.07031 C1.60677,-4.32552 1.92188,-4.45313 2.29688,-4.45313 C2.54688,-4.45313 2.77604,-4.39323 2.98438,-4.27344 C3.19271,-4.15365 3.35417,-3.98958 3.46875,-3.78125 C3.58333,-3.57292 3.64063,-3.34896 3.64063,-3.10938 C3.64063,-2.73438 3.51042,-2.41927 3.25,-2.16406 C2.98958,-1.90885 2.67188,-1.78125 2.29688,-1.78125 L2.1875,-1.78125"/>
</g>

<g fill="#212121" fill-opacity="1" stroke="none" transform="matrix(0.428571,0,0,0.428571,31.9365,137.971)"
font-family="MS Shell Dlg 2" font-size="8.14286" font-weight="400" font-style="normal" 
>
<path vector-effect="none" fill-rule="evenodd" d="M1.9375,-1.26563 C1.9375,-1.60938 2.0651,-1.90625 2.32031,-2.15625 C2.57552,-2.40625 2.86979,-2.53125 3.20313,-2.53125 C3.41146,-2.53125 3.61719,-2.47396 3.82031,-2.35938 C4.02344,-2.24479 4.17969,-2.08594 4.28906,-1.88281 C4.39844,-1.67969 4.45313,-1.47396 4.45313,-1.26563 C4.45313,-0.932292 4.33073,-0.638021 4.08594,-0.382813 C3.84115,-0.127604 3.54688,0 3.20313,0 C2.86979,0 2.57552,-0.127604 2.32031,-0.382813 C2.0651,-0.638021 1.9375,-0.932292 1.9375,-1.26563 "/>
</g>

<g fill="#212121" fill-opacity="1" stroke="none" transform="matrix(0.428571,0,0,0.428571,34.7143,137.971)"
font-family="MS Shell Dlg 2" font-size="8.14286" font-weight="400" font-style="normal" 
>
<path vector-effect="none" fill-rule="evenodd" d="M2.14063,0 L2.14063,-0.8125 C4.05729,-0.8125 5.01563,-1.05208 5.01563,-1.53125 L5.01563,-13.6094 C4.21354,-13.224 3.20833,-13.0313 2,-13.0313 L2,-13.8438 C3.875,-13.8438 5.29167,-14.3333 6.25,-15.3125 L6.57813,-15.3125 C6.63021,-15.3125 6.68229,-15.2917 6.73438,-15.25 C6.78646,-15.2083 6.8125,-15.1615 6.8125,-15.1094 L6.8125,-1.53125 C6.8125,-1.05208 7.77083,-0.8125 9.6875,-0.8125 L9.6875,0 L2.14063,0"/>
</g>

<g fill="#212121" fill-opacity="1" stroke="none" transform="matrix(0.428571,0,0,0.428571,18.6031,108.257)"
font-family="MS Shell Dlg 2" font-size="8.14286" font-weight="400" font-style="normal" 
>
<path vector-effect="none" fill-rule="evenodd" d="M0.265625,-4.25 L0.265625,-5.6875 L6.34375,-5.6875 L6.34375,-4.25 L0.265625,-4.25"/>
</g>

<g fill="#212121" fill-opacity="1" stroke="none" transform="matrix(0.428571,0,0,0.428571,21.9365,108.257)"
font-family="MS Shell Dlg 2" font-size="8.14286" font-weight="400" font-style="normal" 
>
<path vector-effect="none" fill-rule="evenodd" d="M2.1875,-1.78125 C2.55208,-1.26042 3.03646,-0.872396 3.64063,-0.617188 C4.24479,-0.361979 4.89583,-0.234375 5.59375,-0.234375 C6.47917,-0.234375 7.10938,-0.614583 7.48438,-1.375 C7.85938,-2.13542 8.04688,-3 8.04688,-3.96875 C8.04688,-4.39583 8.00781,-4.82813 7.92969,-5.26563 C7.85156,-5.70313 7.71875,-6.10938 7.53125,-6.48438 C7.34375,-6.85938 7.08854,-7.15885 6.76563,-7.38281 C6.44271,-7.60677 6.04688,-7.71875 5.57813,-7.71875 L4.04688,-7.71875 C3.91146,-7.71875 3.84375,-7.78646 3.84375,-7.92188 L3.84375,-8.125 C3.84375,-8.23958 3.91146,-8.29688 4.04688,-8.29688 L5.3125,-8.40625 C5.85417,-8.40625 6.30208,-8.60677 6.65625,-9.00781 C7.01042,-9.40885 7.27083,-9.90104 7.4375,-10.4844 C7.60417,-11.0677 7.6875,-11.6198 7.6875,-12.1406 C7.6875,-12.8698 7.51563,-13.4714 7.17188,-13.9453 C6.82813,-14.4193 6.30208,-14.6563 5.59375,-14.6563 C5.01042,-14.6563 4.45313,-14.5469 3.92188,-14.3281 C3.39063,-14.1094 2.96875,-13.7708 2.65625,-13.3125 C2.6875,-13.3229 2.71354,-13.3307 2.73438,-13.3359 C2.75521,-13.3411 2.78125,-13.3438 2.8125,-13.3438 C3.15625,-13.3438 3.44271,-13.224 3.67188,-12.9844 C3.90104,-12.7448 4.01563,-12.4583 4.01563,-12.125 C4.01563,-11.7917 3.90104,-11.5052 3.67188,-11.2656 C3.44271,-11.026 3.15625,-10.9063 2.8125,-10.9063 C2.46875,-10.9063 2.17708,-11.026 1.9375,-11.2656 C1.69792,-11.5052 1.57813,-11.7917 1.57813,-12.125 C1.57813,-12.7813 1.77865,-13.3516 2.17969,-13.8359 C2.58073,-14.3203 3.09375,-14.6875 3.71875,-14.9375 C4.34375,-15.1875 4.96875,-15.3125 5.59375,-15.3125 C6.0625,-15.3125 6.55469,-15.2448 7.07031,-15.1094 C7.58594,-14.974 8.05208,-14.776 8.46875,-14.5156 C8.88542,-14.2552 9.22656,-13.9245 9.49219,-13.5234 C9.75781,-13.1224 9.89063,-12.6615 9.89063,-12.1406 C9.89063,-11.4948 9.7474,-10.8984 9.46094,-10.3516 C9.17448,-9.80469 8.78125,-9.33333 8.28125,-8.9375 C7.78125,-8.54167 7.22917,-8.25 6.625,-8.0625 C7.29167,-7.92708 7.92448,-7.67448 8.52344,-7.30469 C9.1224,-6.9349 9.60417,-6.45573 9.96875,-5.86719 C10.3333,-5.27865 10.5156,-4.65104 10.5156,-3.98438 C10.5156,-3.13021 10.2839,-2.36198 9.82031,-1.67969 C9.35677,-0.997396 8.74479,-0.463542 7.98438,-0.078125 C7.22396,0.307292 6.42708,0.5 5.59375,0.5 C4.875,0.5 4.15365,0.364583 3.42969,0.09375 C2.70573,-0.177083 2.11458,-0.585938 1.65625,-1.13281 C1.19792,-1.67969 0.96875,-2.33854 0.96875,-3.10938 C0.96875,-3.49479 1.09635,-3.8151 1.35156,-4.07031 C1.60677,-4.32552 1.92188,-4.45313 2.29688,-4.45313 C2.54688,-4.45313 2.77604,-4.39323 2.98438,-4.27344 C3.19271,-4.15365 3.35417,-3.98958 3.46875,-3.78125 C3.58333,-3.57292 3.64063,-3.34896 3.64063,-3.10938 C3.64063,-2.73438 3.51042,-2.41927 3.25,-2.16406 C2.98958,-1.90885 2.67188,-1.78125 2.29688,-1.78125 L2.1875,-1.78125"/>
</g>

<g fill="#212121" fill-opacity="1" stroke="none" transform="matrix(0.428571,0,0,0.428571,26.9365,108.257)"
font-family="MS Shell Dlg 2" font-size="8.14286" font-weight="400" font-style="normal" 
>
<path vector-effect="none" fill-rule="evenodd" d="M1.9375,-1.26563 C1.9375,-1.60938 2.0651,-1.90625 2.32031,-2.15625 C2.57552,-2.40625 2.86979,-2.53125 3.20313,-2.53125 C3.41146,-2.53125 3.61719,-2.47396 3.82031,-2.35938 C4.02344,-2.24479 4.17969,-2.08594 4.28906,-1.88281 C4.39844,-1.67969 4.45313,-1.47396 4.45313,-1.26563 C4.45313,-0.932292 4.33073,-0.638021 4.08594,-0.382813 C3.84115,-0.127604 3.54688,0 3.20313,0 C2.86979,0 2.57552,-0.127604 2.32031,-0.382813 C2.0651,-0.638021 1.9375,-0.932292 1.9375,-1.26563 "/>
</g>

<g fill="#212121" fill-opacity="1" stroke="none" transform="matrix(0.428571,0,0,0.428571,29.7143,108.257)"
font-family="MS Shell Dlg 2" font-size="8.14286" font-weight="400" font-style="normal" 
>
<path vector-effect="none" fill-rule="evenodd" d="M5.75,0.5 C3.875,0.5 2.59896,-0.273438 1.92188,-1.82031 C1.24479,-3.36719 0.90625,-5.20313 0.90625,-7.32813 C0.90625,-8.66146 1.02604,-9.91667 1.26563,-11.0938 C1.50521,-12.2708 1.98698,-13.2682 2.71094,-14.0859 C3.4349,-14.9036 4.44792,-15.3125 5.75,-15.3125 C6.76042,-15.3125 7.58854,-15.0677 8.23438,-14.5781 C8.88021,-14.0885 9.36979,-13.4505 9.70313,-12.6641 C10.0365,-11.8776 10.2656,-11.0391 10.3906,-10.1484 C10.5156,-9.25781 10.5781,-8.31771 10.5781,-7.32813 C10.5781,-6.01563 10.4557,-4.78385 10.2109,-3.63281 C9.96615,-2.48177 9.48958,-1.50521 8.78125,-0.703125 C8.07292,0.0989583 7.0625,0.5 5.75,0.5 M5.75,-0.09375 C6.60417,-0.09375 7.23958,-0.53125 7.65625,-1.40625 C8.07292,-2.28125 8.33073,-3.25 8.42969,-4.3125 C8.52865,-5.375 8.57813,-6.50521 8.57813,-7.70313 C8.57813,-8.85938 8.52865,-9.92448 8.42969,-10.8984 C8.33073,-11.8724 8.07552,-12.7526 7.66406,-13.5391 C7.2526,-14.3255 6.61458,-14.7188 5.75,-14.7188 C4.88542,-14.7188 4.24219,-14.3229 3.82031,-13.5313 C3.39844,-12.7396 3.13802,-11.8594 3.03906,-10.8906 C2.9401,-9.92188 2.89063,-8.85938 2.89063,-7.70313 C2.89063,-6.84896 2.91146,-6.04427 2.95313,-5.28906 C2.99479,-4.53385 3.10677,-3.7526 3.28906,-2.94531 C3.47135,-2.13802 3.76302,-1.46094 4.16406,-0.914063 C4.5651,-0.367188 5.09375,-0.09375 5.75,-0.09375 "/>
</g>

<g fill="#212121" fill-opacity="1" stroke="none" transform="matrix(0.428571,0,0,0.428571,34.7143,108.257)"
font-family="MS Shell Dlg 2" font-size="8.14286" font-weight="400" font-style="normal" 
>
<path vector-effect="none" fill-rule="evenodd" d="M2,-2.625 C2.15625,-2.17708 2.39844,-1.77083 2.72656,-1.40625 C3.05469,-1.04167 3.4401,-0.755208 3.88281,-0.546875 C4.32552,-0.338542 4.78646,-0.234375 5.26563,-0.234375 C6.36979,-0.234375 7.13281,-0.664063 7.55469,-1.52344 C7.97656,-2.38281 8.1875,-3.42708 8.1875,-4.65625 C8.1875,-5.1875 8.17708,-5.63542 8.15625,-6 C8.13542,-6.36458 8.08333,-6.71354 8,-7.04688 C7.86458,-7.58854 7.61979,-8.0599 7.26563,-8.46094 C6.91146,-8.86198 6.47396,-9.0625 5.95313,-9.0625 C5.43229,-9.0625 4.98698,-8.98438 4.61719,-8.82813 C4.2474,-8.67188 3.94792,-8.48958 3.71875,-8.28125 C3.48958,-8.07292 3.28385,-7.85156 3.10156,-7.61719 C2.91927,-7.38281 2.80729,-7.26042 2.76563,-7.25 L2.5,-7.25 C2.46875,-7.25 2.42448,-7.27344 2.36719,-7.32031 C2.3099,-7.36719 2.28125,-7.41146 2.28125,-7.45313 L2.28125,-15.1406 C2.28125,-15.1719 2.30469,-15.2083 2.35156,-15.25 C2.39844,-15.2917 2.44792,-15.3125 2.5,-15.3125 L2.57813,-15.3125 C3.60938,-14.8229 4.70313,-14.5781 5.85938,-14.5781 C6.99479,-14.5781 8.09375,-14.8229 9.15625,-15.3125 L9.21875,-15.3125 C9.27083,-15.3125 9.32031,-15.2943 9.36719,-15.2578 C9.41406,-15.2214 9.4375,-15.1823 9.4375,-15.1406 L9.4375,-14.9219 C9.4375,-14.849 9.42188,-14.8125 9.39063,-14.8125 C8.86979,-14.1146 8.21354,-13.5703 7.42188,-13.1797 C6.63021,-12.7891 5.8125,-12.5938 4.96875,-12.5938 C4.35417,-12.5938 3.72396,-12.6823 3.07813,-12.8594 L3.07813,-8.51563 C3.58854,-8.92188 4.04427,-9.21354 4.44531,-9.39063 C4.84635,-9.56771 5.35417,-9.65625 5.96875,-9.65625 C6.82292,-9.65625 7.58333,-9.41406 8.25,-8.92969 C8.91667,-8.44531 9.42969,-7.8099 9.78906,-7.02344 C10.1484,-6.23698 10.3281,-5.4375 10.3281,-4.625 C10.3281,-3.70833 10.1016,-2.85677 9.64844,-2.07031 C9.19531,-1.28385 8.58073,-0.658854 7.80469,-0.195313 C7.02865,0.268229 6.18229,0.5 5.26563,0.5 C4.51563,0.5 3.82292,0.307292 3.1875,-0.078125 C2.55208,-0.463542 2.05208,-0.986979 1.6875,-1.64844 C1.32292,-2.3099 1.14063,-3.01042 1.14063,-3.75 C1.14063,-4.09375 1.2526,-4.375 1.47656,-4.59375 C1.70052,-4.8125 1.98438,-4.92188 2.32813,-4.92188 C2.66146,-4.92188 2.94271,-4.8125 3.17188,-4.59375 C3.40104,-4.375 3.51563,-4.09375 3.51563,-3.75 C3.51563,-3.42708 3.40104,-3.15104 3.17188,-2.92188 C2.94271,-2.69271 2.66146,-2.57813 2.32813,-2.57813 C2.27604,-2.57813 2.21615,-2.58333 2.14844,-2.59375 C2.08073,-2.60417 2.03125,-2.61458 2,-2.625 "/>
</g>

<g fill="#212121" fill-opacity="1" stroke="none" transform="matrix(0.428571,0,0,0.428571,31.3809,78.5428)"
font-family="MS Shell Dlg 2" font-size="8.14286" font-weight="400" font-style="normal" 
>
<path vector-effect="none" fill-rule="evenodd" d="M0.265625,-4.25 L0.265625,-5.6875 L6.34375,-5.6875 L6.34375,-4.25 L0.265625,-4.25"/>
</g>

<g fill="#212121" fill-opacity="1" stroke="none" transform="matrix(0.428571,0,0,0.428571,34.7143,78.5428)"
font-family="MS Shell Dlg 2" font-size="8.14286" font-weight="400" font-style="normal" 
>
<path vector-effect="none" fill-rule="evenodd" d="M2.1875,-1.78125 C2.55208,-1.26042 3.03646,-0.872396 3.64063,-0.617188 C4.24479,-0.361979 4.89583,-0.234375 5.59375,-0.234375 C6.47917,-0.234375 7.10938,-0.614583 7.48438,-1.375 C7.85938,-2.13542 8.04688,-3 8.04688,-3.96875 C8.04688,-4.39583 8.00781,-4.82813 7.92969,-5.26563 C7.85156,-5.70313 7.71875,-6.10938 7.53125,-6.48438 C7.34375,-6.85938 7.08854,-7.15885 6.76563,-7.38281 C6.44271,-7.60677 6.04688,-7.71875 5.57813,-7.71875 L4.04688,-7.71875 C3.91146,-7.71875 3.84375,-7.78646 3.84375,-7.92188 L3.84375,-8.125 C3.84375,-8.23958 3.91146,-8.29688 4.04688,-8.29688 L5.3125,-8.40625 C5.85417,-8.40625 6.30208,-8.60677 6.65625,-9.00781 C7.01042,-9.40885 7.27083,-9.90104 7.4375,-10.4844 C7.60417,-11.0677 7.6875,-11.6198 7.6875,-12.1406 C7.6875,-12.8698 7.51563,-13.4714 7.17188,-13.9453 C6.82813,-14.4193 6.30208,-14.6563 5.59375,-14.6563 C5.01042,-14.6563 4.45313,-14.5469 3.92188,-14.3281 C3.39063,-14.1094 2.96875,-13.7708 2.65625,-13.3125 C2.6875,-13.3229 2.71354,-13.3307 2.73438,-13.3359 C2.75521,-13.3411 2.78125,-13.3438 2.8125,-13.3438 C3.15625,-13.3438 3.44271,-13.224 3.67188,-12.9844 C3.90104,-12.7448 4.01563,-12.4583 4.01563,-12.125 C4.01563,-11.7917 3.90104,-11.5052 3.67188,-11.2656 C3.44271,-11.026 3.15625,-10.9063 2.8125,-10.9063 C2.46875,-10.9063 2.17708,-11.026 1.9375,-11.2656 C1.69792,-11.5052 1.57813,-11.7917 1.57813,-12.125 C1.57813,-12.7813 1.77865,-13.3516 2.17969,-13.8359 C2.58073,-14.3203 3.09375,-14.6875 3.71875,-14.9375 C4.34375,-15.1875 4.96875,-15.3125 5.59375,-15.3125 C6.0625,-15.3125 6.55469,-15.2448 7.07031,-15.1094 C7.58594,-14.974 8.05208,-14.776 8.46875,-14.5156 C8.88542,-14.2552 9.22656,-13.9245 9.49219,-13.5234 C9.75781,-13.1224 9.89063,-12.6615 9.89063,-12.1406 C9.89063,-11.4948 9.7474,-10.8984 9.46094,-10.3516 C9.17448,-9.80469 8.78125,-9.33333 8.28125,-8.9375 C7.78125,-8.54167 7.22917,-8.25 6.625,-8.0625 C7.29167,-7.92708 7.92448,-7.67448 8.52344,-7.30469 C9.1224,-6.9349 9.60417,-6.45573 9.96875,-5.86719 C10.3333,-5.27865 10.5156,-4.65104 10.5156,-3.98438 C10.5156,-3.13021 10.2839,-2.36198 9.82031,-1.67969 C9.35677,-0.997396 8.74479,-0.463542 7.98438,-0.078125 C7.22396,0.307292 6.42708,0.5 5.59375,0.5 C4.875,0.5 4.15365,0.364583 3.42969,0.09375 C2.70573,-0.177083 2.11458,-0.585938 1.65625,-1.13281 C1.19792,-1.67969 0.96875,-2.33854 0.96875,-3.10938 C0.96875,-3.49479 1.09635,-3.8151 1.35156,-4.07031 C1.60677,-4.32552 1.92188,-4.45313 2.29688,-4.45313 C2.54688,-4.45313 2.77604,-4.39323 2.98438,-4.27344 C3.19271,-4.15365 3.35417,-3.98958 3.46875,-3.78125 C3.58333,-3.57292 3.64063,-3.34896 3.64063,-3.10938 C3.64063,-2.73438 3.51042,-2.41927 3.25,-2.16406 C2.98958,-1.90885 2.67188,-1.78125 2.29688,-1.78125 L2.1875,-1.78125"/>
</g>

<g fill="#212121" fill-opacity="1" stroke="none" transform="matrix(0.428571,0,0,0.428571,18.6031,48.8286)"
font-family="MS Shell Dlg 2" font-size="8.14286" font-weight="400" font-style="normal" 
>
<path vector-effect="none" fill-rule="evenodd" d="M0.265625,-4.25 L0.265625,-5.6875 L6.34375,-5.6875 L6.34375,-4.25 L0.265625,-4.25"/>
</g>

<g fill="#212121" fill-opacity="1" stroke="none" transform="matrix(0.428571,0,0,0.428571,21.9365,48.8286)"
font-family="MS Shell Dlg 2" font-size="8.14286" font-weight="400" font-style="normal" 
>
<path vector-effect="none" fill-rule="evenodd" d="M1.14063,0 L1.14063,-0.625 C1.14063,-0.65625 1.15625,-0.692708 1.1875,-0.734375 L4.76563,-4.6875 C5.30729,-5.28125 5.74479,-5.77604 6.07813,-6.17188 C6.41146,-6.56771 6.74219,-7.02344 7.07031,-7.53906 C7.39844,-8.05469 7.65885,-8.58073 7.85156,-9.11719 C8.04427,-9.65365 8.14063,-10.2188 8.14063,-10.8125 C8.14063,-11.4479 8.02604,-12.0521 7.79688,-12.625 C7.56771,-13.1979 7.22135,-13.6563 6.75781,-14 C6.29427,-14.3438 5.73958,-14.5156 5.09375,-14.5156 C4.42708,-14.5156 3.82813,-14.3151 3.29688,-13.9141 C2.76563,-13.513 2.39063,-12.9948 2.17188,-12.3594 C2.22396,-12.3698 2.30729,-12.375 2.42188,-12.375 C2.76563,-12.375 3.05729,-12.2604 3.29688,-12.0313 C3.53646,-11.8021 3.65625,-11.5 3.65625,-11.125 C3.65625,-10.7813 3.53646,-10.487 3.29688,-10.2422 C3.05729,-9.9974 2.76563,-9.875 2.42188,-9.875 C2.05729,-9.875 1.7526,-10 1.50781,-10.25 C1.26302,-10.5 1.14063,-10.7917 1.14063,-11.125 C1.14063,-11.7083 1.25,-12.2526 1.46875,-12.7578 C1.6875,-13.263 2,-13.7109 2.40625,-14.1016 C2.8125,-14.4922 3.27344,-14.7917 3.78906,-15 C4.30469,-15.2083 4.84896,-15.3125 5.42188,-15.3125 C6.29688,-15.3125 7.11198,-15.1276 7.86719,-14.7578 C8.6224,-14.388 9.22135,-13.8646 9.66406,-13.1875 C10.1068,-12.5104 10.3281,-11.7188 10.3281,-10.8125 C10.3281,-10.1458 10.1823,-9.51302 9.89063,-8.91406 C9.59896,-8.3151 9.22656,-7.77083 8.77344,-7.28125 C8.32031,-6.79167 7.73698,-6.23698 7.02344,-5.61719 C6.3099,-4.9974 5.83854,-4.58333 5.60938,-4.375 L3.01563,-1.85938 L5.21875,-1.85938 C6.30208,-1.85938 7.21094,-1.86979 7.94531,-1.89063 C8.67969,-1.91146 9.06771,-1.94271 9.10938,-1.98438 C9.28646,-2.17188 9.46875,-2.875 9.65625,-4.09375 L10.3281,-4.09375 L9.6875,0 L1.14063,0"/>
</g>

<g fill="#212121" fill-opacity="1" stroke="none" transform="matrix(0.428571,0,0,0.428571,26.9365,48.8286)"
font-family="MS Shell Dlg 2" font-size="8.14286" font-weight="400" font-style="normal" 
>
<path vector-effect="none" fill-rule="evenodd" d="M1.9375,-1.26563 C1.9375,-1.60938 2.0651,-1.90625 2.32031,-2.15625 C2.57552,-2.40625 2.86979,-2.53125 3.20313,-2.53125 C3.41146,-2.53125 3.61719,-2.47396 3.82031,-2.35938 C4.02344,-2.24479 4.17969,-2.08594 4.28906,-1.88281 C4.39844,-1.67969 4.45313,-1.47396 4.45313,-1.26563 C4.45313,-0.932292 4.33073,-0.638021 4.08594,-0.382813 C3.84115,-0.127604 3.54688,0 3.20313,0 C2.86979,0 2.57552,-0.127604 2.32031,-0.382813 C2.0651,-0.638021 1.9375,-0.932292 1.9375,-1.26563 "/>
</g>

<g fill="#212121" fill-opacity="1" stroke="none" transform="matrix(0.428571,0,0,0.428571,29.7143,48.8286)"
font-family="MS Shell Dlg 2" font-size="8.14286" font-weight="400" font-style="normal" 
>
<path vector-effect="none" fill-rule="evenodd" d="M2.59375,-0.96875 C3.01042,-0.479167 3.73958,-0.234375 4.78125,-0.234375 C5.36458,-0.234375 5.90885,-0.432292 6.41406,-0.828125 C6.91927,-1.22396 7.3125,-1.70833 7.59375,-2.28125 C7.91667,-2.9375 8.1224,-3.63281 8.21094,-4.36719 C8.29948,-5.10156 8.34375,-6.01563 8.34375,-7.10938 C8.08333,-6.48438 7.70833,-5.97135 7.21875,-5.57031 C6.72917,-5.16927 6.16667,-4.96875 5.53125,-4.96875 C4.63542,-4.96875 3.83854,-5.21094 3.14063,-5.69531 C2.44271,-6.17969 1.90625,-6.81771 1.53125,-7.60938 C1.15625,-8.40104 0.96875,-9.24479 0.96875,-10.1406 C0.96875,-11.0573 1.17708,-11.9141 1.59375,-12.7109 C2.01042,-13.5078 2.59115,-14.1406 3.33594,-14.6094 C4.08073,-15.0781 4.92188,-15.3125 5.85938,-15.3125 C6.78646,-15.3125 7.5625,-15.0599 8.1875,-14.5547 C8.8125,-14.0495 9.29167,-13.3984 9.625,-12.6016 C9.95833,-11.8047 10.1901,-10.9609 10.3203,-10.0703 C10.4505,-9.17969 10.5156,-8.30208 10.5156,-7.4375 C10.5156,-6.25 10.2969,-5.04167 9.85938,-3.8125 C9.42188,-2.58333 8.77083,-1.55729 7.90625,-0.734375 C7.04167,0.0885417 6,0.5 4.78125,0.5 C3.875,0.5 3.10677,0.289063 2.47656,-0.132813 C1.84635,-0.554688 1.53125,-1.19792 1.53125,-2.0625 C1.53125,-2.375 1.63802,-2.63802 1.85156,-2.85156 C2.0651,-3.0651 2.33333,-3.17188 2.65625,-3.17188 C2.95833,-3.17188 3.21615,-3.0651 3.42969,-2.85156 C3.64323,-2.63802 3.75,-2.375 3.75,-2.0625 C3.75,-1.77083 3.64063,-1.51563 3.42188,-1.29688 C3.20313,-1.07813 2.94792,-0.96875 2.65625,-0.96875 L2.59375,-0.96875 M5.60938,-5.59375 C6.24479,-5.59375 6.76302,-5.80469 7.16406,-6.22656 C7.5651,-6.64844 7.85417,-7.17448 8.03125,-7.80469 C8.20833,-8.4349 8.29688,-9.0625 8.29688,-9.6875 L8.29688,-10.125 L8.29688,-10.2031 C8.29688,-11.3594 8.1276,-12.3906 7.78906,-13.2969 C7.45052,-14.2031 6.80729,-14.6563 5.85938,-14.6563 C5.25521,-14.6563 4.76302,-14.5234 4.38281,-14.2578 C4.0026,-13.9922 3.72396,-13.638 3.54688,-13.1953 C3.36979,-12.7526 3.25781,-12.2813 3.21094,-11.7813 C3.16406,-11.2813 3.14063,-10.7344 3.14063,-10.1406 C3.14063,-9.27604 3.17969,-8.53646 3.25781,-7.92188 C3.33594,-7.30729 3.5599,-6.76563 3.92969,-6.29688 C4.29948,-5.82813 4.85938,-5.59375 5.60938,-5.59375 "/>
</g>

<g fill="#212121" fill-opacity="1" stroke="none" transform="matrix(0.428571,0,0,0.428571,34.7143,48.8286)"
font-family="MS Shell Dlg 2" font-size="8.14286" font-weight="400" font-style="normal" 
>
<path vector-effect="none" fill-rule="evenodd" d="M2,-2.625 C2.15625,-2.17708 2.39844,-1.77083 2.72656,-1.40625 C3.05469,-1.04167 3.4401,-0.755208 3.88281,-0.546875 C4.32552,-0.338542 4.78646,-0.234375 5.26563,-0.234375 C6.36979,-0.234375 7.13281,-0.664063 7.55469,-1.52344 C7.97656,-2.38281 8.1875,-3.42708 8.1875,-4.65625 C8.1875,-5.1875 8.17708,-5.63542 8.15625,-6 C8.13542,-6.36458 8.08333,-6.71354 8,-7.04688 C7.86458,-7.58854 7.61979,-8.0599 7.26563,-8.46094 C6.91146,-8.86198 6.47396,-9.0625 5.95313,-9.0625 C5.43229,-9.0625 4.98698,-8.98438 4.61719,-8.82813 C4.2474,-8.67188 3.94792,-8.48958 3.71875,-8.28125 C3.48958,-8.07292 3.28385,-7.85156 3.10156,-7.61719 C2.91927,-7.38281 2.80729,-7.26042 2.76563,-7.25 L2.5,-7.25 C2.46875,-7.25 2.42448,-7.27344 2.36719,-7.32031 C2.3099,-7.36719 2.28125,-7.41146 2.28125,-7.45313 L2.28125,-15.1406 C2.28125,-15.1719 2.30469,-15.2083 2.35156,-15.25 C2.39844,-15.2917 2.44792,-15.3125 2.5,-15.3125 L2.57813,-15.3125 C3.60938,-14.8229 4.70313,-14.5781 5.85938,-14.5781 C6.99479,-14.5781 8.09375,-14.8229 9.15625,-15.3125 L9.21875,-15.3125 C9.27083,-15.3125 9.32031,-15.2943 9.36719,-15.2578 C9.41406,-15.2214 9.4375,-15.1823 9.4375,-15.1406 L9.4375,-14.9219 C9.4375,-14.849 9.42188,-14.8125 9.39063,-14.8125 C8.86979,-14.1146 8.21354,-13.5703 7.42188,-13.1797 C6.63021,-12.7891 5.8125,-12.5938 4.96875,-12.5938 C4.35417,-12.5938 3.72396,-12.6823 3.07813,-12.8594 L3.07813,-8.51563 C3.58854,-8.92188 4.04427,-9.21354 4.44531,-9.39063 C4.84635,-9.56771 5.35417,-9.65625 5.96875,-9.65625 C6.82292,-9.65625 7.58333,-9.41406 8.25,-8.92969 C8.91667,-8.44531 9.42969,-7.8099 9.78906,-7.02344 C10.1484,-6.23698 10.3281,-5.4375 10.3281,-4.625 C10.3281,-3.70833 10.1016,-2.85677 9.64844,-2.07031 C9.19531,-1.28385 8.58073,-0.658854 7.80469,-0.195313 C7.02865,0.268229 6.18229,0.5 5.26563,0.5 C4.51563,0.5 3.82292,0.307292 3.1875,-0.078125 C2.55208,-0.463542 2.05208,-0.986979 1.6875,-1.64844 C1.32292,-2.3099 1.14063,-3.01042 1.14063,-3.75 C1.14063,-4.09375 1.2526,-4.375 1.47656,-4.59375 C1.70052,-4.8125 1.98438,-4.92188 2.32813,-4.92188 C2.66146,-4.92188 2.94271,-4.8125 3.17188,-4.59375 C3.40104,-4.375 3.51563,-4.09375 3.51563,-3.75 C3.51563,-3.42708 3.40104,-3.15104 3.17188,-2.92188 C2.94271,-2.69271 2.66146,-2.57813 2.32813,-2.57813 C2.27604,-2.57813 2.21615,-2.58333 2.14844,-2.59375 C2.08073,-2.60417 2.03125,-2.61458 2,-2.625 "/>
</g>

<g fill="#212121" fill-opacity="1" stroke="none" transform="matrix(0.428571,0,0,0.428571,23.6031,19.1143)"
font-family="MS Shell Dlg 2" font-size="8.14286" font-weight="400" font-style="normal" 
>
<path vector-effect="none" fill-rule="evenodd" d="M0.265625,-4.25 L0.265625,-5.6875 L6.34375,-5.6875 L6.34375,-4.25 L0.265625,-4.25"/>
</g>

<g fill="#212121" fill-opacity="1" stroke="none" transform="matrix(0.428571,0,0,0.428571,26.9365,19.1143)"
font-family="MS Shell Dlg 2" font-size="8.14286" font-weight="400" font-style="normal" 
>
<path vector-effect="none" fill-rule="evenodd" d="M1.14063,0 L1.14063,-0.625 C1.14063,-0.65625 1.15625,-0.692708 1.1875,-0.734375 L4.76563,-4.6875 C5.30729,-5.28125 5.74479,-5.77604 6.07813,-6.17188 C6.41146,-6.56771 6.74219,-7.02344 7.07031,-7.53906 C7.39844,-8.05469 7.65885,-8.58073 7.85156,-9.11719 C8.04427,-9.65365 8.14063,-10.2188 8.14063,-10.8125 C8.14063,-11.4479 8.02604,-12.0521 7.79688,-12.625 C7.56771,-13.1979 7.22135,-13.6563 6.75781,-14 C6.29427,-14.3438 5.73958,-14.5156 5.09375,-14.5156 C4.42708,-14.5156 3.82813,-14.3151 3.29688,-13.9141 C2.76563,-13.513 2.39063,-12.9948 2.17188,-12.3594 C2.22396,-12.3698 2.30729,-12.375 2.42188,-12.375 C2.76563,-12.375 3.05729,-12.2604 3.29688,-12.0313 C3.53646,-11.8021 3.65625,-11.5 3.65625,-11.125 C3.65625,-10.7813 3.53646,-10.487 3.29688,-10.2422 C3.05729,-9.9974 2.76563,-9.875 2.42188,-9.875 C2.05729,-9.875 1.7526,-10 1.50781,-10.25 C1.26302,-10.5 1.14063,-10.7917 1.14063,-11.125 C1.14063,-11.7083 1.25,-12.2526 1.46875,-12.7578 C1.6875,-13.263 2,-13.7109 2.40625,-14.1016 C2.8125,-14.4922 3.27344,-14.7917 3.78906,-15 C4.30469,-15.2083 4.84896,-15.3125 5.42188,-15.3125 C6.29688,-15.3125 7.11198,-15.1276 7.86719,-14.7578 C8.6224,-14.388 9.22135,-13.8646 9.66406,-13.1875 C10.1068,-12.5104 10.3281,-11.7188 10.3281,-10.8125 C10.3281,-10.1458 10.1823,-9.51302 9.89063,-8.91406 C9.59896,-8.3151 9.22656,-7.77083 8.77344,-7.28125 C8.32031,-6.79167 7.73698,-6.23698 7.02344,-5.61719 C6.3099,-4.9974 5.83854,-4.58333 5.60938,-4.375 L3.01563,-1.85938 L5.21875,-1.85938 C6.30208,-1.85938 7.21094,-1.86979 7.94531,-1.89063 C8.67969,-1.91146 9.06771,-1.94271 9.10938,-1.98438 C9.28646,-2.17188 9.46875,-2.875 9.65625,-4.09375 L10.3281,-4.09375 L9.6875,0 L1.14063,0"/>
</g>

<g fill="#212121" fill-opacity="1" stroke="none" transform="matrix(0.428571,0,0,0.428571,31.9365,19.1143)"
font-family="MS Shell Dlg 2" font-size="8.14286" font-weight="400" font-style="normal" 
>
<path vector-effect="none" fill-rule="evenodd" d="M1.9375,-1.26563 C1.9375,-1.60938 2.0651,-1.90625 2.32031,-2.15625 C2.57552,-2.40625 2.86979,-2.53125 3.20313,-2.53125 C3.41146,-2.53125 3.61719,-2.47396 3.82031,-2.35938 C4.02344,-2.24479 4.17969,-2.08594 4.28906,-1.88281 C4.39844,-1.67969 4.45313,-1.47396 4.45313,-1.26563 C4.45313,-0.932292 4.33073,-0.638021 4.08594,-0.382813 C3.84115,-0.127604 3.54688,0 3.20313,0 C2.86979,0 2.57552,-0.127604 2.32031,-0.382813 C2.0651,-0.638021 1.9375,-0.932292 1.9375,-1.26563 "/>
</g>

<g fill="#212121" fill-opacity="1" stroke="none" transform="matrix(0.428571,0,0,0.428571,34.7143,19.1143)"
font-family="MS Shell Dlg 2" font-size="8.14286" font-weight="400" font-style="normal" 
>
<path vector-effect="none" fill-rule="evenodd" d="M2.59375,-0.96875 C3.01042,-0.479167 3.73958,-0.234375 4.78125,-0.234375 C5.36458,-0.234375 5.90885,-0.432292 6.41406,-0.828125 C6.91927,-1.22396 7.3125,-1.70833 7.59375,-2.28125 C7.91667,-2.9375 8.1224,-3.63281 8.21094,-4.36719 C8.29948,-5.10156 8.34375,-6.01563 8.34375,-7.10938 C8.08333,-6.48438 7.70833,-5.97135 7.21875,-5.57031 C6.72917,-5.16927 6.16667,-4.96875 5.53125,-4.96875 C4.63542,-4.96875 3.83854,-5.21094 3.14063,-5.69531 C2.44271,-6.17969 1.90625,-6.81771 1.53125,-7.60938 C1.15625,-8.40104 0.96875,-9.24479 0.96875,-10.1406 C0.96875,-11.0573 1.17708,-11.9141 1.59375,-12.7109 C2.01042,-13.5078 2.59115,-14.1406 3.33594,-14.6094 C4.08073,-15.0781 4.92188,-15.3125 5.85938,-15.3125 C6.78646,-15.3125 7.5625,-15.0599 8.1875,-14.5547 C8.8125,-14.0495 9.29167,-13.3984 9.625,-12.6016 C9.95833,-11.8047 10.1901,-10.9609 10.3203,-10.0703 C10.4505,-9.17969 10.5156,-8.30208 10.5156,-7.4375 C10.5156,-6.25 10.2969,-5.04167 9.85938,-3.8125 C9.42188,-2.58333 8.77083,-1.55729 7.90625,-0.734375 C7.04167,0.0885417 6,0.5 4.78125,0.5 C3.875,0.5 3.10677,0.289063 2.47656,-0.132813 C1.84635,-0.554688 1.53125,-1.19792 1.53125,-2.0625 C1.53125,-2.375 1.63802,-2.63802 1.85156,-2.85156 C2.0651,-3.0651 2.33333,-3.17188 2.65625,-3.17188 C2.95833,-3.17188 3.21615,-3.0651 3.42969,-2.85156 C3.64323,-2.63802 3.75,-2.375 3.75,-2.0625 C3.75,-1.77083 3.64063,-1.51563 3.42188,-1.29688 C3.20313,-1.07813 2.94792,-0.96875 2.65625,-0.96875 L2.59375,-0.96875 M5.60938,-5.59375 C6.24479,-5.59375 6.76302,-5.80469 7.16406,-6.22656 C7.5651,-6.64844 7.85417,-7.17448 8.03125,-7.80469 C8.20833,-8.4349 8.29688,-9.0625 8.29688,-9.6875 L8.29688,-10.125 L8.29688,-10.2031 C8.29688,-11.3594 8.1276,-12.3906 7.78906,-13.2969 C7.45052,-14.2031 6.80729,-14.6563 5.85938,-14.6563 C5.25521,-14.6563 4.76302,-14.5234 4.38281,-14.2578 C4.0026,-13.9922 3.72396,-13.638 3.54688,-13.1953 C3.36979,-12.7526 3.25781,-12.2813 3.21094,-11.7813 C3.16406,-11.2813 3.14063,-10.7344 3.14063,-10.1406 C3.14063,-9.27604 3.17969,-8.53646 3.25781,-7.92188 C3.33594,-7.30729 3.5599,-6.76563 3.92969,-6.29688 C4.29948,-5.82813 4.85938,-5.59375 5.60938,-5.59375 "/>
</g>

<g fill="none" stroke="#1171be" stroke-opacity="1" stroke-width="1.16667" stroke-linecap="butt" stroke-linejoin="round" transform="matrix(0.428571,0,0,0.428571,0,0)"
font-family="MS Shell Dlg 2" font-size="8.14286" font-weight="400" font-style="normal" 
>
<polyline fill="none" vector-effect="none" points="114.22,375.897 126.44,346.364 138.66,327.051 150.88,280.048 163.1,242.819 175.32,248.116 187.54,213.519 199.76,228.999 211.98,197.141 224.2,181.5 236.42,156.232 248.64,139.434 260.86,117.553 273.08,116.067 285.3,82.5712 297.52,79.1325 309.74,79.1147 321.96,81.3816 334.18,72.9082 346.4,85.2828 358.62,80.9786 370.84,66.6485 383.06,48.3705 395.28,56.0644 407.5,67.9028 419.72,78.8168 431.94,80.6404 444.16,80.293 456.38,79.2816 468.6,78.5021 480.82,77.499 493.04,76.3693 505.26,75.273 517.48,106.717 529.7,107.434 541.92,109.066 554.14,107.959 566.36,106.621 578.58,105.606 590.8,104.902 603.02,104.277 615.24,103.887 627.46,103.869 639.68,104.242 651.9,104.974 664.12,106.127 676.34,107.611 688.56,109.317 700.78,111.337 713,113.431 713,113.431 " />
</g>

<g fill="none" stroke="#1171be" stroke-opacity="1" stroke-width="1.16667" stroke-linecap="butt" stroke-linejoin="miter" stroke-miterlimit="2" transform="matrix(0.428571,0,0,0.428571,0,0)"
font-family="MS Shell Dlg 2" font-size="8.14286" font-weight="400" font-style="normal" 
>
<path vector-effect="none" fill-rule="evenodd" d="M121.22,375.897 C121.22,372.031 118.086,368.897 114.22,368.897 C110.354,368.897 107.22,372.031 107.22,375.897 C107.22,379.763 110.354,382.897 114.22,382.897 C118.086,382.897 121.22,379.763 121.22,375.897 "/>
<path vector-effect="none" fill-rule="evenodd" d="M243.42,156.232 C243.42,152.366 240.286,149.232 236.42,149.232 C232.554,149.232 229.42,152.366 229.42,156.232 C229.42,160.098 232.554,163.232 236.42,163.232 C240.286,163.232 243.42,160.098 243.42,156.232 "/>
<path vector-effect="none" fill-rule="evenodd" d="M365.62,80.9786 C365.62,77.1126 362.486,73.9786 358.62,73.9786 C354.754,73.9786 351.62,77.1126 351.62,80.9786 C351.62,84.8446 354.754,87.9786 358.62,87.9786 C362.486,87.9786 365.62,84.8446 365.62,80.9786 "/>
<path vector-effect="none" fill-rule="evenodd" d="M487.82,77.499 C487.82,73.633 484.686,70.499 480.82,70.499 C476.954,70.499 473.82,73.633 473.82,77.499 C473.82,81.365 476.954,84.499 480.82,84.499 C484.686,84.499 487.82,81.365 487.82,77.499 "/>
<path vector-effect="none" fill-rule="evenodd" d="M610.02,104.277 C610.02,100.411 606.886,97.2772 603.02,97.2772 C599.154,97.2772 596.02,100.411 596.02,104.277 C596.02,108.143 599.154,111.277 603.02,111.277 C606.886,111.277 610.02,108.143 610.02,104.277 "/>
</g>

<g fill="none" stroke="#dd5400" stroke-opacity="1" stroke-width="1.16667" stroke-linecap="butt" stroke-linejoin="round" transform="matrix(0.428571,0,0,0.428571,0,0)"
font-family="MS Shell Dlg 2" font-size="8.14286" font-weight="400" font-style="normal" 
>
<polyline fill="none" vector-effect="none" points="114.22,299.051 126.44,262.293 138.66,222.705 150.88,143.182 163.1,73.7916 175.32,79.6162 187.54,95.4063 199.76,119.879 211.98,100.704 224.2,100.699 236.42,99.0473 248.64,101.06 260.86,99.0982 273.08,97.4948 285.3,98.7871 297.52,102.584 309.74,106.041 321.96,109.323 334.18,111.967 346.4,114.806 358.62,116.691 370.84,118.873 383.06,120.439 395.28,122.112 407.5,122.485 419.72,123.575 431.94,123.395 444.16,124.067 456.38,124.337 468.6,125.513 480.82,125.841 493.04,126.82 505.26,126.852 517.48,127.69 529.7,127.712 541.92,128.565 554.14,128.569 566.36,129.556 578.58,129.571 590.8,130.562 603.02,130.59 615.24,131.64 627.46,131.604 639.68,132.655 651.9,132.564 664.12,133.49 676.34,133.318 688.56,134.208 700.78,134.893 713,136.686 713,136.686 " />
</g>

<g fill="none" stroke="#dd5400" stroke-opacity="1" stroke-width="1.16667" stroke-linecap="butt" stroke-linejoin="miter" stroke-miterlimit="2" transform="matrix(0.428571,0,0,0.428571,0,0)"
font-family="MS Shell Dlg 2" font-size="8.14286" font-weight="400" font-style="normal" 
>
<path vector-effect="none" fill-rule="evenodd" d="M108.76,293.591 L108.76,304.511 L119.68,304.511 L119.68,293.591 L108.76,293.591"/>
<path vector-effect="none" fill-rule="evenodd" d="M230.96,93.5873 L230.96,104.507 L241.88,104.507 L241.88,93.5873 L230.96,93.5873"/>
<path vector-effect="none" fill-rule="evenodd" d="M353.16,111.231 L353.16,122.151 L364.08,122.151 L364.08,111.231 L353.16,111.231"/>
<path vector-effect="none" fill-rule="evenodd" d="M475.36,120.381 L475.36,131.301 L486.28,131.301 L486.28,120.381 L475.36,120.381"/>
<path vector-effect="none" fill-rule="evenodd" d="M597.56,125.13 L597.56,136.05 L608.48,136.05 L608.48,125.13 L597.56,125.13"/>
</g>

<g fill="none" stroke="#edb120" stroke-opacity="1" stroke-width="1.16667" stroke-linecap="butt" stroke-linejoin="round" transform="matrix(0.428571,0,0,0.428571,0,0)"
font-family="MS Shell Dlg 2" font-size="8.14286" font-weight="400" font-style="normal" 
>
<polyline fill="none" vector-effect="none" points="106.582,394.329 111.165,390.595 115.747,397.483 120.33,394.833 124.912,389.964 129.495,385.544 134.077,379.235 138.66,388.649 143.243,388.292 147.825,388.899 152.408,391.002 156.99,393.89 161.572,396.699 166.155,397.776 170.738,398.52 175.32,399.537 179.902,400.393 184.485,401.084 189.067,399.913 193.65,398.315 198.232,396.134 202.815,396.123 207.398,397.267 211.98,392.681 216.563,386.45 221.145,385.057 225.728,377.095 230.31,370.266 234.893,351.98 239.475,367.39 244.058,362.767 248.64,356.548 253.222,347.567 257.805,321.359 262.388,315.114 266.97,309.683 271.553,291.886 276.135,287.709 280.717,285.706 285.3,287.418 289.883,278.679 294.465,276.599 299.047,274.646 303.63,272.51 308.212,269.94 312.795,298.736 317.378,292.865 321.96,291.374 326.543,275.419 331.125,261.848 335.707,249.393 340.29,237.123 344.872,225.385 349.455,213.528 354.038,201.814 358.62,191.639 363.203,169.794 367.785,170.079 372.368,160.631 376.95,155.632 381.533,145.057 386.115,135.065 390.697,125.52 395.28,112.27 399.862,103.913 404.445,84.855 409.027,71.7547 413.61,71.4962 418.193,64.6281 422.775,56.2277 427.357,52.9521 431.94,53.412 436.522,53.9535 441.105,50.895 445.688,53.0314 450.27,55.1182 454.853,56.8989 459.435,57.7122 464.018,57.9168 468.6,57.7482 473.182,57.656 477.765,57.4262 482.348,62.263 486.93,63.0389 491.513,60.8139 496.095,59.346 500.678,58.5258 505.26,57.9786 509.842,58.2127 514.425,58.5182 519.008,59.1037 523.59,59.7854 528.172,60.6377 532.755,61.4189 537.338,62.3598 541.92,63.4789 546.503,64.6572 551.085,65.8894 555.668,68.0317 560.25,70.2144 " />
</g>

<g fill="none" stroke="#edb120" stroke-opacity="1" stroke-width="1.16667" stroke-linecap="butt" stroke-linejoin="miter" stroke-miterlimit="2" transform="matrix(0.428571,0,0,0.428571,0,0)"
font-family="MS Shell Dlg 2" font-size="8.14286" font-weight="400" font-style="normal" 
>
<path vector-effect="none" fill-rule="evenodd" d="M106.582,385.019 L98.52,398.984 L114.645,398.984 L106.582,385.019"/>
<path vector-effect="none" fill-rule="evenodd" d="M152.408,381.692 L144.345,395.657 L160.47,395.657 L152.408,381.692"/>
<path vector-effect="none" fill-rule="evenodd" d="M198.232,386.824 L190.17,400.789 L206.295,400.789 L198.232,386.824"/>
<path vector-effect="none" fill-rule="evenodd" d="M244.058,353.457 L235.995,367.422 L252.12,367.422 L244.058,353.457"/>
<path vector-effect="none" fill-rule="evenodd" d="M289.883,269.369 L281.82,283.334 L297.945,283.334 L289.883,269.369"/>
<path vector-effect="none" fill-rule="evenodd" d="M335.707,240.083 L327.645,254.048 L343.77,254.048 L335.707,240.083"/>
<path vector-effect="none" fill-rule="evenodd" d="M381.533,135.747 L373.47,149.712 L389.595,149.712 L381.533,135.747"/>
<path vector-effect="none" fill-rule="evenodd" d="M427.357,43.6421 L419.295,57.6071 L435.42,57.6071 L427.357,43.6421"/>
<path vector-effect="none" fill-rule="evenodd" d="M473.182,48.346 L465.12,62.311 L481.245,62.311 L473.182,48.346"/>
<path vector-effect="none" fill-rule="evenodd" d="M519.008,49.7937 L510.945,63.7587 L527.07,63.7587 L519.008,49.7937"/>
</g>
</g>
</svg>
